<svg width="366" height="156" viewBox="0 0 366 156" fill="none" xmlns="http://www.w3.org/2000/svg">
<path d="M88.575 88.6636C88.7137 88.6636 88.783 88.7676 88.783 88.9756C88.783 89.1836 88.7137 89.2876 88.575 89.2876C87.9163 89.2876 86.8936 89.2529 85.507 89.1836C84.1203 89.1143 83.1149 89.0796 82.4909 89.0796C81.7282 89.0796 80.7576 89.1143 79.5789 89.1836C78.4695 89.2529 77.6202 89.2876 77.0308 89.2876C76.8922 89.2876 76.8228 89.1836 76.8228 88.9756C76.8228 88.7676 76.8922 88.6636 77.0308 88.6636C78.3135 88.6636 79.2495 88.5423 79.8389 88.2996C80.4282 88.0569 80.7229 87.6409 80.7229 87.0516C80.7229 86.5662 80.4976 85.8209 80.0469 84.8155L74.0668 72.0753H64.2386L59.7666 82.6835C59.2812 83.8622 59.0386 84.8329 59.0386 85.5955C59.0386 87.6409 60.7373 88.6636 64.1346 88.6636C64.308 88.6636 64.3946 88.7676 64.3946 88.9756C64.3946 89.1836 64.308 89.2876 64.1346 89.2876C63.5106 89.2876 62.6093 89.2529 61.4306 89.1836C60.1132 89.1143 58.9692 89.0796 57.9985 89.0796C57.0972 89.0796 56.0572 89.1143 54.8785 89.1836C53.8385 89.2529 52.9718 89.2876 52.2785 89.2876C52.1051 89.2876 52.0185 89.1836 52.0185 88.9756C52.0185 88.7676 52.1051 88.6636 52.2785 88.6636C53.2491 88.6636 54.0638 88.4903 54.7225 88.1436C55.4158 87.7622 56.0572 87.1209 56.6465 86.2196C57.2705 85.2835 57.9465 83.9489 58.6746 82.2155L69.6467 56.3191C69.7161 56.2151 69.8374 56.1631 70.0107 56.1631C70.1841 56.1631 70.2881 56.2151 70.3227 56.3191L82.5949 82.1635C83.7736 84.7289 84.7789 86.4622 85.611 87.3636C86.443 88.2302 87.431 88.6636 88.575 88.6636ZM64.7066 70.9833H73.5468L68.8667 61.1032L64.7066 70.9833ZM134.603 88.6636C134.707 88.6636 134.759 88.7676 134.759 88.9756C134.759 89.1836 134.707 89.2876 134.603 89.2876C133.529 89.2876 132.679 89.2703 132.055 89.2356L128.467 89.1836L125.139 89.2356C124.585 89.2703 123.805 89.2876 122.799 89.2876C122.73 89.2876 122.695 89.1836 122.695 88.9756C122.695 88.7676 122.73 88.6636 122.799 88.6636C123.978 88.6636 124.845 88.5769 125.399 88.4036C125.989 88.1956 126.37 87.8489 126.543 87.3636C126.751 86.8782 126.821 86.1155 126.751 85.0755L125.815 61.4152L113.959 88.9236C113.89 89.0623 113.751 89.1316 113.543 89.1316C113.37 89.1316 113.214 89.0623 113.075 88.9236L100.283 61.7272L99.8149 83.6195C99.7802 85.4569 100.092 86.7569 100.751 87.5196C101.41 88.2822 102.571 88.6636 104.235 88.6636C104.304 88.6636 104.339 88.7676 104.339 88.9756C104.339 89.1836 104.304 89.2876 104.235 89.2876C103.264 89.2876 102.519 89.2703 101.999 89.2356L99.1909 89.1836L96.4868 89.2356C96.0015 89.2703 95.3082 89.2876 94.4068 89.2876C94.3375 89.2876 94.3028 89.1836 94.3028 88.9756C94.3028 88.7676 94.3375 88.6636 94.4068 88.6636C95.8628 88.6636 96.9029 88.2822 97.5269 87.5196C98.1855 86.7222 98.5322 85.4222 98.5669 83.6195L99.0349 59.4911C97.9949 58.1045 96.5735 57.4111 94.7708 57.4111C94.7015 57.4111 94.6668 57.3071 94.6668 57.0991C94.6668 56.8911 94.7015 56.7871 94.7708 56.7871L96.6948 56.8391C97.0415 56.8738 97.5269 56.8911 98.1509 56.8911C98.7749 56.8911 99.2949 56.8738 99.7109 56.8391C100.162 56.8044 100.508 56.7871 100.751 56.7871C101.202 56.7871 101.566 56.9604 101.843 57.3071C102.155 57.6191 102.588 58.3471 103.143 59.4911L114.739 83.9315L126.075 58.0871C126.457 57.2204 126.977 56.7871 127.635 56.7871C127.809 56.7871 128.051 56.8044 128.363 56.8391C128.71 56.8738 129.161 56.8911 129.715 56.8911L132.159 56.8391C132.541 56.8044 133.113 56.7871 133.875 56.7871C133.979 56.7871 134.031 56.8911 134.031 57.0991C134.031 57.3071 133.979 57.4111 133.875 57.4111C132.142 57.4111 130.894 57.6711 130.131 58.1911C129.403 58.6765 129.057 59.6125 129.091 60.9992L130.131 85.0755C130.166 86.1502 130.287 86.9302 130.495 87.4156C130.738 87.9009 131.154 88.2302 131.743 88.4036C132.333 88.5769 133.286 88.6636 134.603 88.6636ZM175.837 88.6636C175.975 88.6636 176.045 88.7676 176.045 88.9756C176.045 89.1836 175.975 89.2876 175.837 89.2876C175.178 89.2876 174.155 89.2529 172.769 89.1836C171.382 89.1143 170.377 89.0796 169.753 89.0796C168.99 89.0796 168.019 89.1143 166.841 89.1836C165.731 89.2529 164.882 89.2876 164.293 89.2876C164.154 89.2876 164.085 89.1836 164.085 88.9756C164.085 88.7676 164.154 88.6636 164.293 88.6636C165.575 88.6636 166.511 88.5423 167.101 88.2996C167.69 88.0569 167.985 87.6409 167.985 87.0516C167.985 86.5662 167.759 85.8209 167.309 84.8155L161.329 72.0753H151.5L147.028 82.6835C146.543 83.8622 146.3 84.8329 146.3 85.5955C146.3 87.6409 147.999 88.6636 151.396 88.6636C151.57 88.6636 151.656 88.7676 151.656 88.9756C151.656 89.1836 151.57 89.2876 151.396 89.2876C150.772 89.2876 149.871 89.2529 148.692 89.1836C147.375 89.1143 146.231 89.0796 145.26 89.0796C144.359 89.0796 143.319 89.1143 142.14 89.1836C141.1 89.2529 140.234 89.2876 139.54 89.2876C139.367 89.2876 139.28 89.1836 139.28 88.9756C139.28 88.7676 139.367 88.6636 139.54 88.6636C140.511 88.6636 141.326 88.4903 141.984 88.1436C142.678 87.7622 143.319 87.1209 143.908 86.2196C144.532 85.2835 145.208 83.9489 145.936 82.2155L156.909 56.3191C156.978 56.2151 157.099 56.1631 157.273 56.1631C157.446 56.1631 157.55 56.2151 157.585 56.3191L169.857 82.1635C171.035 84.7289 172.041 86.4622 172.873 87.3636C173.705 88.2302 174.693 88.6636 175.837 88.6636ZM151.968 70.9833H160.809L156.129 61.1032L151.968 70.9833ZM216.249 56.7871C216.353 56.7871 216.405 56.8911 216.405 57.0991C216.405 57.3071 216.353 57.4111 216.249 57.4111C214.793 57.4111 213.736 57.8098 213.077 58.6071C212.418 59.4045 212.089 60.7045 212.089 62.5072V89.9116C212.089 89.9809 212.002 90.0329 211.829 90.0676C211.656 90.1023 211.534 90.0849 211.465 90.0156L187.545 61.0512L187.077 60.5312V83.6195C187.077 85.4222 187.389 86.7222 188.013 87.5196C188.671 88.2822 189.711 88.6636 191.133 88.6636C191.237 88.6636 191.289 88.7676 191.289 88.9756C191.289 89.1836 191.237 89.2876 191.133 89.2876C190.266 89.2876 189.607 89.2703 189.157 89.2356L186.557 89.1836L183.905 89.2356C183.419 89.2703 182.709 89.2876 181.773 89.2876C181.703 89.2876 181.669 89.1836 181.669 88.9756C181.669 88.7676 181.703 88.6636 181.773 88.6636C183.263 88.6636 184.321 88.2822 184.945 87.5196C185.569 86.7222 185.881 85.4222 185.881 83.6195V59.2831C184.529 58.0351 183.159 57.4111 181.773 57.4111C181.669 57.4111 181.617 57.3071 181.617 57.0991C181.617 56.8911 181.669 56.7871 181.773 56.7871L183.697 56.8391C184.113 56.8738 184.685 56.8911 185.413 56.8911C186.175 56.8911 186.799 56.8738 187.285 56.8391C187.77 56.8044 188.151 56.7871 188.429 56.7871C188.706 56.7871 188.897 56.8564 189.001 56.9951C189.139 57.0991 189.347 57.3591 189.625 57.7751C190.041 58.3991 190.457 58.9711 190.873 59.4911L210.893 84.0875V62.5072C210.893 60.7045 210.581 59.4045 209.957 58.6071C209.368 57.8098 208.362 57.4111 206.941 57.4111C206.872 57.4111 206.837 57.3071 206.837 57.0991C206.837 56.8911 206.872 56.7871 206.941 56.7871L208.969 56.8391C210.009 56.9084 210.858 56.9431 211.517 56.9431C212.141 56.9431 213.008 56.9084 214.117 56.8391L216.249 56.7871ZM230.891 57.7231C228.707 57.7231 227.06 58.2778 225.951 59.3871C224.876 60.4965 224.096 62.3859 223.61 65.0552C223.61 65.1246 223.506 65.1592 223.298 65.1592C223.125 65.1592 223.038 65.1246 223.038 65.0552C223.177 63.8072 223.333 62.1779 223.506 60.1672C223.68 58.1565 223.766 56.6484 223.766 55.6431C223.766 55.4698 223.853 55.3831 224.026 55.3831C224.235 55.3831 224.339 55.4698 224.339 55.6431C224.339 56.4058 225.275 56.7871 227.147 56.7871C230.093 56.8911 233.577 56.9431 237.599 56.9431C239.644 56.9431 241.811 56.9084 244.099 56.8391L247.635 56.7871C248.883 56.7871 249.802 56.7004 250.391 56.5271C251.015 56.3538 251.414 56.0071 251.587 55.4871C251.622 55.3484 251.726 55.2791 251.899 55.2791C252.072 55.2791 252.159 55.3484 252.159 55.4871C252.055 56.4924 251.951 58.0178 251.847 60.0632C251.743 62.1085 251.691 63.7725 251.691 65.0552C251.691 65.1246 251.587 65.1592 251.379 65.1592C251.171 65.1592 251.067 65.1246 251.067 65.0552C250.963 62.3512 250.408 60.4618 249.403 59.3871C248.398 58.2778 246.734 57.7231 244.411 57.7231C242.851 57.7231 241.741 57.7925 241.083 57.9311C240.424 58.0698 239.973 58.3645 239.731 58.8151C239.488 59.2658 239.367 60.0285 239.367 61.1032V85.0755C239.367 86.1502 239.488 86.9302 239.731 87.4156C239.973 87.9009 240.441 88.2302 241.135 88.4036C241.828 88.5769 242.92 88.6636 244.411 88.6636C244.515 88.6636 244.567 88.7676 244.567 88.9756C244.567 89.1836 244.515 89.2876 244.411 89.2876C243.267 89.2876 242.348 89.2703 241.655 89.2356L237.599 89.1836L233.699 89.2356C233.005 89.2703 232.052 89.2876 230.839 89.2876C230.769 89.2876 230.735 89.1836 230.735 88.9756C230.735 88.7676 230.769 88.6636 230.839 88.6636C232.329 88.6636 233.421 88.5769 234.115 88.4036C234.808 88.2302 235.276 87.9009 235.519 87.4156C235.796 86.8956 235.935 86.1155 235.935 85.0755V60.9992C235.935 59.9245 235.813 59.1791 235.571 58.7631C235.328 58.3125 234.877 58.0351 234.219 57.9311C233.56 57.7925 232.451 57.7231 230.891 57.7231ZM282.36 81.5395C282.36 81.4701 282.43 81.4355 282.568 81.4355C282.672 81.4355 282.759 81.4528 282.828 81.4875C282.932 81.5221 282.984 81.5741 282.984 81.6435C282.672 83.8275 282.516 86.1155 282.516 88.5076C282.516 88.7849 282.447 88.9929 282.308 89.1316C282.204 89.2356 281.996 89.2876 281.684 89.2876H259.896C259.827 89.2876 259.792 89.1836 259.792 88.9756C259.792 88.7676 259.827 88.6636 259.896 88.6636C261.213 88.6636 262.167 88.5769 262.756 88.4036C263.38 88.2302 263.796 87.9009 264.004 87.4156C264.247 86.8956 264.368 86.1155 264.368 85.0755V60.9992C264.368 59.9592 264.247 59.1965 264.004 58.7111C263.796 58.2258 263.38 57.8965 262.756 57.7231C262.167 57.5151 261.213 57.4111 259.896 57.4111C259.827 57.4111 259.792 57.3071 259.792 57.0991C259.792 56.8911 259.827 56.7871 259.896 56.7871H280.8C281.112 56.7871 281.268 56.9431 281.268 57.2551L281.372 63.6512C281.372 63.7552 281.286 63.8245 281.112 63.8592C280.939 63.8592 280.835 63.8072 280.8 63.7032C280.696 61.8658 280.142 60.4445 279.136 59.4391C278.131 58.3991 276.796 57.8791 275.132 57.8791H271.96C270.747 57.8791 269.846 57.9831 269.256 58.1911C268.702 58.3645 268.303 58.6938 268.06 59.1791C267.852 59.6298 267.748 60.3232 267.748 61.2592V71.8153H274.092C275.756 71.8153 276.935 71.538 277.628 70.9833C278.356 70.4286 278.72 69.4926 278.72 68.1753C278.72 68.1059 278.824 68.0713 279.032 68.0713C279.24 68.0713 279.344 68.1059 279.344 68.1753L279.292 72.3873C279.292 73.3927 279.31 74.1554 279.344 74.6754L279.396 77.1714C279.396 77.2407 279.292 77.2754 279.084 77.2754C278.876 77.2754 278.772 77.2407 278.772 77.1714C278.772 75.6461 278.391 74.554 277.628 73.8954C276.9 73.2367 275.67 72.9073 273.936 72.9073H267.748V84.8675C267.748 85.8382 267.852 86.5489 268.06 86.9996C268.268 87.4502 268.65 87.7622 269.204 87.9356C269.759 88.1089 270.626 88.1956 271.804 88.1956H275.964C277.628 88.1956 279.015 87.6062 280.124 86.4276C281.234 85.2489 281.979 83.6195 282.36 81.5395ZM296.77 62.8712C296.77 64.2232 297.1 65.4019 297.758 66.4073C298.417 67.4126 299.214 68.2619 300.15 68.9553C301.086 69.614 302.404 70.4633 304.102 71.5033C305.905 72.578 307.309 73.4794 308.314 74.2074C309.32 74.9354 310.169 75.8714 310.863 77.0154C311.591 78.1248 311.955 79.4594 311.955 81.0195C311.955 82.6835 311.539 84.1915 310.707 85.5435C309.875 86.8956 308.644 87.9702 307.014 88.7676C305.42 89.5303 303.496 89.9116 301.242 89.9116C298.573 89.9116 296.129 89.3049 293.91 88.0916C293.737 87.9876 293.616 87.8662 293.546 87.7276C293.512 87.5889 293.477 87.3809 293.442 87.1036L292.766 80.0315C292.732 79.8928 292.801 79.8061 292.974 79.7715C293.182 79.7368 293.304 79.7888 293.338 79.9275C293.893 82.4235 294.916 84.5729 296.406 86.3756C297.932 88.1782 299.942 89.0796 302.438 89.0796C304.172 89.0796 305.628 88.6116 306.806 87.6756C308.02 86.7049 308.626 85.1795 308.626 83.0995C308.626 81.5395 308.28 80.1875 307.586 79.0434C306.893 77.8994 306.044 76.9634 305.038 76.2354C304.068 75.4727 302.733 74.5887 301.034 73.5834C299.37 72.578 298.053 71.7113 297.082 70.9833C296.146 70.2553 295.349 69.3366 294.69 68.2273C294.032 67.1179 293.702 65.8179 293.702 64.3272C293.702 62.5939 294.153 61.1205 295.054 59.9072C295.99 58.6591 297.186 57.7405 298.642 57.1511C300.133 56.5271 301.71 56.2151 303.374 56.2151C305.42 56.2151 307.448 56.6311 309.459 57.4631C309.979 57.6365 310.239 57.9311 310.239 58.3471L310.603 64.3272C310.603 64.4659 310.516 64.5352 310.343 64.5352C310.169 64.5352 310.065 64.4659 310.031 64.3272C309.753 62.5245 309.008 60.8605 307.794 59.3351C306.581 57.7751 304.83 56.9951 302.542 56.9951C300.601 56.9951 299.145 57.5671 298.174 58.7111C297.238 59.8205 296.77 61.2072 296.77 62.8712ZM21.6816 147.556C20.3847 147.556 18.8865 147.489 17.1871 147.355C16.561 147.31 15.756 147.265 14.7721 147.221C13.8329 147.176 12.782 147.153 11.6192 147.153L7.05758 147.221C6.25258 147.265 5.13453 147.288 3.70343 147.288C3.61399 147.288 3.56927 147.153 3.56927 146.885C3.56927 146.617 3.61399 146.483 3.70343 146.483C5.40286 146.483 6.63272 146.371 7.39299 146.147C8.19799 145.924 8.73465 145.499 9.00298 144.873C9.31603 144.202 9.47256 143.196 9.47256 141.854V110.795C9.47256 109.453 9.33839 108.469 9.07006 107.843C8.80173 107.217 8.26507 106.792 7.46007 106.568C6.6998 106.3 5.46995 106.166 3.77051 106.166C3.68107 106.166 3.63635 106.032 3.63635 105.763C3.63635 105.495 3.68107 105.361 3.77051 105.361L7.12466 105.428C9.00298 105.517 10.5012 105.562 11.6192 105.562C13.3186 105.562 14.9957 105.495 16.6504 105.361C18.6182 105.271 19.9822 105.227 20.7425 105.227C25.3936 105.227 29.508 106.121 33.0857 107.91C36.6635 109.699 39.4363 112.136 41.404 115.222C43.4165 118.308 44.4227 121.774 44.4227 125.62C44.4227 129.958 43.3941 133.804 41.3369 137.158C39.3244 140.468 36.574 143.039 33.0857 144.873C29.5974 146.661 25.7961 147.556 21.6816 147.556ZM21.0108 146.55C24.5886 146.55 27.7638 145.812 30.5366 144.336C33.3093 142.815 35.456 140.602 36.9765 137.695C38.5418 134.743 39.3245 131.21 39.3245 127.096C39.3245 123.205 38.5865 119.672 37.1107 116.497C35.6349 113.321 33.533 110.817 30.8049 108.983C28.0769 107.15 24.924 106.233 21.3462 106.233C19.4232 106.233 17.925 106.345 16.8517 106.568C15.8231 106.792 15.0628 107.239 14.5709 107.91C14.0789 108.581 13.8329 109.587 13.8329 110.929V141.116C13.8329 142.458 14.0118 143.509 14.3696 144.269C14.7721 145.029 15.4877 145.611 16.5163 146.013C17.5896 146.371 19.0878 146.55 21.0108 146.55ZM76.9852 148.093C72.8261 148.093 69.1141 147.131 65.8494 145.208C62.6295 143.24 60.125 140.602 58.3362 137.292C56.592 133.938 55.7199 130.293 55.7199 126.358C55.7199 121.751 56.8827 117.816 59.2082 114.551C61.5338 111.242 64.5078 108.76 68.1303 107.105C71.7975 105.45 75.5317 104.623 79.3331 104.623C83.5817 104.623 87.316 105.629 90.5359 107.642C93.7559 109.609 96.2156 112.226 97.9151 115.49C99.6592 118.755 100.531 122.221 100.531 125.888C100.531 129.958 99.458 133.692 97.3113 137.091C95.1647 140.49 92.2801 143.173 88.6576 145.141C85.0799 147.109 81.1891 148.093 76.9852 148.093ZM79.3331 146.684C82.3742 146.684 85.1022 145.946 87.5172 144.47C89.9769 142.994 91.9 140.825 93.2863 137.963C94.7174 135.101 95.433 131.702 95.433 127.766C95.433 123.563 94.6504 119.828 93.0851 116.564C91.5198 113.299 89.3061 110.75 86.4439 108.916C83.6264 107.083 80.317 106.166 76.5156 106.166C71.5962 106.166 67.7501 107.753 64.9774 110.929C62.2046 114.104 60.8182 118.464 60.8182 124.01C60.8182 128.214 61.6009 132.06 63.1661 135.548C64.7314 138.992 66.9228 141.72 69.7402 143.732C72.5577 145.7 75.7553 146.684 79.3331 146.684ZM173.786 105.361C173.92 105.361 173.987 105.495 173.987 105.763C173.987 106.032 173.92 106.166 173.786 106.166C172.265 106.166 170.946 106.568 169.828 107.373C168.71 108.178 167.771 109.542 167.01 111.465L152.722 147.221C152.677 147.399 152.431 147.489 151.984 147.489C151.626 147.489 151.38 147.399 151.246 147.221L134.542 110.929C133.782 109.185 132.977 107.955 132.127 107.239C131.278 106.524 130.182 106.166 128.84 106.166C128.706 106.166 128.639 106.032 128.639 105.763C128.639 105.495 128.706 105.361 128.84 105.361L131.389 105.428C132.642 105.517 133.648 105.562 134.408 105.562C136.197 105.562 138.12 105.517 140.177 105.428L142.928 105.361C143.062 105.361 143.129 105.495 143.129 105.763C143.129 106.032 143.062 106.166 142.928 106.166C141.541 106.166 140.49 106.345 139.775 106.702C139.104 107.06 138.769 107.664 138.769 108.514C138.769 109.05 138.97 109.766 139.372 110.66L153.393 141.384L165.468 111.13C165.825 110.191 166.004 109.453 166.004 108.916C166.004 107.977 165.579 107.284 164.73 106.837C163.88 106.389 162.561 106.166 160.772 106.166C160.638 106.166 160.57 106.032 160.57 105.763C160.57 105.495 160.638 105.361 160.772 105.361L163.656 105.428C165.177 105.517 166.563 105.562 167.815 105.562C168.755 105.562 169.806 105.517 170.968 105.428L173.786 105.361ZM191.631 141.854C191.631 143.196 191.765 144.202 192.033 144.873C192.302 145.499 192.816 145.924 193.576 146.147C194.381 146.371 195.634 146.483 197.333 146.483C197.467 146.483 197.534 146.617 197.534 146.885C197.534 147.153 197.467 147.288 197.333 147.288C195.991 147.288 194.918 147.265 194.113 147.221L189.35 147.153L184.721 147.221C183.916 147.265 182.821 147.288 181.434 147.288C181.3 147.288 181.233 147.153 181.233 146.885C181.233 146.617 181.3 146.483 181.434 146.483C183.134 146.483 184.364 146.371 185.124 146.147C185.929 145.924 186.466 145.499 186.734 144.873C187.047 144.202 187.203 143.196 187.203 141.854V110.795C187.203 109.453 187.047 108.469 186.734 107.843C186.466 107.217 185.929 106.792 185.124 106.568C184.364 106.3 183.134 106.166 181.434 106.166C181.3 106.166 181.233 106.032 181.233 105.763C181.233 105.495 181.3 105.361 181.434 105.361L184.721 105.428C186.6 105.517 188.143 105.562 189.35 105.562C190.692 105.562 192.302 105.517 194.18 105.428L197.333 105.361C197.467 105.361 197.534 105.495 197.534 105.763C197.534 106.032 197.467 106.166 197.333 106.166C195.678 106.166 194.448 106.3 193.643 106.568C192.883 106.837 192.346 107.306 192.033 107.977C191.765 108.603 191.631 109.587 191.631 110.929V141.854ZM252.477 105.361C252.611 105.361 252.678 105.495 252.678 105.763C252.678 106.032 252.611 106.166 252.477 106.166C250.599 106.166 249.235 106.68 248.385 107.709C247.535 108.737 247.111 110.414 247.111 112.74V148.093C247.111 148.182 246.999 148.249 246.775 148.294C246.552 148.339 246.395 148.316 246.306 148.227L215.447 110.862L214.844 110.191V139.976C214.844 142.301 215.246 143.978 216.051 145.007C216.901 145.991 218.243 146.483 220.076 146.483C220.21 146.483 220.277 146.617 220.277 146.885C220.277 147.153 220.21 147.288 220.076 147.288C218.958 147.288 218.108 147.265 217.527 147.221L214.173 147.153L210.752 147.221C210.126 147.265 209.209 147.288 208.001 147.288C207.912 147.288 207.867 147.153 207.867 146.885C207.867 146.617 207.912 146.483 208.001 146.483C209.924 146.483 211.288 145.991 212.093 145.007C212.898 143.978 213.301 142.301 213.301 139.976V108.581C211.557 106.971 209.79 106.166 208.001 106.166C207.867 106.166 207.8 106.032 207.8 105.763C207.8 105.495 207.867 105.361 208.001 105.361L210.483 105.428C211.02 105.473 211.758 105.495 212.697 105.495C213.681 105.495 214.486 105.473 215.112 105.428C215.738 105.383 216.23 105.361 216.588 105.361C216.946 105.361 217.192 105.45 217.326 105.629C217.505 105.763 217.773 106.099 218.131 106.635C218.667 107.44 219.204 108.178 219.741 108.849L245.568 140.579V112.74C245.568 110.414 245.165 108.737 244.36 107.709C243.6 106.68 242.303 106.166 240.469 106.166C240.38 106.166 240.335 106.032 240.335 105.763C240.335 105.495 240.38 105.361 240.469 105.361L243.086 105.428C244.427 105.517 245.523 105.562 246.373 105.562C247.178 105.562 248.296 105.517 249.727 105.428L252.477 105.361ZM307.12 146.483C307.255 146.483 307.322 146.617 307.322 146.885C307.322 147.153 307.255 147.288 307.12 147.288C305.734 147.288 304.638 147.265 303.833 147.221L299.205 147.153L294.308 147.221C293.503 147.265 292.429 147.288 291.088 147.288C290.953 147.288 290.886 147.153 290.886 146.885C290.886 146.617 290.953 146.483 291.088 146.483C292.832 146.483 294.106 146.371 294.911 146.147C295.716 145.924 296.253 145.499 296.521 144.873C296.834 144.202 296.991 143.196 296.991 141.854V126.156H271.231V141.854C271.231 143.196 271.365 144.202 271.634 144.873C271.947 145.499 272.506 145.924 273.311 146.147C274.116 146.371 275.39 146.483 277.134 146.483C277.224 146.483 277.269 146.617 277.269 146.885C277.269 147.153 277.224 147.288 277.134 147.288C275.748 147.288 274.652 147.265 273.847 147.221L269.017 147.153L264.389 147.221C263.584 147.265 262.466 147.288 261.034 147.288C260.945 147.288 260.9 147.153 260.9 146.885C260.9 146.617 260.945 146.483 261.034 146.483C262.734 146.483 263.986 146.371 264.791 146.147C265.641 145.924 266.2 145.499 266.468 144.873C266.781 144.202 266.938 143.196 266.938 141.854V110.795C266.938 109.453 266.781 108.469 266.468 107.843C266.2 107.217 265.663 106.792 264.858 106.568C264.053 106.3 262.801 106.166 261.102 106.166C261.012 106.166 260.967 106.032 260.967 105.763C260.967 105.495 261.012 105.361 261.102 105.361L264.523 105.428C266.401 105.517 267.899 105.562 269.017 105.562C270.314 105.562 271.947 105.517 273.914 105.428L277.134 105.361C277.224 105.361 277.269 105.495 277.269 105.763C277.269 106.032 277.224 106.166 277.134 106.166C275.435 106.166 274.16 106.3 273.311 106.568C272.506 106.837 271.947 107.306 271.634 107.977C271.365 108.603 271.231 109.587 271.231 110.929V124.748H296.991V110.929C296.991 109.587 296.834 108.603 296.521 107.977C296.253 107.306 295.716 106.837 294.911 106.568C294.106 106.3 292.832 106.166 291.088 106.166C290.953 106.166 290.886 106.032 290.886 105.763C290.886 105.495 290.953 105.361 291.088 105.361L294.308 105.428C296.275 105.517 297.908 105.562 299.205 105.562C300.412 105.562 301.955 105.517 303.833 105.428L307.12 105.361C307.255 105.361 307.322 105.495 307.322 105.763C307.322 106.032 307.255 106.166 307.12 106.166C305.421 106.166 304.169 106.3 303.364 106.568C302.559 106.792 302 107.217 301.687 107.843C301.418 108.469 301.284 109.453 301.284 110.795V141.854C301.284 143.196 301.418 144.202 301.687 144.873C302 145.499 302.559 145.924 303.364 146.147C304.169 146.371 305.421 146.483 307.12 146.483ZM338.836 148.093C334.677 148.093 330.965 147.131 327.701 145.208C324.481 143.24 321.976 140.602 320.187 137.292C318.443 133.938 317.571 130.293 317.571 126.358C317.571 121.751 318.734 117.816 321.059 114.551C323.385 111.242 326.359 108.76 329.982 107.105C333.649 105.45 337.383 104.623 341.184 104.623C345.433 104.623 349.167 105.629 352.387 107.642C355.607 109.609 358.067 112.226 359.766 115.49C361.51 118.755 362.383 122.221 362.383 125.888C362.383 129.958 361.309 133.692 359.163 137.091C357.016 140.49 354.131 143.173 350.509 145.141C346.931 147.109 343.04 148.093 338.836 148.093ZM341.184 146.684C344.225 146.684 346.953 145.946 349.368 144.47C351.828 142.994 353.751 140.825 355.138 137.963C356.569 135.101 357.284 131.702 357.284 127.766C357.284 123.563 356.502 119.828 354.936 116.564C353.371 113.299 351.157 110.75 348.295 108.916C345.478 107.083 342.168 106.166 338.367 106.166C333.447 106.166 329.601 107.753 326.829 110.929C324.056 114.104 322.669 118.464 322.669 124.01C322.669 128.214 323.452 132.06 325.017 135.548C326.583 138.992 328.774 141.72 331.592 143.732C334.409 145.7 337.607 146.684 341.184 146.684Z" fill="#D9A863"/>
<path d="M115.641 9.63605C115.641 8.64477 115.812 7.66897 116.152 6.70867C116.509 5.73287 117.02 4.85001 117.686 4.06008C118.352 3.25466 119.165 2.61188 120.125 2.13173C121.101 1.65157 122.208 1.4115 123.448 1.4115C124.919 1.4115 126.174 1.75225 127.211 2.43376C128.249 3.09978 129.024 3.9594 129.535 5.01264L128.559 5.57024C128.172 4.81129 127.691 4.20722 127.118 3.75805C126.561 3.30887 125.957 2.99135 125.306 2.80549C124.656 2.60413 124.005 2.50346 123.355 2.50346C122.317 2.50346 121.388 2.71256 120.567 3.13075C119.761 3.54895 119.08 4.10655 118.522 4.80354C117.965 5.50054 117.539 6.27498 117.244 7.12686C116.965 7.97875 116.826 8.83838 116.826 9.70575C116.826 10.6815 116.996 11.6109 117.337 12.4937C117.678 13.3611 118.143 14.1355 118.731 14.8171C119.335 15.4986 120.032 16.0407 120.822 16.4434C121.628 16.8461 122.495 17.0474 123.424 17.0474C124.09 17.0474 124.764 16.939 125.446 16.7222C126.143 16.4898 126.793 16.1413 127.397 15.6767C128.001 15.1965 128.489 14.577 128.861 13.818L129.883 14.3059C129.527 15.1268 128.993 15.8238 128.28 16.3969C127.568 16.97 126.778 17.4037 125.91 17.698C125.043 17.9923 124.183 18.1394 123.331 18.1394C122.216 18.1394 121.186 17.8993 120.241 17.4192C119.297 16.9235 118.476 16.273 117.779 15.4676C117.097 14.6467 116.571 13.7328 116.199 12.7261C115.827 11.7038 115.641 10.6738 115.641 9.63605ZM151.082 18.1162C149.765 18.1162 148.666 17.8838 147.783 17.4192C146.9 16.9545 146.195 16.3272 145.668 15.5373C145.142 14.7319 144.762 13.8335 144.53 12.8422C144.298 11.8509 144.182 10.8364 144.182 9.79868V1.50443H145.366V9.79868C145.366 10.697 145.459 11.5799 145.645 12.4473C145.831 13.3146 146.133 14.0968 146.551 14.7938C146.985 15.4753 147.566 16.0174 148.294 16.4201C149.037 16.8229 149.959 17.0242 151.059 17.0242C152.174 17.0242 153.095 16.8151 153.823 16.3969C154.567 15.9787 155.148 15.4289 155.566 14.7474C156 14.0504 156.302 13.2759 156.472 12.424C156.658 11.5567 156.751 10.6815 156.751 9.79868V1.50443H157.936V9.79868C157.936 10.8984 157.812 11.9516 157.564 12.9584C157.332 13.9497 156.944 14.8325 156.402 15.607C155.86 16.3814 155.155 16.9932 154.288 17.4424C153.421 17.8916 152.352 18.1162 151.082 18.1162ZM173.615 18V1.50443H180.469C181.181 1.50443 181.824 1.65157 182.397 1.94586C182.985 2.24015 183.489 2.63511 183.907 3.13075C184.341 3.61091 184.674 4.15301 184.906 4.75708C185.154 5.36114 185.278 5.98069 185.278 6.61573C185.278 7.43664 185.115 8.20334 184.79 8.91582C184.465 9.6283 184.008 10.2246 183.419 10.7048C182.846 11.1849 182.172 11.4792 181.398 11.5876L185.51 18H184.139L180.143 11.7735H174.8V18H173.615ZM174.8 10.6815H180.585C181.297 10.6815 181.917 10.4879 182.443 10.1007C182.97 9.71349 183.373 9.21011 183.651 8.59055C183.946 7.971 184.093 7.31273 184.093 6.61573C184.093 5.90325 183.923 5.24497 183.582 4.64091C183.257 4.02136 182.815 3.52572 182.257 3.15399C181.715 2.76677 181.104 2.57316 180.422 2.57316H174.8V10.6815ZM209.915 4.24595C209.651 3.95166 209.357 3.6961 209.032 3.47925C208.706 3.24692 208.358 3.06105 207.986 2.92165C207.615 2.76677 207.212 2.6506 206.778 2.57316C206.344 2.49571 205.88 2.45699 205.384 2.45699C203.773 2.45699 202.596 2.76677 201.853 3.38632C201.125 3.99038 200.761 4.81129 200.761 5.84904C200.761 6.54603 200.923 7.10363 201.249 7.52183C201.589 7.92454 202.116 8.2498 202.828 8.49762C203.541 8.74544 204.463 8.98552 205.593 9.21785C206.786 9.46567 207.816 9.75996 208.683 10.1007C209.551 10.426 210.217 10.8752 210.681 11.4482C211.161 12.0213 211.402 12.7958 211.402 13.7716C211.402 14.4995 211.262 15.1423 210.983 15.6999C210.705 16.242 210.302 16.6912 209.775 17.0474C209.249 17.4037 208.621 17.6747 207.893 17.8606C207.181 18.0465 206.383 18.1394 205.5 18.1394C204.648 18.1394 203.835 18.0465 203.061 17.8606C202.286 17.6747 201.558 17.4037 200.877 17.0474C200.195 16.6912 199.56 16.2343 198.972 15.6767L199.599 14.7241C199.94 15.0959 200.319 15.4289 200.738 15.7231C201.171 16.0019 201.636 16.242 202.131 16.4434C202.643 16.6447 203.185 16.8074 203.758 16.9313C204.331 17.0397 204.927 17.0939 205.547 17.0939C206.987 17.0939 208.11 16.8306 208.916 16.304C209.736 15.7619 210.147 14.9642 210.147 13.911C210.147 13.183 209.961 12.5944 209.589 12.1452C209.218 11.6961 208.645 11.3321 207.87 11.0533C207.096 10.759 206.128 10.4879 204.966 10.2401C203.804 9.99229 202.813 9.71349 201.992 9.40372C201.187 9.09394 200.575 8.67574 200.157 8.14912C199.754 7.6225 199.553 6.91002 199.553 6.01167C199.553 5.02039 199.793 4.18399 200.273 3.50249C200.768 2.80549 201.458 2.27887 202.341 1.92263C203.223 1.56639 204.238 1.38826 205.384 1.38826C206.097 1.38826 206.755 1.45796 207.359 1.59736C207.979 1.73676 208.544 1.95361 209.055 2.24789C209.582 2.52669 210.07 2.88293 210.519 3.31662L209.915 4.24595ZM232.578 18.1162C231.432 18.1162 230.386 17.8838 229.441 17.4192C228.497 16.939 227.683 16.304 227.002 15.514C226.32 14.7241 225.794 13.8335 225.422 12.8422C225.05 11.8355 224.864 10.8055 224.864 9.75221C224.864 8.65251 225.058 7.60702 225.445 6.61573C225.833 5.60896 226.375 4.71836 227.072 3.94392C227.784 3.15399 228.605 2.53443 229.534 2.08526C230.479 1.6206 231.501 1.38826 232.601 1.38826C233.763 1.38826 234.808 1.62834 235.738 2.10849C236.682 2.58865 237.496 3.23143 238.177 4.03685C238.859 4.84227 239.385 5.74062 239.757 6.7319C240.129 7.72318 240.315 8.72995 240.315 9.75221C240.315 10.8674 240.121 11.9284 239.734 12.9352C239.346 13.9264 238.797 14.8171 238.084 15.607C237.387 16.3814 236.566 16.9932 235.621 17.4424C234.692 17.8916 233.678 18.1162 232.578 18.1162ZM226.049 9.75221C226.049 10.697 226.212 11.6031 226.537 12.4705C226.863 13.3379 227.312 14.1123 227.885 14.7938C228.473 15.4753 229.163 16.0174 229.953 16.4201C230.758 16.8229 231.641 17.0242 232.601 17.0242C233.577 17.0242 234.468 16.8151 235.273 16.3969C236.078 15.9787 236.768 15.4211 237.341 14.7241C237.914 14.0271 238.347 13.2527 238.642 12.4008C238.952 11.5334 239.106 10.6506 239.106 9.75221C239.106 8.8074 238.944 7.9013 238.619 7.03393C238.309 6.16656 237.86 5.39212 237.271 4.71061C236.682 4.0291 235.985 3.487 235.18 3.08429C234.39 2.68158 233.53 2.48022 232.601 2.48022C231.61 2.48022 230.711 2.68932 229.906 3.10752C229.101 3.52572 228.411 4.08332 227.838 4.78031C227.281 5.47731 226.839 6.25949 226.514 7.12686C226.204 7.97875 226.049 8.85386 226.049 9.75221Z" fill="white"/>
</svg>
