<svg width="453" height="72" viewBox="0 0 453 72" fill="none" xmlns="http://www.w3.org/2000/svg">
<path d="M40.9092 41.0678C40.9736 41.0678 41.0058 41.1161 41.0058 41.2127C41.0058 41.3094 40.9736 41.3577 40.9092 41.3577C40.6032 41.3577 40.1282 41.3416 39.4841 41.3094C38.84 41.2772 38.373 41.2611 38.0832 41.2611C37.729 41.2611 37.2781 41.2772 36.7306 41.3094C36.2153 41.3416 35.8208 41.3577 35.5471 41.3577C35.4827 41.3577 35.4505 41.3094 35.4505 41.2127C35.4505 41.1161 35.4827 41.0678 35.5471 41.0678C36.1429 41.0678 36.5776 41.0115 36.8514 40.8988C37.1251 40.786 37.262 40.5928 37.262 40.3191C37.262 40.0936 37.1573 39.7474 36.948 39.2805L34.1704 33.3629H29.6054L27.5282 38.2902C27.3028 38.8377 27.19 39.2885 27.19 39.6428C27.19 40.5928 27.979 41.0678 29.5571 41.0678C29.6376 41.0678 29.6778 41.1161 29.6778 41.2127C29.6778 41.3094 29.6376 41.3577 29.5571 41.3577C29.2672 41.3577 28.8486 41.3416 28.3011 41.3094C27.6892 41.2772 27.1578 41.2611 26.707 41.2611C26.2883 41.2611 25.8052 41.2772 25.2578 41.3094C24.7747 41.3416 24.3721 41.3577 24.0501 41.3577C23.9696 41.3577 23.9293 41.3094 23.9293 41.2127C23.9293 41.1161 23.9696 41.0678 24.0501 41.0678C24.501 41.0678 24.8794 40.9873 25.1853 40.8263C25.5074 40.6492 25.8052 40.3513 26.079 39.9326C26.3688 39.4979 26.6828 38.8779 27.021 38.0728L32.1173 26.0444C32.1495 25.9961 32.2059 25.972 32.2864 25.972C32.3669 25.972 32.4152 25.9961 32.4313 26.0444L38.1315 38.0487C38.679 39.2402 39.146 40.0453 39.5324 40.464C39.9189 40.8665 40.3778 41.0678 40.9092 41.0678ZM29.8228 32.8557H33.9288L31.755 28.2665L29.8228 32.8557ZM62.2885 41.0678C62.3368 41.0678 62.3609 41.1161 62.3609 41.2127C62.3609 41.3094 62.3368 41.3577 62.2885 41.3577C61.7893 41.3577 61.3948 41.3496 61.105 41.3335L59.4384 41.3094L57.8926 41.3335C57.6349 41.3496 57.2726 41.3577 56.8057 41.3577C56.7735 41.3577 56.7573 41.3094 56.7573 41.2127C56.7573 41.1161 56.7735 41.0678 56.8057 41.0678C57.3531 41.0678 57.7557 41.0276 58.0133 40.9471C58.2871 40.8504 58.4642 40.6894 58.5447 40.464C58.6413 40.2386 58.6735 39.8843 58.6413 39.4012L58.2066 28.4115L52.6996 41.1886C52.6674 41.253 52.603 41.2852 52.5064 41.2852C52.4258 41.2852 52.3534 41.253 52.289 41.1886L46.3472 28.5564L46.1299 38.7249C46.1138 39.5784 46.2587 40.1822 46.5646 40.5365C46.8706 40.8907 47.41 41.0678 48.1829 41.0678C48.2151 41.0678 48.2312 41.1161 48.2312 41.2127C48.2312 41.3094 48.2151 41.3577 48.1829 41.3577C47.732 41.3577 47.3858 41.3496 47.1443 41.3335L45.84 41.3094L44.5841 41.3335C44.3586 41.3496 44.0366 41.3577 43.6179 41.3577C43.5857 41.3577 43.5696 41.3094 43.5696 41.2127C43.5696 41.1161 43.5857 41.0678 43.6179 41.0678C44.2942 41.0678 44.7773 40.8907 45.0671 40.5365C45.3731 40.1661 45.5341 39.5623 45.5502 38.7249L45.7676 27.5178C45.2845 26.8737 44.6243 26.5516 43.787 26.5516C43.7548 26.5516 43.7387 26.5033 43.7387 26.4067C43.7387 26.3101 43.7548 26.2618 43.787 26.2618L44.6807 26.286C44.8417 26.3021 45.0671 26.3101 45.357 26.3101C45.6468 26.3101 45.8883 26.3021 46.0816 26.286C46.2909 26.2699 46.4519 26.2618 46.5646 26.2618C46.774 26.2618 46.943 26.3423 47.0718 26.5033C47.2168 26.6483 47.418 26.9864 47.6757 27.5178L53.0619 38.8699L58.3273 26.8656C58.5044 26.4631 58.746 26.2618 59.0519 26.2618C59.1324 26.2618 59.2451 26.2699 59.3901 26.286C59.5511 26.3021 59.7604 26.3101 60.0181 26.3101L61.1533 26.286C61.3304 26.2699 61.5961 26.2618 61.9503 26.2618C61.9986 26.2618 62.0228 26.3101 62.0228 26.4067C62.0228 26.5033 61.9986 26.5516 61.9503 26.5516C61.1452 26.5516 60.5655 26.6724 60.2113 26.9139C59.8731 27.1394 59.7121 27.5741 59.7282 28.2182L60.2113 39.4012C60.2274 39.9004 60.2837 40.2627 60.3804 40.4881C60.4931 40.7136 60.6863 40.8665 60.96 40.9471C61.2338 41.0276 61.6766 41.0678 62.2885 41.0678ZM81.4406 41.0678C81.505 41.0678 81.5372 41.1161 81.5372 41.2127C81.5372 41.3094 81.505 41.3577 81.4406 41.3577C81.1346 41.3577 80.6596 41.3416 80.0155 41.3094C79.3714 41.2772 78.9045 41.2611 78.6146 41.2611C78.2604 41.2611 77.8095 41.2772 77.2621 41.3094C76.7468 41.3416 76.3523 41.3577 76.0785 41.3577C76.0141 41.3577 75.9819 41.3094 75.9819 41.2127C75.9819 41.1161 76.0141 41.0678 76.0785 41.0678C76.6743 41.0678 77.1091 41.0115 77.3828 40.8988C77.6566 40.786 77.7934 40.5928 77.7934 40.3191C77.7934 40.0936 77.6888 39.7474 77.4794 39.2805L74.7018 33.3629H70.1368L68.0596 38.2902C67.8342 38.8377 67.7215 39.2885 67.7215 39.6428C67.7215 40.5928 68.5105 41.0678 70.0885 41.0678C70.169 41.0678 70.2093 41.1161 70.2093 41.2127C70.2093 41.3094 70.169 41.3577 70.0885 41.3577C69.7987 41.3577 69.38 41.3416 68.8325 41.3094C68.2206 41.2772 67.6893 41.2611 67.2384 41.2611C66.8197 41.2611 66.3367 41.2772 65.7892 41.3094C65.3061 41.3416 64.9036 41.3577 64.5815 41.3577C64.501 41.3577 64.4608 41.3094 64.4608 41.2127C64.4608 41.1161 64.501 41.0678 64.5815 41.0678C65.0324 41.0678 65.4108 40.9873 65.7167 40.8263C66.0388 40.6492 66.3367 40.3513 66.6104 39.9326C66.9003 39.4979 67.2143 38.8779 67.5524 38.0728L72.6488 26.0444C72.681 25.9961 72.7373 25.972 72.8178 25.972C72.8983 25.972 72.9467 25.9961 72.9628 26.0444L78.6629 38.0487C79.2104 39.2402 79.6774 40.0453 80.0638 40.464C80.4503 40.8665 80.9092 41.0678 81.4406 41.0678ZM70.3542 32.8557H74.4603L72.2865 28.2665L70.3542 32.8557ZM100.211 26.2618C100.26 26.2618 100.284 26.3101 100.284 26.4067C100.284 26.5033 100.26 26.5516 100.211 26.5516C99.535 26.5516 99.0439 26.7368 98.738 27.1072C98.432 27.4775 98.2791 28.0814 98.2791 28.9187V41.6475C98.2791 41.6797 98.2388 41.7039 98.1583 41.72C98.0778 41.7361 98.0214 41.728 97.9892 41.6958L86.8787 28.2424L86.6613 28.0009V38.7249C86.6613 39.5623 86.8062 40.1661 87.0961 40.5365C87.402 40.8907 87.8851 41.0678 88.5453 41.0678C88.5936 41.0678 88.6177 41.1161 88.6177 41.2127C88.6177 41.3094 88.5936 41.3577 88.5453 41.3577C88.1427 41.3577 87.8368 41.3496 87.6274 41.3335L86.4198 41.3094L85.1879 41.3335C84.9625 41.3496 84.6324 41.3577 84.1977 41.3577C84.1655 41.3577 84.1493 41.3094 84.1493 41.2127C84.1493 41.1161 84.1655 41.0678 84.1977 41.0678C84.8901 41.0678 85.3812 40.8907 85.671 40.5365C85.9609 40.1661 86.1058 39.5623 86.1058 38.7249V27.4212C85.4778 26.8415 84.8417 26.5516 84.1977 26.5516C84.1493 26.5516 84.1252 26.5033 84.1252 26.4067C84.1252 26.3101 84.1493 26.2618 84.1977 26.2618L85.0913 26.286C85.2846 26.3021 85.5502 26.3101 85.8884 26.3101C86.2426 26.3101 86.5325 26.3021 86.7579 26.286C86.9833 26.2699 87.1605 26.2618 87.2893 26.2618C87.4181 26.2618 87.5067 26.294 87.555 26.3584C87.6194 26.4067 87.716 26.5275 87.8448 26.7207C88.038 27.0106 88.2313 27.2763 88.4245 27.5178L97.7235 38.9423V28.9187C97.7235 28.0814 97.5786 27.4775 97.2888 27.1072C97.015 26.7368 96.5481 26.5516 95.8879 26.5516C95.8557 26.5516 95.8396 26.5033 95.8396 26.4067C95.8396 26.3101 95.8557 26.2618 95.8879 26.2618L96.8299 26.286C97.3129 26.3182 97.7074 26.3343 98.0134 26.3343C98.3032 26.3343 98.7058 26.3182 99.2211 26.286L100.211 26.2618ZM107.012 26.6966C105.998 26.6966 105.233 26.9542 104.717 27.4695C104.218 27.9847 103.856 28.8623 103.631 30.1022C103.631 30.1344 103.582 30.1505 103.486 30.1505C103.405 30.1505 103.365 30.1344 103.365 30.1022C103.429 29.5225 103.502 28.7657 103.582 27.8318C103.663 26.8978 103.703 26.1974 103.703 25.7304C103.703 25.6499 103.743 25.6097 103.824 25.6097C103.92 25.6097 103.969 25.6499 103.969 25.7304C103.969 26.0847 104.403 26.2618 105.273 26.2618C106.642 26.3101 108.26 26.3343 110.128 26.3343C111.078 26.3343 112.084 26.3182 113.147 26.286L114.789 26.2618C115.369 26.2618 115.796 26.2216 116.07 26.141C116.359 26.0605 116.545 25.8995 116.625 25.658C116.641 25.5936 116.689 25.5614 116.77 25.5614C116.85 25.5614 116.891 25.5936 116.891 25.658C116.842 26.1249 116.794 26.8334 116.746 27.7835C116.698 28.7335 116.673 29.5064 116.673 30.1022C116.673 30.1344 116.625 30.1505 116.528 30.1505C116.432 30.1505 116.384 30.1344 116.384 30.1022C116.335 28.8462 116.078 27.9686 115.611 27.4695C115.144 26.9542 114.371 26.6966 113.292 26.6966C112.567 26.6966 112.052 26.7288 111.746 26.7932C111.44 26.8576 111.231 26.9945 111.118 27.2038C111.005 27.4131 110.949 27.7674 110.949 28.2665V39.4012C110.949 39.9004 111.005 40.2627 111.118 40.4881C111.231 40.7136 111.448 40.8665 111.77 40.9471C112.092 41.0276 112.6 41.0678 113.292 41.0678C113.34 41.0678 113.364 41.1161 113.364 41.2127C113.364 41.3094 113.34 41.3577 113.292 41.3577C112.761 41.3577 112.334 41.3496 112.012 41.3335L110.128 41.3094L108.316 41.3335C107.994 41.3496 107.551 41.3577 106.988 41.3577C106.956 41.3577 106.94 41.3094 106.94 41.2127C106.94 41.1161 106.956 41.0678 106.988 41.0678C107.68 41.0678 108.187 41.0276 108.51 40.9471C108.832 40.8665 109.049 40.7136 109.162 40.4881C109.29 40.2466 109.355 39.8843 109.355 39.4012V28.2182C109.355 27.7191 109.299 27.3729 109.186 27.1796C109.073 26.9703 108.864 26.8415 108.558 26.7932C108.252 26.7288 107.737 26.6966 107.012 26.6966ZM130.919 37.7588C130.919 37.7266 130.951 37.7105 131.015 37.7105C131.064 37.7105 131.104 37.7186 131.136 37.7347C131.184 37.7508 131.209 37.7749 131.209 37.8071C131.064 38.8216 130.991 39.8843 130.991 40.9954C130.991 41.1242 130.959 41.2208 130.895 41.2852C130.846 41.3335 130.75 41.3577 130.605 41.3577H120.485C120.452 41.3577 120.436 41.3094 120.436 41.2127C120.436 41.1161 120.452 41.0678 120.485 41.0678C121.096 41.0678 121.539 41.0276 121.813 40.9471C122.103 40.8665 122.296 40.7136 122.393 40.4881C122.505 40.2466 122.562 39.8843 122.562 39.4012V28.2182C122.562 27.7352 122.505 27.3809 122.393 27.1555C122.296 26.9301 122.103 26.7771 121.813 26.6966C121.539 26.6 121.096 26.5516 120.485 26.5516C120.452 26.5516 120.436 26.5033 120.436 26.4067C120.436 26.3101 120.452 26.2618 120.485 26.2618H130.194C130.339 26.2618 130.412 26.3343 130.412 26.4792L130.46 29.4501C130.46 29.4984 130.42 29.5306 130.339 29.5467C130.259 29.5467 130.21 29.5225 130.194 29.4742C130.146 28.6208 129.888 27.9606 129.421 27.4936C128.954 27.0106 128.334 26.769 127.561 26.769H126.088C125.525 26.769 125.106 26.8173 124.832 26.9139C124.574 26.9945 124.389 27.1474 124.277 27.3729C124.18 27.5822 124.132 27.9042 124.132 28.339V33.2421H127.078C127.851 33.2421 128.399 33.1133 128.721 32.8557C129.059 32.598 129.228 32.1633 129.228 31.5514C129.228 31.5192 129.276 31.5031 129.373 31.5031C129.47 31.5031 129.518 31.5192 129.518 31.5514L129.494 33.5078C129.494 33.9748 129.502 34.329 129.518 34.5706L129.542 35.7299C129.542 35.7621 129.494 35.7782 129.397 35.7782C129.3 35.7782 129.252 35.7621 129.252 35.7299C129.252 35.0214 129.075 34.5142 128.721 34.2083C128.383 33.9023 127.811 33.7494 127.006 33.7494H124.132V39.3046C124.132 39.7555 124.18 40.0856 124.277 40.2949C124.373 40.5042 124.55 40.6492 124.808 40.7297C125.066 40.8102 125.468 40.8504 126.016 40.8504H127.948C128.721 40.8504 129.365 40.5767 129.88 40.0292C130.395 39.4818 130.742 38.7249 130.919 37.7588ZM137.612 29.0878C137.612 29.7157 137.765 30.2632 138.071 30.7302C138.377 31.1971 138.747 31.5917 139.182 31.9137C139.617 32.2196 140.229 32.6141 141.018 33.0972C141.855 33.5964 142.507 34.015 142.974 34.3532C143.441 34.6913 143.835 35.1261 144.157 35.6575C144.496 36.1727 144.665 36.7927 144.665 37.5173C144.665 38.2902 144.471 38.9906 144.085 39.6186C143.699 40.2466 143.127 40.7458 142.37 41.1161C141.629 41.4704 140.736 41.6475 139.689 41.6475C138.449 41.6475 137.314 41.3657 136.283 40.8021C136.203 40.7538 136.147 40.6975 136.114 40.6331C136.098 40.5687 136.082 40.472 136.066 40.3432L135.752 37.0584C135.736 36.994 135.768 36.9537 135.849 36.9376C135.945 36.9215 136.002 36.9457 136.018 37.0101C136.275 38.1694 136.75 39.1678 137.443 40.0051C138.151 40.8424 139.085 41.2611 140.245 41.2611C141.05 41.2611 141.726 41.0437 142.273 40.6089C142.837 40.158 143.119 39.4495 143.119 38.4834C143.119 37.7588 142.958 37.1308 142.636 36.5995C142.314 36.0681 141.919 35.6333 141.452 35.2952C141.001 34.9409 140.381 34.5303 139.592 34.0633C138.82 33.5964 138.208 33.1938 137.757 32.8557C137.322 32.5175 136.952 32.0908 136.646 31.5756C136.34 31.0603 136.187 30.4564 136.187 29.764C136.187 28.9589 136.396 28.2746 136.815 27.711C137.25 27.1313 137.805 26.7046 138.481 26.4309C139.174 26.141 139.906 25.9961 140.679 25.9961C141.629 25.9961 142.571 26.1893 143.505 26.5758C143.747 26.6563 143.868 26.7932 143.868 26.9864L144.037 29.764C144.037 29.8285 143.996 29.8607 143.916 29.8607C143.835 29.8607 143.787 29.8285 143.771 29.764C143.642 28.9267 143.296 28.1538 142.732 27.4453C142.169 26.7207 141.356 26.3584 140.293 26.3584C139.391 26.3584 138.715 26.6241 138.264 27.1555C137.829 27.6708 137.612 28.3148 137.612 29.0878ZM9.83847 68.4823C9.23607 68.4823 8.54019 68.4511 7.75084 68.3888C7.46002 68.3681 7.08612 68.3473 6.62912 68.3265C6.1929 68.3057 5.70475 68.2953 5.16466 68.2953L3.04587 68.3265C2.67196 68.3473 2.15265 68.3577 1.48793 68.3577C1.44639 68.3577 1.42561 68.2953 1.42561 68.1707C1.42561 68.0461 1.44639 67.9838 1.48793 67.9838C2.27729 67.9838 2.84853 67.9318 3.20166 67.828C3.57557 67.7241 3.82484 67.5268 3.94947 67.236C4.09488 66.9244 4.16758 66.457 4.16758 65.8338V51.4073C4.16758 50.7841 4.10527 50.3272 3.98063 50.0363C3.856 49.7455 3.60673 49.5482 3.23282 49.4443C2.87969 49.3197 2.30845 49.2574 1.51909 49.2574C1.47755 49.2574 1.45677 49.1951 1.45677 49.0704C1.45677 48.9458 1.47755 48.8835 1.51909 48.8835L3.07703 48.9146C3.94947 48.9562 4.64535 48.9769 5.16466 48.9769C5.95402 48.9769 6.73298 48.9458 7.50157 48.8835C8.41556 48.8419 9.04912 48.8211 9.40225 48.8211C11.5626 48.8211 13.4737 49.2366 15.1355 50.0675C16.7973 50.8984 18.0851 52.0305 18.9991 53.4638C19.9339 54.8971 20.4013 56.507 20.4013 58.2934C20.4013 60.3083 19.9235 62.0948 18.968 63.6527C18.0332 65.1899 16.7557 66.3843 15.1355 67.236C13.5152 68.0669 11.7495 68.4823 9.83847 68.4823ZM9.52688 68.0149C11.1887 68.0149 12.6635 67.6722 13.9514 66.9867C15.2393 66.2804 16.2364 65.2522 16.9427 63.902C17.6697 62.531 18.0332 60.89 18.0332 58.9789C18.0332 57.1717 17.6905 55.5307 17.005 54.0558C16.3195 52.581 15.3432 51.4177 14.0761 50.566C12.8089 49.7144 11.3445 49.2885 9.68268 49.2885C8.78946 49.2885 8.09358 49.3405 7.59504 49.4443C7.11727 49.5482 6.76414 49.7559 6.53565 50.0675C6.30715 50.3791 6.1929 50.8465 6.1929 51.4696V65.4911C6.1929 66.1142 6.27599 66.6024 6.44217 66.9555C6.62912 67.3087 6.96148 67.5787 7.43925 67.7657C7.93779 67.9318 8.63367 68.0149 9.52688 68.0149ZM35.5259 68.7316C33.5941 68.7316 31.87 68.285 30.3536 67.3917C28.8579 66.4778 27.6947 65.2522 26.8638 63.715C26.0537 62.1571 25.6486 60.4641 25.6486 58.6361C25.6486 56.4966 26.1887 54.6686 27.2689 53.1522C28.349 51.615 29.7304 50.4622 31.413 49.6936C33.1163 48.925 34.8508 48.5407 36.6165 48.5407C38.5899 48.5407 40.3244 49.0081 41.82 49.9429C43.3156 50.8568 44.4581 52.072 45.2474 53.5884C46.0576 55.1048 46.4626 56.7147 46.4626 58.418C46.4626 60.3083 45.9641 62.0428 44.967 63.6215C43.9699 65.2002 42.6301 66.4466 40.9475 67.3606C39.2857 68.2746 37.4785 68.7316 35.5259 68.7316ZM36.6165 68.0772C38.029 68.0772 39.2961 67.7345 40.4178 67.049C41.5603 66.3635 42.4535 65.356 43.0975 64.0266C43.7622 62.6972 44.0946 61.1185 44.0946 59.2905C44.0946 57.3379 43.731 55.6034 43.004 54.087C42.277 52.5706 41.2487 51.3865 39.9193 50.5349C38.6106 49.6832 37.0735 49.2574 35.3078 49.2574C33.0228 49.2574 31.2364 49.9948 29.9485 51.4696C28.6606 52.9445 28.0167 54.9698 28.0167 57.5456C28.0167 59.4982 28.3802 61.2846 29.1072 62.9049C29.8343 64.5044 30.8521 65.7715 32.1608 66.7063C33.4694 67.6202 34.9547 68.0772 36.6165 68.0772ZM80.488 48.8835C80.5503 48.8835 80.5814 48.9458 80.5814 49.0704C80.5814 49.1951 80.5503 49.2574 80.488 49.2574C79.7817 49.2574 79.1689 49.4443 78.6496 49.8182C78.1303 50.1921 77.6941 50.8257 77.3409 51.7189L70.7041 68.3265C70.6833 68.4096 70.5691 68.4511 70.3614 68.4511C70.1952 68.4511 70.0809 68.4096 70.0186 68.3265L62.2601 51.4696C61.907 50.6595 61.5331 50.0883 61.1384 49.7559C60.7437 49.4235 60.2348 49.2574 59.6116 49.2574C59.5493 49.2574 59.5181 49.1951 59.5181 49.0704C59.5181 48.9458 59.5493 48.8835 59.6116 48.8835L60.7956 48.9146C61.3773 48.9562 61.8446 48.9769 62.1978 48.9769C63.0287 48.9769 63.9219 48.9562 64.8774 48.9146L66.1549 48.8835C66.2173 48.8835 66.2484 48.9458 66.2484 49.0704C66.2484 49.1951 66.2173 49.2574 66.1549 49.2574C65.511 49.2574 65.0228 49.3405 64.6905 49.5066C64.3789 49.6728 64.2231 49.9532 64.2231 50.3479C64.2231 50.5972 64.3166 50.9296 64.5035 51.345L71.0157 65.6157L76.6243 51.5631C76.7904 51.1269 76.8735 50.7841 76.8735 50.5349C76.8735 50.0987 76.6762 49.7767 76.2815 49.569C75.8868 49.3612 75.2741 49.2574 74.4432 49.2574C74.3808 49.2574 74.3497 49.1951 74.3497 49.0704C74.3497 48.9458 74.3808 48.8835 74.4432 48.8835L75.783 48.9146C76.4892 48.9562 77.1332 48.9769 77.7148 48.9769C78.151 48.9769 78.6392 48.9562 79.1793 48.9146L80.488 48.8835ZM88.7767 65.8338C88.7767 66.457 88.839 66.9244 88.9636 67.236C89.0882 67.5268 89.3271 67.7241 89.6803 67.828C90.0542 67.9318 90.6358 67.9838 91.4252 67.9838C91.4875 67.9838 91.5186 68.0461 91.5186 68.1707C91.5186 68.2953 91.4875 68.3577 91.4252 68.3577C90.802 68.3577 90.3034 68.3473 89.9295 68.3265L87.7173 68.2953L85.5673 68.3265C85.1934 68.3473 84.6845 68.3577 84.0405 68.3577C83.9782 68.3577 83.9471 68.2953 83.9471 68.1707C83.9471 68.0461 83.9782 67.9838 84.0405 67.9838C84.8299 67.9838 85.4011 67.9318 85.7543 67.828C86.1282 67.7241 86.3774 67.5268 86.5021 67.236C86.6475 66.9244 86.7202 66.457 86.7202 65.8338V51.4073C86.7202 50.7841 86.6475 50.3272 86.5021 50.0363C86.3774 49.7455 86.1282 49.5482 85.7543 49.4443C85.4011 49.3197 84.8299 49.2574 84.0405 49.2574C83.9782 49.2574 83.9471 49.1951 83.9471 49.0704C83.9471 48.9458 83.9782 48.8835 84.0405 48.8835L85.5673 48.9146C86.4398 48.9562 87.1564 48.9769 87.7173 48.9769C88.3404 48.9769 89.0882 48.9562 89.9607 48.9146L91.4252 48.8835C91.4875 48.8835 91.5186 48.9458 91.5186 49.0704C91.5186 49.1951 91.4875 49.2574 91.4252 49.2574C90.6566 49.2574 90.0853 49.3197 89.7114 49.4443C89.3583 49.569 89.109 49.7871 88.9636 50.0987C88.839 50.3895 88.7767 50.8465 88.7767 51.4696V65.8338ZM117.039 48.8835C117.101 48.8835 117.132 48.9458 117.132 49.0704C117.132 49.1951 117.101 49.2574 117.039 49.2574C116.166 49.2574 115.533 49.4963 115.138 49.974C114.743 50.4518 114.546 51.2308 114.546 52.3109V68.7316C114.546 68.7731 114.494 68.8043 114.39 68.825C114.286 68.8458 114.214 68.8354 114.172 68.7939L99.839 51.4385L99.5585 51.1269V64.9614C99.5585 66.0415 99.7455 66.8205 100.119 67.2983C100.514 67.7553 101.137 67.9838 101.989 67.9838C102.051 67.9838 102.082 68.0461 102.082 68.1707C102.082 68.2953 102.051 68.3577 101.989 68.3577C101.47 68.3577 101.075 68.3473 100.805 68.3265L99.247 68.2953L97.6579 68.3265C97.3671 68.3473 96.9412 68.3577 96.3804 68.3577C96.3388 68.3577 96.318 68.2953 96.318 68.1707C96.318 68.0461 96.3388 67.9838 96.3804 67.9838C97.2736 67.9838 97.9071 67.7553 98.281 67.2983C98.6549 66.8205 98.8419 66.0415 98.8419 64.9614V50.3791C98.0318 49.6313 97.2113 49.2574 96.3804 49.2574C96.318 49.2574 96.2869 49.1951 96.2869 49.0704C96.2869 48.9458 96.318 48.8835 96.3804 48.8835L97.5332 48.9146C97.7825 48.9354 98.1252 48.9458 98.5615 48.9458C99.0185 48.9458 99.3924 48.9354 99.6832 48.9146C99.974 48.8939 100.202 48.8835 100.369 48.8835C100.535 48.8835 100.649 48.925 100.711 49.0081C100.795 49.0704 100.919 49.2262 101.085 49.4755C101.335 49.8494 101.584 50.1921 101.833 50.5037L113.829 65.2418V52.3109C113.829 51.2308 113.642 50.4518 113.268 49.974C112.915 49.4963 112.313 49.2574 111.461 49.2574C111.42 49.2574 111.399 49.1951 111.399 49.0704C111.399 48.9458 111.42 48.8835 111.461 48.8835L112.676 48.9146C113.3 48.9562 113.808 48.9769 114.203 48.9769C114.577 48.9769 115.096 48.9562 115.761 48.9146L117.039 48.8835ZM142.419 67.9838C142.482 67.9838 142.513 68.0461 142.513 68.1707C142.513 68.2953 142.482 68.3577 142.419 68.3577C141.775 68.3577 141.266 68.3473 140.893 68.3265L138.743 68.2953L136.468 68.3265C136.094 68.3473 135.596 68.3577 134.972 68.3577C134.91 68.3577 134.879 68.2953 134.879 68.1707C134.879 68.0461 134.91 67.9838 134.972 67.9838C135.783 67.9838 136.375 67.9318 136.748 67.828C137.122 67.7241 137.372 67.5268 137.496 67.236C137.642 66.9244 137.714 66.457 137.714 65.8338V58.5427H125.749V65.8338C125.749 66.457 125.812 66.9244 125.936 67.236C126.082 67.5268 126.341 67.7241 126.715 67.828C127.089 67.9318 127.681 67.9838 128.491 67.9838C128.533 67.9838 128.554 68.0461 128.554 68.1707C128.554 68.2953 128.533 68.3577 128.491 68.3577C127.847 68.3577 127.338 68.3473 126.965 68.3265L124.721 68.2953L122.571 68.3265C122.197 68.3473 121.678 68.3577 121.013 68.3577C120.972 68.3577 120.951 68.2953 120.951 68.1707C120.951 68.0461 120.972 67.9838 121.013 67.9838C121.803 67.9838 122.384 67.9318 122.758 67.828C123.153 67.7241 123.412 67.5268 123.537 67.236C123.683 66.9244 123.755 66.457 123.755 65.8338V51.4073C123.755 50.7841 123.683 50.3272 123.537 50.0363C123.412 49.7455 123.163 49.5482 122.789 49.4443C122.415 49.3197 121.834 49.2574 121.044 49.2574C121.003 49.2574 120.982 49.1951 120.982 49.0704C120.982 48.9458 121.003 48.8835 121.044 48.8835L122.634 48.9146C123.506 48.9562 124.202 48.9769 124.721 48.9769C125.324 48.9769 126.082 48.9562 126.996 48.9146L128.491 48.8835C128.533 48.8835 128.554 48.9458 128.554 49.0704C128.554 49.1951 128.533 49.2574 128.491 49.2574C127.702 49.2574 127.11 49.3197 126.715 49.4443C126.341 49.569 126.082 49.7871 125.936 50.0987C125.812 50.3895 125.749 50.8465 125.749 51.4696V57.8883H137.714V51.4696C137.714 50.8465 137.642 50.3895 137.496 50.0987C137.372 49.7871 137.122 49.569 136.748 49.4443C136.375 49.3197 135.783 49.2574 134.972 49.2574C134.91 49.2574 134.879 49.1951 134.879 49.0704C134.879 48.9458 134.91 48.8835 134.972 48.8835L136.468 48.9146C137.382 48.9562 138.14 48.9769 138.743 48.9769C139.303 48.9769 140.02 48.9562 140.893 48.9146L142.419 48.8835C142.482 48.8835 142.513 48.9458 142.513 49.0704C142.513 49.1951 142.482 49.2574 142.419 49.2574C141.63 49.2574 141.048 49.3197 140.674 49.4443C140.301 49.5482 140.041 49.7455 139.895 50.0363C139.771 50.3272 139.709 50.7841 139.709 51.4073V65.8338C139.709 66.457 139.771 66.9244 139.895 67.236C140.041 67.5268 140.301 67.7241 140.674 67.828C141.048 67.9318 141.63 67.9838 142.419 67.9838ZM157.151 68.7316C155.219 68.7316 153.495 68.285 151.978 67.3917C150.483 66.4778 149.32 65.2522 148.489 63.715C147.679 62.1571 147.274 60.4641 147.274 58.6361C147.274 56.4966 147.814 54.6686 148.894 53.1522C149.974 51.615 151.355 50.4622 153.038 49.6936C154.741 48.925 156.476 48.5407 158.241 48.5407C160.215 48.5407 161.949 49.0081 163.445 49.9429C164.941 50.8568 166.083 52.072 166.872 53.5884C167.682 55.1048 168.088 56.7147 168.088 58.418C168.088 60.3083 167.589 62.0428 166.592 63.6215C165.595 65.2002 164.255 66.4466 162.572 67.3606C160.911 68.2746 159.103 68.7316 157.151 68.7316ZM158.241 68.0772C159.654 68.0772 160.921 67.7345 162.043 67.049C163.185 66.3635 164.078 65.356 164.722 64.0266C165.387 62.6972 165.719 61.1185 165.719 59.2905C165.719 57.3379 165.356 55.6034 164.629 54.087C163.902 52.5706 162.874 51.3865 161.544 50.5349C160.236 49.6832 158.698 49.2574 156.933 49.2574C154.648 49.2574 152.861 49.9948 151.573 51.4696C150.286 52.9445 149.642 54.9698 149.642 57.5456C149.642 59.4982 150.005 61.2846 150.732 62.9049C151.459 64.5044 152.477 65.7715 153.786 66.7063C155.094 67.6202 156.58 68.0772 158.241 68.0772Z" fill="#D9A863"/>
<path d="M53.7186 4.1151C53.7186 3.65467 53.7977 3.20143 53.956 2.75539C54.1214 2.30215 54.3588 1.89208 54.6682 1.52517C54.9775 1.15107 55.3552 0.852512 55.8013 0.62949C56.2545 0.406469 56.7689 0.294958 57.3445 0.294958C58.0279 0.294958 58.6106 0.453231 59.0927 0.769778C59.5747 1.07913 59.9344 1.47841 60.1718 1.96762L59.7186 2.22661C59.5387 1.8741 59.3157 1.59352 59.0495 1.38489C58.7905 1.17625 58.5099 1.02877 58.2078 0.94244C57.9056 0.848915 57.6035 0.802152 57.3013 0.802152C56.8193 0.802152 56.3876 0.899275 56.0063 1.09352C55.6322 1.28776 55.3157 1.54676 55.0567 1.8705C54.7977 2.19424 54.5999 2.55395 54.4632 2.94964C54.3337 3.34532 54.2689 3.7446 54.2689 4.14748C54.2689 4.60072 54.3481 5.03237 54.5063 5.44244C54.6646 5.84532 54.8804 6.20503 55.1538 6.52158C55.4344 6.83813 55.7581 7.08993 56.125 7.27698C56.4991 7.46403 56.902 7.55755 57.3337 7.55755C57.643 7.55755 57.956 7.50719 58.2725 7.40647C58.5963 7.29856 58.8984 7.13669 59.179 6.92086C59.4596 6.69784 59.6862 6.41007 59.8588 6.05755L60.3337 6.28417C60.1682 6.66547 59.92 6.98921 59.5891 7.2554C59.2581 7.52158 58.8912 7.72302 58.4883 7.85971C58.0855 7.9964 57.6862 8.06475 57.2905 8.06475C56.7725 8.06475 56.2941 7.95324 55.8552 7.73022C55.4164 7.5 55.0351 7.19784 54.7114 6.82374C54.3948 6.44244 54.1502 6.01798 53.9775 5.55036C53.8049 5.07554 53.7186 4.59712 53.7186 4.1151ZM70.18 8.05396C69.5685 8.05396 69.0577 7.94604 68.6477 7.73022C68.2376 7.51439 67.9103 7.22302 67.6656 6.85611C67.421 6.48201 67.2448 6.06475 67.1369 5.60431C67.029 5.14388 66.975 4.67266 66.975 4.19064V0.338123H67.5254V4.19064C67.5254 4.60791 67.5685 5.01798 67.6549 5.42086C67.7412 5.82374 67.8815 6.18705 68.0757 6.51079C68.2772 6.82734 68.5469 7.07914 68.8851 7.26619C69.2304 7.45324 69.6585 7.54676 70.1692 7.54676C70.6872 7.54676 71.1153 7.44964 71.4534 7.2554C71.7987 7.06115 72.0685 6.80575 72.2628 6.48921C72.4642 6.16547 72.6045 5.80575 72.6836 5.41007C72.77 5.00719 72.8131 4.60072 72.8131 4.19064V0.338123H73.3635V4.19064C73.3635 4.70144 73.3059 5.19065 73.1908 5.65827C73.0829 6.1187 72.9031 6.52878 72.6513 6.88849C72.3995 7.2482 72.0721 7.53237 71.6692 7.74101C71.2664 7.94964 70.77 8.05396 70.18 8.05396ZM80.6462 8V0.338123H83.8296C84.1605 0.338123 84.4591 0.406469 84.7253 0.543159C84.9987 0.67985 85.2325 0.863303 85.4267 1.09352C85.6282 1.31654 85.7828 1.56834 85.8908 1.84892C86.0059 2.12949 86.0634 2.41726 86.0634 2.71223C86.0634 3.09352 85.9879 3.44964 85.8368 3.78057C85.6857 4.11151 85.4735 4.38849 85.2001 4.61151C84.9339 4.83453 84.621 4.97122 84.2613 5.02158L86.1713 8H85.5346L83.6785 5.10791H81.1965V8H80.6462ZM81.1965 4.60072H83.8836C84.2145 4.60072 84.5023 4.51079 84.7469 4.33093C84.9915 4.15108 85.1785 3.91726 85.308 3.62949C85.4447 3.34172 85.5131 3.03597 85.5131 2.71223C85.5131 2.38129 85.4339 2.07553 85.2757 1.79496C85.1246 1.50719 84.9195 1.27697 84.6605 1.10431C84.4087 0.924455 84.1246 0.834527 83.808 0.834527H81.1965V4.60072ZM97.5068 1.61151C97.3845 1.47482 97.2478 1.35611 97.0967 1.25539C96.9456 1.14748 96.7837 1.06115 96.6111 0.996397C96.4384 0.924455 96.2514 0.870498 96.0499 0.834527C95.8485 0.798555 95.6327 0.78057 95.4024 0.78057C94.6542 0.78057 94.1075 0.924455 93.7621 1.21222C93.424 1.4928 93.255 1.8741 93.255 2.35611C93.255 2.67985 93.3305 2.93884 93.4816 3.13309C93.6398 3.32014 93.8844 3.47122 94.2154 3.58633C94.5463 3.70144 94.9744 3.81295 95.4996 3.92086C96.0535 4.03597 96.5319 4.17266 96.9348 4.33093C97.3377 4.48201 97.647 4.69064 97.8629 4.95683C98.0859 5.22302 98.1974 5.58273 98.1974 6.03597C98.1974 6.3741 98.1327 6.67266 98.0032 6.93165C97.8737 7.18345 97.6866 7.39209 97.442 7.55755C97.1974 7.72302 96.906 7.84892 96.5679 7.93525C96.237 8.02158 95.8665 8.06475 95.4564 8.06475C95.0607 8.06475 94.683 8.02158 94.3233 7.93525C93.9636 7.84892 93.6255 7.72302 93.3089 7.55755C92.9924 7.39209 92.6974 7.17986 92.424 6.92086L92.7154 6.47842C92.8737 6.65108 93.0499 6.80575 93.2442 6.94245C93.4456 7.07194 93.6614 7.18345 93.8916 7.27698C94.1291 7.3705 94.3809 7.44604 94.647 7.5036C94.9132 7.55396 95.1902 7.57914 95.478 7.57914C96.147 7.57914 96.6686 7.45683 97.0427 7.21223C97.424 6.96043 97.6147 6.58993 97.6147 6.10072C97.6147 5.76259 97.5283 5.48921 97.3557 5.28057C97.183 5.07194 96.9168 4.90288 96.5571 4.77338C96.1974 4.63669 95.7478 4.51079 95.2082 4.39568C94.6686 4.28057 94.2082 4.15108 93.8269 4.00719C93.4528 3.86331 93.1686 3.66906 92.9744 3.42446C92.7873 3.17985 92.6938 2.84892 92.6938 2.43165C92.6938 1.97122 92.8053 1.58273 93.0283 1.26618C93.2585 0.94244 93.5787 0.697836 93.9888 0.532368C94.3988 0.3669 94.8701 0.284166 95.4024 0.284166C95.7334 0.284166 96.0391 0.316541 96.3197 0.381289C96.6075 0.446037 96.8701 0.546757 97.1075 0.683447C97.3521 0.812944 97.5787 0.978412 97.7873 1.17985L97.5068 1.61151ZM108.033 8.05396C107.501 8.05396 107.015 7.94604 106.577 7.73022C106.138 7.50719 105.76 7.21223 105.443 6.84532C105.127 6.47842 104.882 6.06475 104.71 5.60431C104.537 5.13669 104.451 4.65827 104.451 4.16906C104.451 3.65827 104.541 3.17266 104.72 2.71223C104.9 2.2446 105.152 1.83093 105.476 1.47122C105.807 1.10431 106.188 0.816541 106.62 0.607907C107.059 0.39208 107.533 0.284166 108.044 0.284166C108.584 0.284166 109.069 0.395677 109.501 0.618699C109.94 0.841721 110.318 1.14028 110.634 1.51438C110.951 1.88848 111.195 2.30575 111.368 2.76618C111.541 3.22661 111.627 3.69424 111.627 4.16906C111.627 4.68705 111.537 5.17985 111.357 5.64748C111.177 6.10791 110.922 6.52158 110.591 6.88849C110.267 7.2482 109.886 7.53237 109.447 7.74101C109.015 7.94964 108.544 8.05396 108.033 8.05396ZM105.001 4.16906C105.001 4.60791 105.077 5.02877 105.228 5.43165C105.379 5.83453 105.587 6.19424 105.854 6.51079C106.127 6.82734 106.447 7.07914 106.814 7.26619C107.188 7.45324 107.598 7.54676 108.044 7.54676C108.497 7.54676 108.911 7.44964 109.285 7.2554C109.659 7.06115 109.979 6.80216 110.246 6.47842C110.512 6.15467 110.713 5.79496 110.85 5.39928C110.994 4.9964 111.066 4.58633 111.066 4.16906C111.066 3.73021 110.99 3.30935 110.839 2.90647C110.695 2.50359 110.487 2.14388 110.213 1.82733C109.94 1.51079 109.616 1.25899 109.242 1.07194C108.875 0.884886 108.476 0.791361 108.044 0.791361C107.584 0.791361 107.166 0.888483 106.792 1.08273C106.418 1.27697 106.098 1.53597 105.832 1.85971C105.573 2.18345 105.368 2.54676 105.217 2.94964C105.073 3.34532 105.001 3.7518 105.001 4.16906Z" fill="white"/>
</svg>
