<svg width="37" height="38" viewBox="0 0 37 38" fill="none" xmlns="http://www.w3.org/2000/svg">
<g clip-path="url(#clip0_278_341)">
<path d="M37.0001 0.541992H0.0842285V37.4579H37.0001V0.541992Z" fill="black"/>
<path fill-rule="evenodd" clip-rule="evenodd" d="M30.584 10.7683C30.986 11.1822 31.2715 11.6947 31.4117 12.2541C31.7861 14.3269 31.9678 16.4298 31.9546 18.536C31.962 20.6107 31.7803 22.6818 31.4117 24.7236C31.2715 25.283 30.986 25.7955 30.584 26.2094C30.182 26.6233 29.6778 26.9239 29.1223 27.0808C27.0924 27.623 18.9731 27.623 18.9731 27.623C18.9731 27.623 10.8538 27.623 8.82396 27.0808C8.27971 26.9321 7.78306 26.6457 7.38201 26.2493C6.98096 25.8529 6.68905 25.3599 6.5345 24.8179C6.16013 22.7451 5.9784 20.6422 5.99164 18.536C5.9813 16.4455 6.16301 14.3585 6.5345 12.3012C6.67469 11.7419 6.9602 11.2294 7.36219 10.8155C7.76418 10.4016 8.26841 10.101 8.82396 9.94401C10.8538 9.40185 18.9731 9.40186 18.9731 9.40186C18.9731 9.40186 27.0924 9.40185 29.1223 9.89686C29.6778 10.0538 30.182 10.3544 30.584 10.7683ZM23.1039 18.5352L16.3181 22.3892V14.6812L23.1039 18.5352Z" fill="white"/>
</g>
<defs>
<clipPath id="clip0_278_341">
<rect width="37" height="38" fill="white"/>
</clipPath>
</defs>
</svg>
