<svg width="51" height="20" viewBox="0 0 51 20" fill="none" xmlns="http://www.w3.org/2000/svg">
<path fill-rule="evenodd" clip-rule="evenodd" d="M1.22762 0C0.989591 0 0.796631 0.19296 0.796631 0.430989C0.796631 0.669018 0.989592 0.861978 1.22762 0.861978H8.70254C8.94057 0.861978 9.13353 0.669018 9.13353 0.430989C9.13353 0.19296 8.94057 0 8.70254 0H1.22762ZM10.1848 7.97695C9.49198 7.28411 8.55426 6.93769 7.37167 6.93769C6.58327 6.93769 5.88446 7.08701 5.27525 7.38565C4.66603 7.68428 4.18822 8.10835 3.8418 8.65783V3.13905H2.56961V16.4343H3.8418V11.4889C3.8418 10.4258 4.13446 9.59555 4.71979 8.99828C5.31706 8.38906 6.12337 8.08445 7.13873 8.08445C8.04658 8.08445 8.74539 8.34128 9.23515 8.85493C9.72491 9.36859 9.96979 10.1152 9.96979 11.0947V16.4343H11.242V10.9693C11.242 9.65528 10.8896 8.65783 10.1848 7.97695ZM17.7282 17.5631L22.4407 7.00937H21.1864L17.6386 15.0188L14.0908 7.00937H12.7649L16.9756 16.4164L16.5635 17.3302C16.3007 17.9036 16.014 18.3097 15.7035 18.5486C15.4048 18.7875 15.0405 18.907 14.6104 18.907C13.9415 18.907 13.3681 18.6681 12.8903 18.1903L12.299 19.1399C12.5857 19.4266 12.9261 19.6416 13.3203 19.785C13.7145 19.9283 14.1386 20 14.5925 20C15.2973 20 15.9005 19.8148 16.4023 19.4445C16.904 19.0742 17.3459 18.4471 17.7282 17.5631ZM31.4892 7.54691C30.7724 7.14077 29.9721 6.93769 29.0881 6.93769C28.2997 6.93769 27.589 7.10493 26.9559 7.4394C26.3347 7.77387 25.833 8.25169 25.4508 8.87285V7.00937H24.2323V19.9104H25.5045V14.6604C25.8987 15.2696 26.4004 15.7355 27.0096 16.058C27.6308 16.3686 28.3236 16.5239 29.0881 16.5239C29.984 16.5239 30.7844 16.3268 31.4892 15.9326C32.2059 15.5264 32.7673 14.959 33.1735 14.2304C33.5796 13.5017 33.7827 12.6655 33.7827 11.7218C33.7827 10.7901 33.5796 9.95988 33.1735 9.23121C32.7673 8.50254 32.2059 7.94111 31.4892 7.54691ZM30.7904 14.9471C30.2528 15.2457 29.6555 15.395 28.9986 15.395C28.3296 15.395 27.7264 15.2457 27.1888 14.9471C26.6632 14.6365 26.2451 14.2005 25.9346 13.6391C25.6359 13.0776 25.4866 12.4386 25.4866 11.7218C25.4866 11.0051 25.6359 10.372 25.9346 9.82251C26.2451 9.26108 26.6632 8.82507 27.1888 8.51449C27.7264 8.20391 28.3296 8.04862 28.9986 8.04862C29.6555 8.04862 30.2528 8.20391 30.7904 8.51449C31.3279 8.82507 31.746 9.26108 32.0446 9.82251C32.3552 10.372 32.5105 11.0051 32.5105 11.7218C32.5105 12.4386 32.3552 13.0776 32.0446 13.6391C31.746 14.2005 31.3279 14.6365 30.7904 14.9471ZM45.2993 11.0589C44.9767 10.5572 44.5049 10.151 43.8837 9.84043C44.3616 9.55374 44.7259 9.19538 44.9767 8.76534C45.2276 8.32336 45.353 7.82166 45.353 7.26022C45.353 6.53155 45.15 5.89844 44.7438 5.3609C44.3377 4.82336 43.7643 4.41124 43.0237 4.12455C42.295 3.82592 41.4529 3.6766 40.4972 3.6766C39.5535 3.6766 38.7174 3.82592 37.9887 4.12455C37.26 4.41124 36.6926 4.82336 36.2865 5.3609C35.8803 5.89844 35.6772 6.53155 35.6772 7.26022C35.6772 7.82166 35.8027 8.32336 36.0535 8.76534C36.3044 9.19538 36.6627 9.55374 37.1286 9.84043C36.5194 10.151 36.0476 10.5572 35.7131 11.0589C35.3906 11.5606 35.2293 12.1399 35.2293 12.7969C35.2293 13.5734 35.4443 14.2543 35.8743 14.8396C36.3163 15.413 36.9315 15.8609 37.7199 16.1834C38.5203 16.494 39.446 16.6493 40.4972 16.6493C41.5484 16.6493 42.4742 16.494 43.2745 16.1834C44.0749 15.8609 44.696 15.413 45.138 14.8396C45.58 14.2543 45.801 13.5734 45.801 12.7969C45.801 12.1399 45.6337 11.5606 45.2993 11.0589ZM39.0817 6.23889C39.4401 5.9522 39.9119 5.80885 40.4972 5.80885C41.0945 5.80885 41.5723 5.9522 41.9307 6.23889C42.289 6.51363 42.4682 6.89589 42.4682 7.38565C42.4682 7.86346 42.289 8.23974 41.9307 8.51449C41.5723 8.78923 41.0945 8.92661 40.4972 8.92661C39.8999 8.92661 39.4281 8.78923 39.0817 8.51449C38.7353 8.23974 38.5621 7.86346 38.5621 7.38565C38.5621 6.89589 38.7353 6.51363 39.0817 6.23889ZM42.2174 14.0333C41.7993 14.3558 41.2259 14.5171 40.4972 14.5171C39.7805 14.5171 39.2131 14.3558 38.795 14.0333C38.3769 13.7107 38.1679 13.2688 38.1679 12.7073C38.1679 12.1578 38.3769 11.7218 38.795 11.3993C39.2131 11.0768 39.7805 10.9155 40.4972 10.9155C41.2259 10.9155 41.7993 11.0768 42.2174 11.3993C42.6474 11.7218 42.8624 12.1578 42.8624 12.7073C42.8624 13.2568 42.6474 13.6988 42.2174 14.0333ZM47.506 16.0222C47.9002 16.4044 48.384 16.5956 48.9574 16.5956C49.5427 16.5956 50.0265 16.4044 50.4087 16.0222C50.8029 15.6399 51 15.1561 51 14.5708C51 13.9735 50.8089 13.4898 50.4267 13.1194C50.0444 12.7491 49.5546 12.564 48.9574 12.564C48.372 12.564 47.8823 12.7491 47.4881 13.1194C47.1058 13.4898 46.9147 13.9735 46.9147 14.5708C46.9147 15.1561 47.1118 15.6399 47.506 16.0222Z" fill="white"/>
</svg>
