<svg width="303" height="48" viewBox="0 0 303 48" fill="none" xmlns="http://www.w3.org/2000/svg">
<path d="M25.9006 26.7013C25.9417 26.7013 25.9622 26.7321 25.9622 26.7936C25.9622 26.8552 25.9417 26.886 25.9006 26.886C25.7057 26.886 25.4029 26.8757 24.9924 26.8552C24.582 26.8347 24.2844 26.8244 24.0996 26.8244C23.8739 26.8244 23.5865 26.8347 23.2376 26.8552C22.9092 26.8757 22.6578 26.886 22.4834 26.886C22.4423 26.886 22.4218 26.8552 22.4218 26.7936C22.4218 26.7321 22.4423 26.7013 22.4834 26.7013C22.8631 26.7013 23.1401 26.6654 23.3146 26.5935C23.489 26.5217 23.5763 26.3985 23.5763 26.2241C23.5763 26.0804 23.5096 25.8598 23.3762 25.5622L21.606 21.7909H18.6967L17.3729 24.9311C17.2292 25.28 17.1574 25.5673 17.1574 25.7931C17.1574 26.3985 17.6602 26.7013 18.6659 26.7013C18.7172 26.7013 18.7428 26.7321 18.7428 26.7936C18.7428 26.8552 18.7172 26.886 18.6659 26.886C18.4812 26.886 18.2143 26.8757 17.8654 26.8552C17.4755 26.8347 17.1368 26.8244 16.8495 26.8244C16.5827 26.8244 16.2748 26.8347 15.9259 26.8552C15.618 26.8757 15.3615 26.886 15.1563 26.886C15.1049 26.886 15.0793 26.8552 15.0793 26.7936C15.0793 26.7321 15.1049 26.7013 15.1563 26.7013C15.4436 26.7013 15.6848 26.65 15.8797 26.5473C16.085 26.4345 16.2748 26.2446 16.4493 25.9778C16.634 25.7007 16.8341 25.3056 17.0496 24.7925L20.2975 17.1268C20.3181 17.096 20.354 17.0806 20.4053 17.0806C20.4566 17.0806 20.4874 17.096 20.4977 17.1268L24.1304 24.7771C24.4793 25.5365 24.7769 26.0496 25.0232 26.3164C25.2695 26.573 25.562 26.7013 25.9006 26.7013ZM18.8352 21.4676H21.452L20.0667 18.5429L18.8352 21.4676ZM39.5258 26.7013C39.5566 26.7013 39.572 26.7321 39.572 26.7936C39.572 26.8552 39.5566 26.886 39.5258 26.886C39.2077 26.886 38.9563 26.8809 38.7715 26.8706L37.7094 26.8552L36.7243 26.8706C36.5601 26.8809 36.3292 26.886 36.0316 26.886C36.011 26.886 36.0008 26.8552 36.0008 26.7936C36.0008 26.7321 36.011 26.7013 36.0316 26.7013C36.3805 26.7013 36.637 26.6756 36.8012 26.6243C36.9757 26.5627 37.0886 26.4601 37.1399 26.3164C37.2014 26.1728 37.222 25.947 37.2014 25.6391L36.9244 18.6353L33.4147 26.7782C33.3942 26.8193 33.3532 26.8398 33.2916 26.8398C33.2403 26.8398 33.1941 26.8193 33.1531 26.7782L29.3664 18.7276L29.2278 25.2081C29.2176 25.752 29.3099 26.1369 29.5049 26.3626C29.6999 26.5884 30.0437 26.7013 30.5362 26.7013C30.5568 26.7013 30.567 26.7321 30.567 26.7936C30.567 26.8552 30.5568 26.886 30.5362 26.886C30.2489 26.886 30.0283 26.8809 29.8743 26.8706L29.0431 26.8552L28.2427 26.8706C28.099 26.8809 27.8938 26.886 27.6269 26.886C27.6064 26.886 27.5962 26.8552 27.5962 26.7936C27.5962 26.7321 27.6064 26.7013 27.6269 26.7013C28.058 26.7013 28.3658 26.5884 28.5505 26.3626C28.7455 26.1266 28.8481 25.7418 28.8584 25.2081L28.9969 18.0657C28.6891 17.6553 28.2683 17.45 27.7347 17.45C27.7142 17.45 27.7039 17.4192 27.7039 17.3577C27.7039 17.2961 27.7142 17.2653 27.7347 17.2653L28.3042 17.2807C28.4069 17.291 28.5505 17.2961 28.7352 17.2961C28.92 17.2961 29.0739 17.291 29.197 17.2807C29.3304 17.2704 29.4331 17.2653 29.5049 17.2653C29.6383 17.2653 29.7461 17.3166 29.8282 17.4192C29.9205 17.5116 30.0488 17.7271 30.213 18.0657L33.6456 25.3005L37.0013 17.6501C37.1142 17.3936 37.2682 17.2653 37.4631 17.2653C37.5144 17.2653 37.5863 17.2704 37.6786 17.2807C37.7813 17.291 37.9147 17.2961 38.0789 17.2961L38.8023 17.2807C38.9152 17.2704 39.0845 17.2653 39.3103 17.2653C39.3411 17.2653 39.3565 17.2961 39.3565 17.3577C39.3565 17.4192 39.3411 17.45 39.3103 17.45C38.7972 17.45 38.4278 17.527 38.202 17.6809C37.9865 17.8246 37.8839 18.1017 37.8941 18.5121L38.202 25.6391C38.2123 25.9573 38.2482 26.1882 38.3097 26.3318C38.3816 26.4755 38.5047 26.573 38.6792 26.6243C38.8536 26.6756 39.1358 26.7013 39.5258 26.7013ZM51.7316 26.7013C51.7726 26.7013 51.7931 26.7321 51.7931 26.7936C51.7931 26.8552 51.7726 26.886 51.7316 26.886C51.5366 26.886 51.2339 26.8757 50.8234 26.8552C50.4129 26.8347 50.1153 26.8244 49.9306 26.8244C49.7048 26.8244 49.4175 26.8347 49.0686 26.8552C48.7402 26.8757 48.4888 26.886 48.3143 26.886C48.2733 26.886 48.2527 26.8552 48.2527 26.7936C48.2527 26.7321 48.2733 26.7013 48.3143 26.7013C48.694 26.7013 48.9711 26.6654 49.1455 26.5935C49.32 26.5217 49.4072 26.3985 49.4072 26.2241C49.4072 26.0804 49.3405 25.8598 49.2071 25.5622L47.4369 21.7909H44.5276L43.2038 24.9311C43.0601 25.28 42.9883 25.5673 42.9883 25.7931C42.9883 26.3985 43.4911 26.7013 44.4968 26.7013C44.5481 26.7013 44.5738 26.7321 44.5738 26.7936C44.5738 26.8552 44.5481 26.886 44.4968 26.886C44.3121 26.886 44.0453 26.8757 43.6964 26.8552C43.3064 26.8347 42.9678 26.8244 42.6804 26.8244C42.4136 26.8244 42.1058 26.8347 41.7568 26.8552C41.449 26.8757 41.1924 26.886 40.9872 26.886C40.9359 26.886 40.9102 26.8552 40.9102 26.7936C40.9102 26.7321 40.9359 26.7013 40.9872 26.7013C41.2745 26.7013 41.5157 26.65 41.7107 26.5473C41.9159 26.4345 42.1058 26.2446 42.2802 25.9778C42.4649 25.7007 42.665 25.3056 42.8805 24.7925L46.1285 17.1268C46.149 17.096 46.1849 17.0806 46.2362 17.0806C46.2875 17.0806 46.3183 17.096 46.3286 17.1268L49.9614 24.7771C50.3103 25.5365 50.6079 26.0496 50.8542 26.3164C51.1004 26.573 51.3929 26.7013 51.7316 26.7013ZM44.6661 21.4676H47.283L45.8976 18.5429L44.6661 21.4676ZM63.6943 17.2653C63.7251 17.2653 63.7405 17.2961 63.7405 17.3577C63.7405 17.4192 63.7251 17.45 63.6943 17.45C63.2633 17.45 62.9503 17.568 62.7553 17.8041C62.5603 18.0401 62.4628 18.4249 62.4628 18.9585V27.0707C62.4628 27.0912 62.4372 27.1066 62.3859 27.1169C62.3346 27.1271 62.2986 27.122 62.2781 27.1015L55.1973 18.5275L55.0588 18.3736V25.2081C55.0588 25.7418 55.1511 26.1266 55.3358 26.3626C55.5308 26.5884 55.8387 26.7013 56.2594 26.7013C56.2902 26.7013 56.3056 26.7321 56.3056 26.7936C56.3056 26.8552 56.2902 26.886 56.2594 26.886C56.0029 26.886 55.8079 26.8809 55.6745 26.8706L54.9048 26.8552L54.1198 26.8706C53.9761 26.8809 53.7657 26.886 53.4887 26.886C53.4681 26.886 53.4579 26.8552 53.4579 26.7936C53.4579 26.7321 53.4681 26.7013 53.4887 26.7013C53.9299 26.7013 54.2429 26.5884 54.4276 26.3626C54.6124 26.1266 54.7047 25.7418 54.7047 25.2081V18.0042C54.3045 17.6347 53.8991 17.45 53.4887 17.45C53.4579 17.45 53.4425 17.4192 53.4425 17.3577C53.4425 17.2961 53.4579 17.2653 53.4887 17.2653L54.0582 17.2807C54.1813 17.291 54.3507 17.2961 54.5662 17.2961C54.7919 17.2961 54.9767 17.291 55.1203 17.2807C55.264 17.2704 55.3769 17.2653 55.459 17.2653C55.5411 17.2653 55.5975 17.2858 55.6283 17.3269C55.6693 17.3577 55.7309 17.4346 55.813 17.5578C55.9362 17.7425 56.0593 17.9118 56.1825 18.0657L62.1088 25.3467V18.9585C62.1088 18.4249 62.0164 18.0401 61.8317 17.8041C61.6573 17.568 61.3597 17.45 60.9389 17.45C60.9184 17.45 60.9081 17.4192 60.9081 17.3577C60.9081 17.2961 60.9184 17.2653 60.9389 17.2653L61.5392 17.2807C61.8471 17.3012 62.0985 17.3115 62.2935 17.3115C62.4782 17.3115 62.7348 17.3012 63.0632 17.2807L63.6943 17.2653ZM68.0284 17.5424C67.3819 17.5424 66.8944 17.7066 66.5661 18.035C66.2479 18.3633 66.017 18.9226 65.8734 19.7128C65.8734 19.7333 65.8426 19.7436 65.781 19.7436C65.7297 19.7436 65.704 19.7333 65.704 19.7128C65.7451 19.3434 65.7913 18.8611 65.8426 18.2659C65.8939 17.6707 65.9195 17.2243 65.9195 16.9267C65.9195 16.8753 65.9452 16.8497 65.9965 16.8497C66.0581 16.8497 66.0889 16.8753 66.0889 16.9267C66.0889 17.1524 66.3659 17.2653 66.9201 17.2653C67.7924 17.2961 68.8237 17.3115 70.0141 17.3115C70.6196 17.3115 71.2609 17.3012 71.9382 17.2807L72.985 17.2653C73.3544 17.2653 73.6264 17.2396 73.8008 17.1883C73.9855 17.137 74.1035 17.0344 74.1548 16.8805C74.1651 16.8394 74.1959 16.8189 74.2472 16.8189C74.2985 16.8189 74.3242 16.8394 74.3242 16.8805C74.2934 17.1781 74.2626 17.6296 74.2318 18.2351C74.201 18.8405 74.1856 19.3331 74.1856 19.7128C74.1856 19.7333 74.1548 19.7436 74.0933 19.7436C74.0317 19.7436 74.0009 19.7333 74.0009 19.7128C73.9701 18.9124 73.8059 18.3531 73.5083 18.035C73.2107 17.7066 72.7182 17.5424 72.0306 17.5424C71.5688 17.5424 71.2404 17.5629 71.0454 17.604C70.8505 17.645 70.7171 17.7322 70.6452 17.8656C70.5734 17.999 70.5375 18.2248 70.5375 18.5429V25.6391C70.5375 25.9573 70.5734 26.1882 70.6452 26.3318C70.7171 26.4755 70.8556 26.573 71.0608 26.6243C71.2661 26.6756 71.5893 26.7013 72.0306 26.7013C72.0614 26.7013 72.0768 26.7321 72.0768 26.7936C72.0768 26.8552 72.0614 26.886 72.0306 26.886C71.692 26.886 71.42 26.8809 71.2148 26.8706L70.0141 26.8552L68.8596 26.8706C68.6544 26.8809 68.3722 26.886 68.013 26.886C67.9925 26.886 67.9822 26.8552 67.9822 26.7936C67.9822 26.7321 67.9925 26.7013 68.013 26.7013C68.4543 26.7013 68.7775 26.6756 68.9828 26.6243C69.188 26.573 69.3265 26.4755 69.3984 26.3318C69.4805 26.1779 69.5215 25.947 69.5215 25.6391V18.5121C69.5215 18.194 69.4856 17.9734 69.4138 17.8502C69.3419 17.7168 69.2085 17.6347 69.0136 17.604C68.8186 17.5629 68.4902 17.5424 68.0284 17.5424ZM83.2643 24.5924C83.2643 24.5719 83.2848 24.5616 83.3259 24.5616C83.3567 24.5616 83.3823 24.5668 83.4028 24.577C83.4336 24.5873 83.449 24.6027 83.449 24.6232C83.3567 25.2697 83.3105 25.947 83.3105 26.6551C83.3105 26.7372 83.29 26.7988 83.2489 26.8398C83.2181 26.8706 83.1566 26.886 83.0642 26.886H76.6145C76.594 26.886 76.5837 26.8552 76.5837 26.7936C76.5837 26.7321 76.594 26.7013 76.6145 26.7013C77.0045 26.7013 77.2867 26.6756 77.4611 26.6243C77.6458 26.573 77.769 26.4755 77.8305 26.3318C77.9024 26.1779 77.9383 25.947 77.9383 25.6391V18.5121C77.9383 18.2043 77.9024 17.9785 77.8305 17.8348C77.769 17.6912 77.6458 17.5937 77.4611 17.5424C77.2867 17.4808 77.0045 17.45 76.6145 17.45C76.594 17.45 76.5837 17.4192 76.5837 17.3577C76.5837 17.2961 76.594 17.2653 76.6145 17.2653H82.8025C82.8949 17.2653 82.9411 17.3115 82.9411 17.4038L82.9718 19.2972C82.9718 19.328 82.9462 19.3485 82.8949 19.3588C82.8436 19.3588 82.8128 19.3434 82.8025 19.3126C82.7717 18.7687 82.6075 18.348 82.3099 18.0504C82.0123 17.7425 81.6172 17.5886 81.1247 17.5886H80.1857C79.8265 17.5886 79.5597 17.6193 79.3853 17.6809C79.2211 17.7322 79.103 17.8297 79.0312 17.9734C78.9696 18.1068 78.9389 18.312 78.9389 18.5891V21.7139H80.8168C81.3094 21.7139 81.6583 21.6318 81.8635 21.4676C82.079 21.3034 82.1868 21.0263 82.1868 20.6364C82.1868 20.6159 82.2176 20.6056 82.2792 20.6056C82.3407 20.6056 82.3715 20.6159 82.3715 20.6364L82.3561 21.8832C82.3561 22.1808 82.3612 22.4066 82.3715 22.5605L82.3869 23.2994C82.3869 23.3199 82.3561 23.3302 82.2945 23.3302C82.233 23.3302 82.2022 23.3199 82.2022 23.2994C82.2022 22.8479 82.0893 22.5246 81.8635 22.3296C81.648 22.1347 81.2837 22.0372 80.7706 22.0372H78.9389V25.5776C78.9389 25.8649 78.9696 26.0753 79.0312 26.2087C79.0928 26.3421 79.2057 26.4345 79.3699 26.4858C79.5341 26.5371 79.7906 26.5627 80.1395 26.5627H81.371C81.8635 26.5627 82.274 26.3883 82.6024 26.0394C82.9308 25.6905 83.1514 25.2081 83.2643 24.5924ZM87.5299 19.0663C87.5299 19.4665 87.6274 19.8154 87.8223 20.113C88.0173 20.4106 88.2534 20.662 88.5304 20.8673C88.8075 21.0623 89.1975 21.3137 89.7003 21.6215C90.2339 21.9397 90.6495 22.2065 90.9471 22.422C91.2447 22.6375 91.4962 22.9146 91.7014 23.2532C91.9169 23.5816 92.0247 23.9767 92.0247 24.4385C92.0247 24.9311 91.9015 25.3775 91.6552 25.7777C91.4089 26.1779 91.0446 26.496 90.5623 26.7321C90.0903 26.9578 89.5207 27.0707 88.8537 27.0707C88.0635 27.0707 87.34 26.8911 86.6833 26.5319C86.632 26.5012 86.596 26.4652 86.5755 26.4242C86.5652 26.3831 86.555 26.3216 86.5447 26.2395L86.3446 24.146C86.3344 24.105 86.3549 24.0793 86.4062 24.0691C86.4678 24.0588 86.5037 24.0742 86.5139 24.1152C86.6781 24.8541 86.9809 25.4903 87.4221 26.024C87.8737 26.5576 88.4689 26.8244 89.2077 26.8244C89.7208 26.8244 90.1518 26.6859 90.5007 26.4088C90.8599 26.1215 91.0395 25.6699 91.0395 25.0542C91.0395 24.5924 90.9369 24.1922 90.7316 23.8535C90.5264 23.5149 90.275 23.2378 89.9774 23.0223C89.69 22.7966 89.295 22.5349 88.7921 22.2373C88.2995 21.9397 87.9096 21.6831 87.6222 21.4676C87.3452 21.2521 87.1091 20.9802 86.9142 20.6518C86.7192 20.3234 86.6217 19.9386 86.6217 19.4973C86.6217 18.9842 86.7551 18.5481 87.0219 18.1889C87.299 17.8195 87.653 17.5475 88.084 17.3731C88.5253 17.1883 88.9922 17.096 89.4848 17.096C90.0903 17.096 90.6906 17.2191 91.2858 17.4654C91.4397 17.5167 91.5167 17.604 91.5167 17.7271L91.6244 19.4973C91.6244 19.5384 91.5988 19.5589 91.5475 19.5589C91.4962 19.5589 91.4654 19.5384 91.4551 19.4973C91.373 18.9637 91.1524 18.4711 90.7932 18.0196C90.434 17.5578 89.9158 17.3269 89.2385 17.3269C88.6638 17.3269 88.2328 17.4962 87.9455 17.8348C87.6684 18.1632 87.5299 18.5737 87.5299 19.0663ZM6.09909 43.9654C5.71518 43.9654 5.27169 43.9456 4.76863 43.9058C4.58329 43.8926 4.345 43.8794 4.05375 43.8661C3.77575 43.8529 3.46464 43.8463 3.12045 43.8463L1.77013 43.8661C1.53183 43.8794 1.20087 43.886 0.777243 43.886C0.750767 43.886 0.737528 43.8463 0.737528 43.7668C0.737528 43.6874 0.750767 43.6477 0.777243 43.6477C1.2803 43.6477 1.64436 43.6146 1.86941 43.5484C2.10771 43.4822 2.26657 43.3564 2.346 43.1711C2.43867 42.9725 2.485 42.6747 2.485 42.2775V33.0834C2.485 32.6863 2.44529 32.395 2.36586 32.2097C2.28642 32.0244 2.12756 31.8986 1.88927 31.8324C1.66422 31.753 1.30016 31.7132 0.797101 31.7132C0.770624 31.7132 0.757386 31.6735 0.757386 31.5941C0.757386 31.5147 0.770624 31.475 0.797101 31.475L1.78998 31.4948C2.346 31.5213 2.78948 31.5345 3.12045 31.5345C3.62351 31.5345 4.11995 31.5147 4.60977 31.475C5.19226 31.4485 5.59603 31.4352 5.82109 31.4352C7.19788 31.4352 8.41582 31.7 9.47489 32.2295C10.534 32.7591 11.3547 33.4806 11.9372 34.394C12.533 35.3075 12.8308 36.3335 12.8308 37.472C12.8308 38.7561 12.5264 39.8946 11.9174 40.8875C11.3217 41.8671 10.5075 42.6283 9.47489 43.1711C8.44229 43.7006 7.31703 43.9654 6.09909 43.9654ZM5.90052 43.6676C6.95959 43.6676 7.89952 43.4491 8.7203 43.0122C9.54108 42.5621 10.1765 41.9068 10.6266 41.0463C11.09 40.1726 11.3217 39.1268 11.3217 37.9088C11.3217 36.7571 11.1032 35.7113 10.6664 34.7713C10.2295 33.8314 9.60728 33.09 8.79973 32.5473C7.99219 32.0045 7.05888 31.7331 5.9998 31.7331C5.43055 31.7331 4.98706 31.7662 4.66934 31.8324C4.36486 31.8986 4.1398 32.031 3.99418 32.2295C3.84856 32.4281 3.77575 32.726 3.77575 33.1231V42.0591C3.77575 42.4562 3.8287 42.7673 3.93461 42.9924C4.05375 43.2174 4.26557 43.3895 4.57005 43.5087C4.88778 43.6146 5.33126 43.6676 5.90052 43.6676ZM22.4699 44.1243C21.2387 44.1243 20.1399 43.8397 19.1735 43.2704C18.2203 42.6879 17.479 41.9068 16.9494 40.9272C16.4331 39.9343 16.175 38.8554 16.175 37.6904C16.175 36.3268 16.5192 35.1619 17.2076 34.1955C17.896 33.2158 18.7763 32.4811 19.8487 31.9913C20.9342 31.5014 22.0396 31.2565 23.1649 31.2565C24.4225 31.2565 25.5279 31.5544 26.4811 32.1501C27.4343 32.7326 28.1624 33.5071 28.6654 34.4735C29.1817 35.4399 29.4399 36.4658 29.4399 37.5514C29.4399 38.7561 29.1222 39.8615 28.4867 40.8676C27.8513 41.8737 26.9974 42.6681 25.9251 43.2505C24.866 43.833 23.7143 44.1243 22.4699 44.1243ZM23.1649 43.7073C24.0651 43.7073 24.8726 43.4888 25.5875 43.052C26.3156 42.6151 26.8849 41.973 27.2953 41.1258C27.7189 40.2785 27.9307 39.2724 27.9307 38.1074C27.9307 36.863 27.699 35.7576 27.2357 34.7912C26.7723 33.8248 26.117 33.0702 25.2698 32.5274C24.4358 31.9846 23.4561 31.7132 22.3309 31.7132C20.8746 31.7132 19.7361 32.1832 18.9153 33.1231C18.0946 34.0631 17.6842 35.3538 17.6842 36.9954C17.6842 38.2398 17.9158 39.3783 18.3792 40.4109C18.8425 41.4303 19.4912 42.2378 20.3252 42.8335C21.1593 43.416 22.1058 43.7073 23.1649 43.7073ZM51.1244 31.475C51.1642 31.475 51.184 31.5147 51.184 31.5941C51.184 31.6735 51.1642 31.7132 51.1244 31.7132C50.6743 31.7132 50.2838 31.8324 49.9528 32.0707C49.6219 32.309 49.3439 32.7128 49.1188 33.282L44.8891 43.8661C44.8759 43.9191 44.8031 43.9456 44.6707 43.9456C44.5648 43.9456 44.492 43.9191 44.4523 43.8661L39.5077 33.1231C39.2827 32.6068 39.0444 32.2428 38.7928 32.031C38.5413 31.8192 38.217 31.7132 37.8198 31.7132C37.7801 31.7132 37.7602 31.6735 37.7602 31.5941C37.7602 31.5147 37.7801 31.475 37.8198 31.475L38.5744 31.4948C38.9451 31.5213 39.2429 31.5345 39.468 31.5345C39.9975 31.5345 40.5668 31.5213 41.1758 31.4948L41.9899 31.475C42.0296 31.475 42.0495 31.5147 42.0495 31.5941C42.0495 31.6735 42.0296 31.7132 41.9899 31.7132C41.5795 31.7132 41.2684 31.7662 41.0566 31.8721C40.858 31.978 40.7587 32.1567 40.7587 32.4083C40.7587 32.5671 40.8183 32.7789 40.9375 33.0437L45.0877 42.1385L48.6621 33.1827C48.768 32.9047 48.821 32.6863 48.821 32.5274C48.821 32.2494 48.6952 32.0442 48.4437 31.9118C48.1921 31.7794 47.8016 31.7132 47.2721 31.7132C47.2323 31.7132 47.2125 31.6735 47.2125 31.5941C47.2125 31.5147 47.2323 31.475 47.2721 31.475L48.1259 31.4948C48.576 31.5213 48.9864 31.5345 49.3571 31.5345C49.6351 31.5345 49.9462 31.5213 50.2904 31.4948L51.1244 31.475ZM56.4069 42.2775C56.4069 42.6747 56.4466 42.9725 56.526 43.1711C56.6055 43.3564 56.7577 43.4822 56.9828 43.5484C57.221 43.6146 57.5917 43.6477 58.0948 43.6477C58.1345 43.6477 58.1544 43.6874 58.1544 43.7668C58.1544 43.8463 58.1345 43.886 58.0948 43.886C57.6976 43.886 57.3799 43.8794 57.1416 43.8661L55.7317 43.8463L54.3615 43.8661C54.1233 43.8794 53.7989 43.886 53.3885 43.886C53.3488 43.886 53.3289 43.8463 53.3289 43.7668C53.3289 43.6874 53.3488 43.6477 53.3885 43.6477C53.8916 43.6477 54.2556 43.6146 54.4807 43.5484C54.719 43.4822 54.8778 43.3564 54.9573 43.1711C55.0499 42.9725 55.0963 42.6747 55.0963 42.2775V33.0834C55.0963 32.6863 55.0499 32.395 54.9573 32.2097C54.8778 32.0244 54.719 31.8986 54.4807 31.8324C54.2556 31.753 53.8916 31.7132 53.3885 31.7132C53.3488 31.7132 53.3289 31.6735 53.3289 31.5941C53.3289 31.5147 53.3488 31.475 53.3885 31.475L54.3615 31.4948C54.9176 31.5213 55.3743 31.5345 55.7317 31.5345C56.1289 31.5345 56.6055 31.5213 57.1615 31.4948L58.0948 31.475C58.1345 31.475 58.1544 31.5147 58.1544 31.5941C58.1544 31.6735 58.1345 31.7132 58.0948 31.7132C57.605 31.7132 57.2409 31.753 57.0026 31.8324C56.7776 31.9118 56.6187 32.0508 56.526 32.2494C56.4466 32.4347 56.4069 32.726 56.4069 33.1231V42.2775ZM74.4184 31.475C74.4581 31.475 74.478 31.5147 74.478 31.5941C74.478 31.6735 74.4581 31.7132 74.4184 31.7132C73.8624 31.7132 73.4586 31.8655 73.2071 32.17C72.9555 32.4745 72.8298 32.9709 72.8298 33.6593V44.1243C72.8298 44.1508 72.7967 44.1706 72.7305 44.1839C72.6643 44.1971 72.618 44.1905 72.5915 44.164L63.457 33.1033L63.2782 32.9047V41.7215C63.2782 42.4099 63.3974 42.9063 63.6357 43.2108C63.8872 43.5021 64.2844 43.6477 64.8271 43.6477C64.8669 43.6477 64.8867 43.6874 64.8867 43.7668C64.8867 43.8463 64.8669 43.886 64.8271 43.886C64.4962 43.886 64.2447 43.8794 64.0726 43.8661L63.0797 43.8463L62.0669 43.8661C61.8816 43.8794 61.6102 43.886 61.2528 43.886C61.2263 43.886 61.2131 43.8463 61.2131 43.7668C61.2131 43.6874 61.2263 43.6477 61.2528 43.6477C61.822 43.6477 62.2258 43.5021 62.4641 43.2108C62.7024 42.9063 62.8215 42.4099 62.8215 41.7215V32.4281C62.3052 31.9515 61.7823 31.7132 61.2528 31.7132C61.2131 31.7132 61.1932 31.6735 61.1932 31.5941C61.1932 31.5147 61.2131 31.475 61.2528 31.475L61.9875 31.4948C62.1464 31.5081 62.3648 31.5147 62.6428 31.5147C62.9341 31.5147 63.1723 31.5081 63.3577 31.4948C63.543 31.4816 63.6886 31.475 63.7945 31.475C63.9005 31.475 63.9733 31.5014 64.013 31.5544C64.0659 31.5941 64.1454 31.6934 64.2513 31.8523C64.4101 32.0905 64.569 32.309 64.7279 32.5076L72.3731 41.9002V33.6593C72.3731 32.9709 72.2539 32.4745 72.0156 32.17C71.7906 31.8655 71.4066 31.7132 70.8639 31.7132C70.8374 31.7132 70.8242 31.6735 70.8242 31.5941C70.8242 31.5147 70.8374 31.475 70.8639 31.475L71.6383 31.4948C72.0355 31.5213 72.3598 31.5345 72.6113 31.5345C72.8496 31.5345 73.1806 31.5213 73.6042 31.4948L74.4184 31.475ZM90.5937 43.6477C90.6334 43.6477 90.6533 43.6874 90.6533 43.7668C90.6533 43.8463 90.6334 43.886 90.5937 43.886C90.1833 43.886 89.859 43.8794 89.6207 43.8661L88.2505 43.8463L86.8009 43.8661C86.5626 43.8794 86.2449 43.886 85.8477 43.886C85.808 43.886 85.7881 43.8463 85.7881 43.7668C85.7881 43.6874 85.808 43.6477 85.8477 43.6477C86.364 43.6477 86.7413 43.6146 86.9796 43.5484C87.2179 43.4822 87.3768 43.3564 87.4562 43.1711C87.5489 42.9725 87.5952 42.6747 87.5952 42.2775V37.6308H79.9698V42.2775C79.9698 42.6747 80.0096 42.9725 80.089 43.1711C80.1817 43.3564 80.3471 43.4822 80.5854 43.5484C80.8237 43.6146 81.201 43.6477 81.7173 43.6477C81.7438 43.6477 81.757 43.6874 81.757 43.7668C81.757 43.8463 81.7438 43.886 81.7173 43.886C81.3069 43.886 80.9826 43.8794 80.7443 43.8661L79.3145 43.8463L77.9444 43.8661C77.7061 43.8794 77.3751 43.886 76.9515 43.886C76.925 43.886 76.9118 43.8463 76.9118 43.7668C76.9118 43.6874 76.925 43.6477 76.9515 43.6477C77.4545 43.6477 77.8252 43.6146 78.0635 43.5484C78.315 43.4822 78.4805 43.3564 78.56 43.1711C78.6526 42.9725 78.699 42.6747 78.699 42.2775V33.0834C78.699 32.6863 78.6526 32.395 78.56 32.2097C78.4805 32.0244 78.3217 31.8986 78.0834 31.8324C77.8451 31.753 77.4744 31.7132 76.9713 31.7132C76.9449 31.7132 76.9316 31.6735 76.9316 31.5941C76.9316 31.5147 76.9449 31.475 76.9713 31.475L77.9841 31.4948C78.5401 31.5213 78.9836 31.5345 79.3145 31.5345C79.6985 31.5345 80.1817 31.5213 80.7642 31.4948L81.7173 31.475C81.7438 31.475 81.757 31.5147 81.757 31.5941C81.757 31.6735 81.7438 31.7132 81.7173 31.7132C81.2143 31.7132 80.837 31.753 80.5854 31.8324C80.3471 31.9118 80.1817 32.0508 80.089 32.2494C80.0096 32.4347 79.9698 32.726 79.9698 33.1231V37.2138H87.5952V33.1231C87.5952 32.726 87.5489 32.4347 87.4562 32.2494C87.3768 32.0508 87.2179 31.9118 86.9796 31.8324C86.7413 31.753 86.364 31.7132 85.8477 31.7132C85.808 31.7132 85.7881 31.6735 85.7881 31.5941C85.7881 31.5147 85.808 31.475 85.8477 31.475L86.8009 31.4948C87.3834 31.5213 87.8666 31.5345 88.2505 31.5345C88.6079 31.5345 89.0647 31.5213 89.6207 31.4948L90.5937 31.475C90.6334 31.475 90.6533 31.5147 90.6533 31.5941C90.6533 31.6735 90.6334 31.7132 90.5937 31.7132C90.0906 31.7132 89.72 31.753 89.4817 31.8324C89.2434 31.8986 89.0779 32.0244 88.9852 32.2097C88.9058 32.395 88.8661 32.6863 88.8661 33.0834V42.2775C88.8661 42.6747 88.9058 42.9725 88.9852 43.1711C89.0779 43.3564 89.2434 43.4822 89.4817 43.5484C89.72 43.6146 90.0906 43.6477 90.5937 43.6477ZM99.9822 44.1243C98.751 44.1243 97.6522 43.8397 96.6858 43.2704C95.7326 42.6879 94.9913 41.9068 94.4617 40.9272C93.9454 39.9343 93.6873 38.8554 93.6873 37.6904C93.6873 36.3268 94.0315 35.1619 94.7199 34.1955C95.4083 33.2158 96.2886 32.4811 97.361 31.9913C98.4465 31.5014 99.5519 31.2565 100.677 31.2565C101.935 31.2565 103.04 31.5544 103.993 32.1501C104.947 32.7326 105.675 33.5071 106.178 34.4735C106.694 35.4399 106.952 36.4658 106.952 37.5514C106.952 38.7561 106.634 39.8615 105.999 40.8676C105.364 41.8737 104.51 42.6681 103.437 43.2505C102.378 43.833 101.227 44.1243 99.9822 44.1243ZM100.677 43.7073C101.577 43.7073 102.385 43.4888 103.1 43.052C103.828 42.6151 104.397 41.973 104.808 41.1258C105.231 40.2785 105.443 39.2724 105.443 38.1074C105.443 36.863 105.211 35.7576 104.748 34.7912C104.285 33.8248 103.629 33.0702 102.782 32.5274C101.948 31.9846 100.968 31.7132 99.8432 31.7132C98.3869 31.7132 97.2484 32.1832 96.4276 33.1231C95.6069 34.0631 95.1965 35.3538 95.1965 36.9954C95.1965 38.2398 95.4281 39.3783 95.8915 40.4109C96.3548 41.4303 97.0035 42.2378 97.8375 42.8335C98.6716 43.416 99.6181 43.7073 100.677 43.7073Z" fill="#D9A863"/>
<path d="M33.7973 3.52413C33.7973 3.2307 33.8477 2.94184 33.9486 2.65758C34.0541 2.36873 34.2054 2.10739 34.4025 1.87355C34.5997 1.63514 34.8404 1.44486 35.1247 1.30273C35.4135 1.1606 35.7413 1.08953 36.1081 1.08953C36.5437 1.08953 36.9151 1.1904 37.2223 1.39214C37.5295 1.58929 37.7587 1.84375 37.91 2.15553L37.6212 2.32059C37.5065 2.09592 37.3644 1.91711 37.1948 1.78415C37.0297 1.65118 36.8509 1.55719 36.6583 1.50217C36.4658 1.44257 36.2732 1.41277 36.0806 1.41277C35.7734 1.41277 35.4983 1.47466 35.2553 1.59846C35.0169 1.72225 34.8152 1.88731 34.6501 2.09363C34.4851 2.29995 34.359 2.5292 34.2719 2.78137C34.1893 3.03354 34.1481 3.28801 34.1481 3.54476C34.1481 3.83362 34.1985 4.10871 34.2994 4.37005C34.4002 4.62681 34.5378 4.85606 34.712 5.05779C34.8908 5.25953 35.0971 5.42001 35.331 5.53921C35.5694 5.65842 35.8262 5.71803 36.1012 5.71803C36.2984 5.71803 36.4978 5.68593 36.6996 5.62174C36.9059 5.55297 37.0985 5.44981 37.2773 5.31226C37.4561 5.17013 37.6005 4.98673 37.7106 4.76207L38.0132 4.90649C37.9077 5.14949 37.7495 5.35582 37.5386 5.52546C37.3277 5.6951 37.0939 5.82348 36.8371 5.91059C36.5804 5.99771 36.3259 6.04126 36.0737 6.04126C35.7436 6.04126 35.4387 5.9702 35.159 5.82806C34.8794 5.68135 34.6364 5.48878 34.43 5.25036C34.2283 5.00736 34.0724 4.73685 33.9624 4.43883C33.8523 4.13622 33.7973 3.83132 33.7973 3.52413ZM44.2883 6.03439C43.8986 6.03439 43.5731 5.96561 43.3117 5.82806C43.0504 5.69052 42.8418 5.50483 42.6859 5.27099C42.53 5.03258 42.4177 4.76665 42.3489 4.47321C42.2801 4.17978 42.2457 3.87947 42.2457 3.57227V1.11704H42.5965V3.57227C42.5965 3.8382 42.624 4.09954 42.679 4.3563C42.734 4.61306 42.8234 4.8446 42.9472 5.05092C43.0756 5.25265 43.2475 5.41313 43.463 5.53234C43.6831 5.65154 43.9559 5.71115 44.2814 5.71115C44.6116 5.71115 44.8844 5.64925 45.0999 5.52546C45.3199 5.40167 45.4919 5.2389 45.6157 5.03716C45.744 4.83084 45.8334 4.60159 45.8839 4.34942C45.9389 4.09266 45.9664 3.83362 45.9664 3.57227V1.11704H46.3172V3.57227C46.3172 3.8978 46.2805 4.20958 46.2071 4.5076C46.1383 4.80104 46.0237 5.06238 45.8632 5.29163C45.7028 5.52087 45.4942 5.70198 45.2374 5.83494C44.9806 5.96791 44.6643 6.03439 44.2883 6.03439ZM50.9584 6V1.11704H52.9873C53.1982 1.11704 53.3885 1.1606 53.5581 1.24771C53.7323 1.33482 53.8813 1.45174 54.0051 1.59846C54.1335 1.74059 54.2321 1.90106 54.3009 2.07988C54.3742 2.25869 54.4109 2.44209 54.4109 2.63007C54.4109 2.87307 54.3628 3.10003 54.2665 3.31093C54.1702 3.52184 54.0349 3.69836 53.8607 3.84049C53.6911 3.98263 53.4916 4.06974 53.2624 4.10183L54.4797 6H54.0739L52.891 4.15685H51.3092V6H50.9584ZM51.3092 3.83362H53.0217C53.2326 3.83362 53.416 3.7763 53.5719 3.66168C53.7277 3.54706 53.847 3.39805 53.9295 3.21465C54.0166 3.03125 54.0602 2.83639 54.0602 2.63007C54.0602 2.41916 54.0097 2.2243 53.9089 2.04549C53.8126 1.86209 53.6819 1.71537 53.5168 1.60533C53.3564 1.49071 53.1753 1.4334 52.9735 1.4334H51.3092V3.83362ZM61.7038 1.92857C61.6259 1.84146 61.5387 1.76581 61.4425 1.70162C61.3462 1.63284 61.243 1.57783 61.133 1.53656C61.0229 1.49071 60.9037 1.45632 60.7754 1.4334C60.647 1.41047 60.5094 1.39901 60.3627 1.39901C59.8859 1.39901 59.5374 1.49071 59.3173 1.67411C59.1018 1.85292 58.9941 2.09592 58.9941 2.40311C58.9941 2.60944 59.0422 2.77449 59.1385 2.89829C59.2394 3.0175 59.3953 3.11378 59.6062 3.18714C59.8171 3.2605 60.0899 3.33156 60.4246 3.40034C60.7776 3.4737 61.0825 3.56081 61.3393 3.66168C61.5961 3.75796 61.7932 3.89093 61.9308 4.06057C62.0729 4.23021 62.144 4.45946 62.144 4.74831C62.144 4.9638 62.1027 5.15408 62.0202 5.31914C61.9376 5.47961 61.8184 5.61257 61.6625 5.71803C61.5067 5.82348 61.321 5.90372 61.1055 5.95874C60.8946 6.01375 60.6584 6.04126 60.3971 6.04126C60.1449 6.04126 59.9042 6.01375 59.675 5.95874C59.4457 5.90372 59.2302 5.82348 59.0285 5.71803C58.8268 5.61257 58.6388 5.47732 58.4645 5.31226L58.6502 5.03029C58.7511 5.14032 58.8634 5.2389 58.9872 5.32601C59.1156 5.40854 59.2532 5.47961 59.3999 5.53921C59.5512 5.59882 59.7116 5.64696 59.8813 5.68364C60.0509 5.71573 60.2275 5.73178 60.4108 5.73178C60.8372 5.73178 61.1697 5.65384 61.4081 5.49795C61.6511 5.33748 61.7726 5.10135 61.7726 4.78958C61.7726 4.57408 61.7176 4.39986 61.6075 4.26689C61.4975 4.13393 61.3278 4.02618 61.0986 3.94365C60.8693 3.85654 60.5828 3.7763 60.2389 3.70294C59.895 3.62959 59.6016 3.54706 59.3586 3.45536C59.1202 3.36366 58.9391 3.23987 58.8153 3.08398C58.6961 2.92809 58.6365 2.71718 58.6365 2.45126C58.6365 2.15782 58.7075 1.91023 58.8497 1.7085C58.9964 1.50217 59.2004 1.34629 59.4618 1.24083C59.7231 1.13538 60.0234 1.08265 60.3627 1.08265C60.5736 1.08265 60.7685 1.10328 60.9473 1.14455C61.1307 1.18581 61.298 1.25 61.4493 1.33712C61.6052 1.41964 61.7497 1.5251 61.8826 1.65348L61.7038 1.92857ZM68.4125 6.03439C68.0732 6.03439 67.7637 5.96561 67.4841 5.82806C67.2044 5.68593 66.9637 5.49795 66.7619 5.26412C66.5602 5.03029 66.4043 4.76665 66.2943 4.47321C66.1842 4.17519 66.1292 3.8703 66.1292 3.55852C66.1292 3.23299 66.1865 2.92351 66.3011 2.63007C66.4158 2.33205 66.5762 2.06841 66.7826 1.83917C66.9935 1.60533 67.2365 1.42194 67.5116 1.28897C67.7912 1.15143 68.0938 1.08265 68.4194 1.08265C68.7632 1.08265 69.0727 1.15372 69.3478 1.29585C69.6275 1.43798 69.8682 1.62826 70.07 1.86668C70.2717 2.10509 70.4276 2.37102 70.5376 2.66446C70.6477 2.95789 70.7027 3.25591 70.7027 3.55852C70.7027 3.88864 70.6454 4.2027 70.5307 4.50072C70.4161 4.79416 70.2534 5.05779 70.0424 5.29163C69.8361 5.52087 69.5931 5.70198 69.3134 5.83494C69.0383 5.96791 68.738 6.03439 68.4125 6.03439ZM66.4799 3.55852C66.4799 3.8382 66.5281 4.10642 66.6244 4.36318C66.7207 4.61993 66.8536 4.84918 67.0233 5.05092C67.1975 5.25265 67.4015 5.41313 67.6354 5.53234C67.8738 5.65154 68.1351 5.71115 68.4194 5.71115C68.7082 5.71115 68.9719 5.64925 69.2103 5.52546C69.4487 5.40167 69.6527 5.23661 69.8224 5.03029C69.992 4.82396 70.1204 4.59472 70.2075 4.34254C70.2992 4.08579 70.3451 3.82445 70.3451 3.55852C70.3451 3.27884 70.2969 3.01062 70.2006 2.75386C70.1089 2.49711 69.976 2.26786 69.8017 2.06612C69.6275 1.86438 69.4212 1.70391 69.1828 1.5847C68.9489 1.46549 68.6945 1.40589 68.4194 1.40589C68.1259 1.40589 67.86 1.46779 67.6216 1.59158C67.3832 1.71537 67.1792 1.88043 67.0095 2.08675C66.8445 2.29308 66.7138 2.52462 66.6175 2.78137C66.5258 3.03354 66.4799 3.29259 66.4799 3.55852Z" fill="white"/>
</svg>
