<svg width="38" height="38" viewBox="0 0 38 38" fill="none" xmlns="http://www.w3.org/2000/svg">
<path d="M37.0841 0.541992H0.168213V37.4579H37.0841V0.541992Z" fill="black"/>
<path d="M25.2535 7.92529H13.4522C10.1933 7.92529 7.55151 10.5637 7.55151 13.8183V25.6043C7.55151 28.8589 10.1933 31.4973 13.4522 31.4973H25.2535C28.5124 31.4973 31.1542 28.8589 31.1542 25.6043V13.8183C31.1542 10.5637 28.5124 7.92529 25.2535 7.92529Z" stroke="white" stroke-width="2.3572" stroke-linecap="round" stroke-linejoin="round"/>
<path d="M24.0739 18.9687C24.2195 19.9496 24.0517 20.9513 23.5944 21.8315C23.1371 22.7117 22.4136 23.4254 21.5267 23.8713C20.6398 24.3171 19.6347 24.4723 18.6544 24.3147C17.6741 24.1572 16.7685 23.695 16.0665 22.9938C15.3644 22.2926 14.9015 21.3882 14.7438 20.4092C14.5861 19.4302 14.7414 18.4264 15.1878 17.5407C15.6342 16.6549 16.3489 15.9323 17.2302 15.4756C18.1116 15.0189 19.1146 14.8513 20.0968 14.9968C21.0986 15.1452 22.0261 15.6114 22.7423 16.3266C23.4585 17.0418 23.9253 17.9681 24.0739 18.9687Z" stroke="white" stroke-width="2.3572" stroke-linecap="round" stroke-linejoin="round"/>
<path d="M25.8435 13.229H25.8567" stroke="white" stroke-width="2.3572" stroke-linecap="round" stroke-linejoin="round"/>
</svg>
