<svg width="303" height="48" viewBox="0 0 303 48" fill="none" xmlns="http://www.w3.org/2000/svg">
<path d="M25.9006 25.7013C25.9417 25.7013 25.9622 25.7321 25.9622 25.7936C25.9622 25.8552 25.9417 25.886 25.9006 25.886C25.7057 25.886 25.4029 25.8757 24.9924 25.8552C24.582 25.8347 24.2844 25.8244 24.0996 25.8244C23.8739 25.8244 23.5865 25.8347 23.2376 25.8552C22.9092 25.8757 22.6578 25.886 22.4834 25.886C22.4423 25.886 22.4218 25.8552 22.4218 25.7936C22.4218 25.7321 22.4423 25.7013 22.4834 25.7013C22.8631 25.7013 23.1401 25.6654 23.3146 25.5935C23.489 25.5217 23.5763 25.3985 23.5763 25.2241C23.5763 25.0804 23.5096 24.8598 23.3762 24.5622L21.606 20.7909H18.6967L17.3729 23.9311C17.2292 24.28 17.1574 24.5673 17.1574 24.7931C17.1574 25.3985 17.6602 25.7013 18.6659 25.7013C18.7172 25.7013 18.7428 25.7321 18.7428 25.7936C18.7428 25.8552 18.7172 25.886 18.6659 25.886C18.4812 25.886 18.2143 25.8757 17.8654 25.8552C17.4755 25.8347 17.1368 25.8244 16.8495 25.8244C16.5827 25.8244 16.2748 25.8347 15.9259 25.8552C15.618 25.8757 15.3615 25.886 15.1563 25.886C15.1049 25.886 15.0793 25.8552 15.0793 25.7936C15.0793 25.7321 15.1049 25.7013 15.1563 25.7013C15.4436 25.7013 15.6848 25.65 15.8797 25.5473C16.085 25.4345 16.2748 25.2446 16.4493 24.9778C16.634 24.7007 16.8341 24.3056 17.0496 23.7925L20.2975 16.1268C20.3181 16.096 20.354 16.0806 20.4053 16.0806C20.4566 16.0806 20.4874 16.096 20.4977 16.1268L24.1304 23.7771C24.4793 24.5365 24.7769 25.0496 25.0232 25.3164C25.2695 25.573 25.562 25.7013 25.9006 25.7013ZM18.8352 20.4676H21.452L20.0667 17.5429L18.8352 20.4676ZM39.5258 25.7013C39.5566 25.7013 39.572 25.7321 39.572 25.7936C39.572 25.8552 39.5566 25.886 39.5258 25.886C39.2077 25.886 38.9563 25.8809 38.7715 25.8706L37.7094 25.8552L36.7243 25.8706C36.5601 25.8809 36.3292 25.886 36.0316 25.886C36.011 25.886 36.0008 25.8552 36.0008 25.7936C36.0008 25.7321 36.011 25.7013 36.0316 25.7013C36.3805 25.7013 36.637 25.6756 36.8012 25.6243C36.9757 25.5627 37.0886 25.4601 37.1399 25.3164C37.2014 25.1728 37.222 24.947 37.2014 24.6391L36.9244 17.6353L33.4147 25.7782C33.3942 25.8193 33.3532 25.8398 33.2916 25.8398C33.2403 25.8398 33.1941 25.8193 33.1531 25.7782L29.3664 17.7276L29.2278 24.2081C29.2176 24.752 29.3099 25.1369 29.5049 25.3626C29.6999 25.5884 30.0437 25.7013 30.5362 25.7013C30.5568 25.7013 30.567 25.7321 30.567 25.7936C30.567 25.8552 30.5568 25.886 30.5362 25.886C30.2489 25.886 30.0283 25.8809 29.8743 25.8706L29.0431 25.8552L28.2427 25.8706C28.099 25.8809 27.8938 25.886 27.6269 25.886C27.6064 25.886 27.5962 25.8552 27.5962 25.7936C27.5962 25.7321 27.6064 25.7013 27.6269 25.7013C28.058 25.7013 28.3658 25.5884 28.5505 25.3626C28.7455 25.1266 28.8481 24.7418 28.8584 24.2081L28.9969 17.0657C28.6891 16.6553 28.2683 16.45 27.7347 16.45C27.7142 16.45 27.7039 16.4192 27.7039 16.3577C27.7039 16.2961 27.7142 16.2653 27.7347 16.2653L28.3042 16.2807C28.4069 16.291 28.5505 16.2961 28.7352 16.2961C28.92 16.2961 29.0739 16.291 29.197 16.2807C29.3304 16.2704 29.4331 16.2653 29.5049 16.2653C29.6383 16.2653 29.7461 16.3166 29.8282 16.4192C29.9205 16.5116 30.0488 16.7271 30.213 17.0657L33.6456 24.3005L37.0013 16.6501C37.1142 16.3936 37.2682 16.2653 37.4631 16.2653C37.5144 16.2653 37.5863 16.2704 37.6786 16.2807C37.7813 16.291 37.9147 16.2961 38.0789 16.2961L38.8023 16.2807C38.9152 16.2704 39.0845 16.2653 39.3103 16.2653C39.3411 16.2653 39.3565 16.2961 39.3565 16.3577C39.3565 16.4192 39.3411 16.45 39.3103 16.45C38.7972 16.45 38.4278 16.527 38.202 16.6809C37.9865 16.8246 37.8839 17.1017 37.8941 17.5121L38.202 24.6391C38.2123 24.9573 38.2482 25.1882 38.3097 25.3318C38.3816 25.4755 38.5047 25.573 38.6792 25.6243C38.8536 25.6756 39.1358 25.7013 39.5258 25.7013ZM51.7316 25.7013C51.7726 25.7013 51.7931 25.7321 51.7931 25.7936C51.7931 25.8552 51.7726 25.886 51.7316 25.886C51.5366 25.886 51.2339 25.8757 50.8234 25.8552C50.4129 25.8347 50.1153 25.8244 49.9306 25.8244C49.7048 25.8244 49.4175 25.8347 49.0686 25.8552C48.7402 25.8757 48.4888 25.886 48.3143 25.886C48.2733 25.886 48.2527 25.8552 48.2527 25.7936C48.2527 25.7321 48.2733 25.7013 48.3143 25.7013C48.694 25.7013 48.9711 25.6654 49.1455 25.5935C49.32 25.5217 49.4072 25.3985 49.4072 25.2241C49.4072 25.0804 49.3405 24.8598 49.2071 24.5622L47.4369 20.7909H44.5276L43.2038 23.9311C43.0601 24.28 42.9883 24.5673 42.9883 24.7931C42.9883 25.3985 43.4911 25.7013 44.4968 25.7013C44.5481 25.7013 44.5738 25.7321 44.5738 25.7936C44.5738 25.8552 44.5481 25.886 44.4968 25.886C44.3121 25.886 44.0453 25.8757 43.6964 25.8552C43.3064 25.8347 42.9678 25.8244 42.6804 25.8244C42.4136 25.8244 42.1058 25.8347 41.7568 25.8552C41.449 25.8757 41.1924 25.886 40.9872 25.886C40.9359 25.886 40.9102 25.8552 40.9102 25.7936C40.9102 25.7321 40.9359 25.7013 40.9872 25.7013C41.2745 25.7013 41.5157 25.65 41.7107 25.5473C41.9159 25.4345 42.1058 25.2446 42.2802 24.9778C42.4649 24.7007 42.665 24.3056 42.8805 23.7925L46.1285 16.1268C46.149 16.096 46.1849 16.0806 46.2362 16.0806C46.2875 16.0806 46.3183 16.096 46.3286 16.1268L49.9614 23.7771C50.3103 24.5365 50.6079 25.0496 50.8542 25.3164C51.1004 25.573 51.3929 25.7013 51.7316 25.7013ZM44.6661 20.4676H47.283L45.8976 17.5429L44.6661 20.4676ZM63.6943 16.2653C63.7251 16.2653 63.7405 16.2961 63.7405 16.3577C63.7405 16.4192 63.7251 16.45 63.6943 16.45C63.2633 16.45 62.9503 16.568 62.7553 16.8041C62.5603 17.0401 62.4628 17.4249 62.4628 17.9585V26.0707C62.4628 26.0912 62.4372 26.1066 62.3859 26.1169C62.3346 26.1271 62.2986 26.122 62.2781 26.1015L55.1973 17.5275L55.0588 17.3736V24.2081C55.0588 24.7418 55.1511 25.1266 55.3358 25.3626C55.5308 25.5884 55.8387 25.7013 56.2594 25.7013C56.2902 25.7013 56.3056 25.7321 56.3056 25.7936C56.3056 25.8552 56.2902 25.886 56.2594 25.886C56.0029 25.886 55.8079 25.8809 55.6745 25.8706L54.9048 25.8552L54.1198 25.8706C53.9761 25.8809 53.7657 25.886 53.4887 25.886C53.4681 25.886 53.4579 25.8552 53.4579 25.7936C53.4579 25.7321 53.4681 25.7013 53.4887 25.7013C53.9299 25.7013 54.2429 25.5884 54.4276 25.3626C54.6124 25.1266 54.7047 24.7418 54.7047 24.2081V17.0042C54.3045 16.6347 53.8991 16.45 53.4887 16.45C53.4579 16.45 53.4425 16.4192 53.4425 16.3577C53.4425 16.2961 53.4579 16.2653 53.4887 16.2653L54.0582 16.2807C54.1813 16.291 54.3507 16.2961 54.5662 16.2961C54.7919 16.2961 54.9767 16.291 55.1203 16.2807C55.264 16.2704 55.3769 16.2653 55.459 16.2653C55.5411 16.2653 55.5975 16.2858 55.6283 16.3269C55.6693 16.3577 55.7309 16.4346 55.813 16.5578C55.9362 16.7425 56.0593 16.9118 56.1825 17.0657L62.1088 24.3467V17.9585C62.1088 17.4249 62.0164 17.0401 61.8317 16.8041C61.6573 16.568 61.3597 16.45 60.9389 16.45C60.9184 16.45 60.9081 16.4192 60.9081 16.3577C60.9081 16.2961 60.9184 16.2653 60.9389 16.2653L61.5392 16.2807C61.8471 16.3012 62.0985 16.3115 62.2935 16.3115C62.4782 16.3115 62.7348 16.3012 63.0632 16.2807L63.6943 16.2653ZM68.0284 16.5424C67.3819 16.5424 66.8944 16.7066 66.5661 17.035C66.2479 17.3633 66.017 17.9226 65.8734 18.7128C65.8734 18.7333 65.8426 18.7436 65.781 18.7436C65.7297 18.7436 65.704 18.7333 65.704 18.7128C65.7451 18.3434 65.7913 17.8611 65.8426 17.2659C65.8939 16.6707 65.9195 16.2243 65.9195 15.9267C65.9195 15.8753 65.9452 15.8497 65.9965 15.8497C66.0581 15.8497 66.0889 15.8753 66.0889 15.9267C66.0889 16.1524 66.3659 16.2653 66.9201 16.2653C67.7924 16.2961 68.8237 16.3115 70.0141 16.3115C70.6196 16.3115 71.2609 16.3012 71.9382 16.2807L72.985 16.2653C73.3544 16.2653 73.6264 16.2396 73.8008 16.1883C73.9855 16.137 74.1035 16.0344 74.1548 15.8805C74.1651 15.8394 74.1959 15.8189 74.2472 15.8189C74.2985 15.8189 74.3242 15.8394 74.3242 15.8805C74.2934 16.1781 74.2626 16.6296 74.2318 17.2351C74.201 17.8405 74.1856 18.3331 74.1856 18.7128C74.1856 18.7333 74.1548 18.7436 74.0933 18.7436C74.0317 18.7436 74.0009 18.7333 74.0009 18.7128C73.9701 17.9124 73.8059 17.3531 73.5083 17.035C73.2107 16.7066 72.7182 16.5424 72.0306 16.5424C71.5688 16.5424 71.2404 16.5629 71.0454 16.604C70.8505 16.645 70.7171 16.7322 70.6452 16.8656C70.5734 16.999 70.5375 17.2248 70.5375 17.5429V24.6391C70.5375 24.9573 70.5734 25.1882 70.6452 25.3318C70.7171 25.4755 70.8556 25.573 71.0608 25.6243C71.2661 25.6756 71.5893 25.7013 72.0306 25.7013C72.0614 25.7013 72.0768 25.7321 72.0768 25.7936C72.0768 25.8552 72.0614 25.886 72.0306 25.886C71.692 25.886 71.42 25.8809 71.2148 25.8706L70.0141 25.8552L68.8596 25.8706C68.6544 25.8809 68.3722 25.886 68.013 25.886C67.9925 25.886 67.9822 25.8552 67.9822 25.7936C67.9822 25.7321 67.9925 25.7013 68.013 25.7013C68.4543 25.7013 68.7775 25.6756 68.9828 25.6243C69.188 25.573 69.3265 25.4755 69.3984 25.3318C69.4805 25.1779 69.5215 24.947 69.5215 24.6391V17.5121C69.5215 17.194 69.4856 16.9734 69.4138 16.8502C69.3419 16.7168 69.2085 16.6347 69.0136 16.604C68.8186 16.5629 68.4902 16.5424 68.0284 16.5424ZM83.2643 23.5924C83.2643 23.5719 83.2848 23.5616 83.3259 23.5616C83.3567 23.5616 83.3823 23.5668 83.4028 23.577C83.4336 23.5873 83.449 23.6027 83.449 23.6232C83.3567 24.2697 83.3105 24.947 83.3105 25.6551C83.3105 25.7372 83.29 25.7988 83.2489 25.8398C83.2181 25.8706 83.1566 25.886 83.0642 25.886H76.6145C76.594 25.886 76.5837 25.8552 76.5837 25.7936C76.5837 25.7321 76.594 25.7013 76.6145 25.7013C77.0045 25.7013 77.2867 25.6756 77.4611 25.6243C77.6458 25.573 77.769 25.4755 77.8305 25.3318C77.9024 25.1779 77.9383 24.947 77.9383 24.6391V17.5121C77.9383 17.2043 77.9024 16.9785 77.8305 16.8348C77.769 16.6912 77.6458 16.5937 77.4611 16.5424C77.2867 16.4808 77.0045 16.45 76.6145 16.45C76.594 16.45 76.5837 16.4192 76.5837 16.3577C76.5837 16.2961 76.594 16.2653 76.6145 16.2653H82.8025C82.8949 16.2653 82.9411 16.3115 82.9411 16.4038L82.9718 18.2972C82.9718 18.328 82.9462 18.3485 82.8949 18.3588C82.8436 18.3588 82.8128 18.3434 82.8025 18.3126C82.7717 17.7687 82.6075 17.348 82.3099 17.0504C82.0123 16.7425 81.6172 16.5886 81.1247 16.5886H80.1857C79.8265 16.5886 79.5597 16.6193 79.3853 16.6809C79.2211 16.7322 79.103 16.8297 79.0312 16.9734C78.9696 17.1068 78.9389 17.312 78.9389 17.5891V20.7139H80.8168C81.3094 20.7139 81.6583 20.6318 81.8635 20.4676C82.079 20.3034 82.1868 20.0263 82.1868 19.6364C82.1868 19.6159 82.2176 19.6056 82.2792 19.6056C82.3407 19.6056 82.3715 19.6159 82.3715 19.6364L82.3561 20.8832C82.3561 21.1808 82.3612 21.4066 82.3715 21.5605L82.3869 22.2994C82.3869 22.3199 82.3561 22.3302 82.2945 22.3302C82.233 22.3302 82.2022 22.3199 82.2022 22.2994C82.2022 21.8479 82.0893 21.5246 81.8635 21.3296C81.648 21.1347 81.2837 21.0372 80.7706 21.0372H78.9389V24.5776C78.9389 24.8649 78.9696 25.0753 79.0312 25.2087C79.0928 25.3421 79.2057 25.4345 79.3699 25.4858C79.5341 25.5371 79.7906 25.5627 80.1395 25.5627H81.371C81.8635 25.5627 82.274 25.3883 82.6024 25.0394C82.9308 24.6905 83.1514 24.2081 83.2643 23.5924ZM87.5299 18.0663C87.5299 18.4665 87.6274 18.8154 87.8223 19.113C88.0173 19.4106 88.2534 19.662 88.5304 19.8673C88.8075 20.0623 89.1975 20.3137 89.7003 20.6215C90.2339 20.9397 90.6495 21.2065 90.9471 21.422C91.2447 21.6375 91.4962 21.9146 91.7014 22.2532C91.9169 22.5816 92.0247 22.9767 92.0247 23.4385C92.0247 23.9311 91.9015 24.3775 91.6552 24.7777C91.4089 25.1779 91.0446 25.496 90.5623 25.7321C90.0903 25.9578 89.5207 26.0707 88.8537 26.0707C88.0635 26.0707 87.34 25.8911 86.6833 25.5319C86.632 25.5012 86.596 25.4652 86.5755 25.4242C86.5652 25.3831 86.555 25.3216 86.5447 25.2395L86.3446 23.146C86.3344 23.105 86.3549 23.0793 86.4062 23.0691C86.4678 23.0588 86.5037 23.0742 86.5139 23.1152C86.6781 23.8541 86.9809 24.4903 87.4221 25.024C87.8737 25.5576 88.4689 25.8244 89.2077 25.8244C89.7208 25.8244 90.1518 25.6859 90.5007 25.4088C90.8599 25.1215 91.0395 24.6699 91.0395 24.0542C91.0395 23.5924 90.9369 23.1922 90.7316 22.8535C90.5264 22.5149 90.275 22.2378 89.9774 22.0223C89.69 21.7966 89.295 21.5349 88.7921 21.2373C88.2995 20.9397 87.9096 20.6831 87.6222 20.4676C87.3452 20.2521 87.1091 19.9802 86.9142 19.6518C86.7192 19.3234 86.6217 18.9386 86.6217 18.4973C86.6217 17.9842 86.7551 17.5481 87.0219 17.1889C87.299 16.8195 87.653 16.5475 88.084 16.3731C88.5253 16.1883 88.9922 16.096 89.4848 16.096C90.0903 16.096 90.6906 16.2191 91.2858 16.4654C91.4397 16.5167 91.5167 16.604 91.5167 16.7271L91.6244 18.4973C91.6244 18.5384 91.5988 18.5589 91.5475 18.5589C91.4962 18.5589 91.4654 18.5384 91.4551 18.4973C91.373 17.9637 91.1524 17.4711 90.7932 17.0196C90.434 16.5578 89.9158 16.3269 89.2385 16.3269C88.6638 16.3269 88.2328 16.4962 87.9455 16.8348C87.6684 17.1632 87.5299 17.5737 87.5299 18.0663ZM6.09909 42.9654C5.71518 42.9654 5.27169 42.9456 4.76863 42.9058C4.58329 42.8926 4.345 42.8794 4.05375 42.8661C3.77575 42.8529 3.46464 42.8463 3.12045 42.8463L1.77013 42.8661C1.53183 42.8794 1.20087 42.886 0.777243 42.886C0.750767 42.886 0.737528 42.8463 0.737528 42.7668C0.737528 42.6874 0.750767 42.6477 0.777243 42.6477C1.2803 42.6477 1.64436 42.6146 1.86941 42.5484C2.10771 42.4822 2.26657 42.3564 2.346 42.1711C2.43867 41.9725 2.485 41.6747 2.485 41.2775V32.0834C2.485 31.6863 2.44529 31.395 2.36586 31.2097C2.28642 31.0244 2.12756 30.8986 1.88927 30.8324C1.66422 30.753 1.30016 30.7132 0.797101 30.7132C0.770624 30.7132 0.757386 30.6735 0.757386 30.5941C0.757386 30.5147 0.770624 30.475 0.797101 30.475L1.78998 30.4948C2.346 30.5213 2.78948 30.5345 3.12045 30.5345C3.62351 30.5345 4.11995 30.5147 4.60977 30.475C5.19226 30.4485 5.59603 30.4352 5.82109 30.4352C7.19788 30.4352 8.41582 30.7 9.47489 31.2295C10.534 31.7591 11.3547 32.4806 11.9372 33.394C12.533 34.3075 12.8308 35.3335 12.8308 36.472C12.8308 37.7561 12.5264 38.8946 11.9174 39.8875C11.3217 40.8671 10.5075 41.6283 9.47489 42.1711C8.44229 42.7006 7.31703 42.9654 6.09909 42.9654ZM5.90052 42.6676C6.95959 42.6676 7.89952 42.4491 8.7203 42.0122C9.54108 41.5621 10.1765 40.9068 10.6266 40.0463C11.09 39.1726 11.3217 38.1268 11.3217 36.9088C11.3217 35.7571 11.1032 34.7113 10.6664 33.7713C10.2295 32.8314 9.60728 32.09 8.79973 31.5473C7.99219 31.0045 7.05888 30.7331 5.9998 30.7331C5.43055 30.7331 4.98706 30.7662 4.66934 30.8324C4.36486 30.8986 4.1398 31.031 3.99418 31.2295C3.84856 31.4281 3.77575 31.726 3.77575 32.1231V41.0591C3.77575 41.4562 3.8287 41.7673 3.93461 41.9924C4.05375 42.2174 4.26557 42.3895 4.57005 42.5087C4.88778 42.6146 5.33126 42.6676 5.90052 42.6676ZM22.4699 43.1243C21.2387 43.1243 20.1399 42.8397 19.1735 42.2704C18.2203 41.6879 17.479 40.9068 16.9494 39.9272C16.4331 38.9343 16.175 37.8554 16.175 36.6904C16.175 35.3268 16.5192 34.1619 17.2076 33.1955C17.896 32.2158 18.7763 31.4811 19.8487 30.9913C20.9342 30.5014 22.0396 30.2565 23.1649 30.2565C24.4225 30.2565 25.5279 30.5544 26.4811 31.1501C27.4343 31.7326 28.1624 32.5071 28.6654 33.4735C29.1817 34.4399 29.4399 35.4658 29.4399 36.5514C29.4399 37.7561 29.1222 38.8615 28.4867 39.8676C27.8513 40.8737 26.9974 41.6681 25.9251 42.2505C24.866 42.833 23.7143 43.1243 22.4699 43.1243ZM23.1649 42.7073C24.0651 42.7073 24.8726 42.4888 25.5875 42.052C26.3156 41.6151 26.8849 40.973 27.2953 40.1258C27.7189 39.2785 27.9307 38.2724 27.9307 37.1074C27.9307 35.863 27.699 34.7576 27.2357 33.7912C26.7723 32.8248 26.117 32.0702 25.2698 31.5274C24.4358 30.9846 23.4561 30.7132 22.3309 30.7132C20.8746 30.7132 19.7361 31.1832 18.9153 32.1231C18.0946 33.0631 17.6842 34.3538 17.6842 35.9954C17.6842 37.2398 17.9158 38.3783 18.3792 39.4109C18.8425 40.4303 19.4912 41.2378 20.3252 41.8335C21.1593 42.416 22.1058 42.7073 23.1649 42.7073ZM51.1244 30.475C51.1642 30.475 51.184 30.5147 51.184 30.5941C51.184 30.6735 51.1642 30.7132 51.1244 30.7132C50.6743 30.7132 50.2838 30.8324 49.9528 31.0707C49.6219 31.309 49.3439 31.7128 49.1188 32.282L44.8891 42.8661C44.8759 42.9191 44.8031 42.9456 44.6707 42.9456C44.5648 42.9456 44.492 42.9191 44.4523 42.8661L39.5077 32.1231C39.2827 31.6068 39.0444 31.2428 38.7928 31.031C38.5413 30.8192 38.217 30.7132 37.8198 30.7132C37.7801 30.7132 37.7602 30.6735 37.7602 30.5941C37.7602 30.5147 37.7801 30.475 37.8198 30.475L38.5744 30.4948C38.9451 30.5213 39.2429 30.5345 39.468 30.5345C39.9975 30.5345 40.5668 30.5213 41.1758 30.4948L41.9899 30.475C42.0296 30.475 42.0495 30.5147 42.0495 30.5941C42.0495 30.6735 42.0296 30.7132 41.9899 30.7132C41.5795 30.7132 41.2684 30.7662 41.0566 30.8721C40.858 30.978 40.7587 31.1567 40.7587 31.4083C40.7587 31.5671 40.8183 31.7789 40.9375 32.0437L45.0877 41.1385L48.6621 32.1827C48.768 31.9047 48.821 31.6863 48.821 31.5274C48.821 31.2494 48.6952 31.0442 48.4437 30.9118C48.1921 30.7794 47.8016 30.7132 47.2721 30.7132C47.2323 30.7132 47.2125 30.6735 47.2125 30.5941C47.2125 30.5147 47.2323 30.475 47.2721 30.475L48.1259 30.4948C48.576 30.5213 48.9864 30.5345 49.3571 30.5345C49.6351 30.5345 49.9462 30.5213 50.2904 30.4948L51.1244 30.475ZM56.4069 41.2775C56.4069 41.6747 56.4466 41.9725 56.526 42.1711C56.6055 42.3564 56.7577 42.4822 56.9828 42.5484C57.221 42.6146 57.5917 42.6477 58.0948 42.6477C58.1345 42.6477 58.1544 42.6874 58.1544 42.7668C58.1544 42.8463 58.1345 42.886 58.0948 42.886C57.6976 42.886 57.3799 42.8794 57.1416 42.8661L55.7317 42.8463L54.3615 42.8661C54.1233 42.8794 53.7989 42.886 53.3885 42.886C53.3488 42.886 53.3289 42.8463 53.3289 42.7668C53.3289 42.6874 53.3488 42.6477 53.3885 42.6477C53.8916 42.6477 54.2556 42.6146 54.4807 42.5484C54.719 42.4822 54.8778 42.3564 54.9573 42.1711C55.0499 41.9725 55.0963 41.6747 55.0963 41.2775V32.0834C55.0963 31.6863 55.0499 31.395 54.9573 31.2097C54.8778 31.0244 54.719 30.8986 54.4807 30.8324C54.2556 30.753 53.8916 30.7132 53.3885 30.7132C53.3488 30.7132 53.3289 30.6735 53.3289 30.5941C53.3289 30.5147 53.3488 30.475 53.3885 30.475L54.3615 30.4948C54.9176 30.5213 55.3743 30.5345 55.7317 30.5345C56.1289 30.5345 56.6055 30.5213 57.1615 30.4948L58.0948 30.475C58.1345 30.475 58.1544 30.5147 58.1544 30.5941C58.1544 30.6735 58.1345 30.7132 58.0948 30.7132C57.605 30.7132 57.2409 30.753 57.0026 30.8324C56.7776 30.9118 56.6187 31.0508 56.526 31.2494C56.4466 31.4347 56.4069 31.726 56.4069 32.1231V41.2775ZM74.4184 30.475C74.4581 30.475 74.478 30.5147 74.478 30.5941C74.478 30.6735 74.4581 30.7132 74.4184 30.7132C73.8624 30.7132 73.4586 30.8655 73.2071 31.17C72.9555 31.4745 72.8298 31.9709 72.8298 32.6593V43.1243C72.8298 43.1508 72.7967 43.1706 72.7305 43.1839C72.6643 43.1971 72.618 43.1905 72.5915 43.164L63.457 32.1033L63.2782 31.9047V40.7215C63.2782 41.4099 63.3974 41.9063 63.6357 42.2108C63.8872 42.5021 64.2844 42.6477 64.8271 42.6477C64.8669 42.6477 64.8867 42.6874 64.8867 42.7668C64.8867 42.8463 64.8669 42.886 64.8271 42.886C64.4962 42.886 64.2447 42.8794 64.0726 42.8661L63.0797 42.8463L62.0669 42.8661C61.8816 42.8794 61.6102 42.886 61.2528 42.886C61.2263 42.886 61.2131 42.8463 61.2131 42.7668C61.2131 42.6874 61.2263 42.6477 61.2528 42.6477C61.822 42.6477 62.2258 42.5021 62.4641 42.2108C62.7024 41.9063 62.8215 41.4099 62.8215 40.7215V31.4281C62.3052 30.9515 61.7823 30.7132 61.2528 30.7132C61.2131 30.7132 61.1932 30.6735 61.1932 30.5941C61.1932 30.5147 61.2131 30.475 61.2528 30.475L61.9875 30.4948C62.1464 30.5081 62.3648 30.5147 62.6428 30.5147C62.9341 30.5147 63.1723 30.5081 63.3577 30.4948C63.543 30.4816 63.6886 30.475 63.7945 30.475C63.9005 30.475 63.9733 30.5014 64.013 30.5544C64.0659 30.5941 64.1454 30.6934 64.2513 30.8523C64.4101 31.0905 64.569 31.309 64.7279 31.5076L72.3731 40.9002V32.6593C72.3731 31.9709 72.2539 31.4745 72.0156 31.17C71.7906 30.8655 71.4066 30.7132 70.8639 30.7132C70.8374 30.7132 70.8242 30.6735 70.8242 30.5941C70.8242 30.5147 70.8374 30.475 70.8639 30.475L71.6383 30.4948C72.0355 30.5213 72.3598 30.5345 72.6113 30.5345C72.8496 30.5345 73.1806 30.5213 73.6042 30.4948L74.4184 30.475ZM90.5937 42.6477C90.6334 42.6477 90.6533 42.6874 90.6533 42.7668C90.6533 42.8463 90.6334 42.886 90.5937 42.886C90.1833 42.886 89.859 42.8794 89.6207 42.8661L88.2505 42.8463L86.8009 42.8661C86.5626 42.8794 86.2449 42.886 85.8477 42.886C85.808 42.886 85.7881 42.8463 85.7881 42.7668C85.7881 42.6874 85.808 42.6477 85.8477 42.6477C86.364 42.6477 86.7413 42.6146 86.9796 42.5484C87.2179 42.4822 87.3768 42.3564 87.4562 42.1711C87.5489 41.9725 87.5952 41.6747 87.5952 41.2775V36.6308H79.9698V41.2775C79.9698 41.6747 80.0096 41.9725 80.089 42.1711C80.1817 42.3564 80.3471 42.4822 80.5854 42.5484C80.8237 42.6146 81.201 42.6477 81.7173 42.6477C81.7438 42.6477 81.757 42.6874 81.757 42.7668C81.757 42.8463 81.7438 42.886 81.7173 42.886C81.3069 42.886 80.9826 42.8794 80.7443 42.8661L79.3145 42.8463L77.9444 42.8661C77.7061 42.8794 77.3751 42.886 76.9515 42.886C76.925 42.886 76.9118 42.8463 76.9118 42.7668C76.9118 42.6874 76.925 42.6477 76.9515 42.6477C77.4545 42.6477 77.8252 42.6146 78.0635 42.5484C78.315 42.4822 78.4805 42.3564 78.56 42.1711C78.6526 41.9725 78.699 41.6747 78.699 41.2775V32.0834C78.699 31.6863 78.6526 31.395 78.56 31.2097C78.4805 31.0244 78.3217 30.8986 78.0834 30.8324C77.8451 30.753 77.4744 30.7132 76.9713 30.7132C76.9449 30.7132 76.9316 30.6735 76.9316 30.5941C76.9316 30.5147 76.9449 30.475 76.9713 30.475L77.9841 30.4948C78.5401 30.5213 78.9836 30.5345 79.3145 30.5345C79.6985 30.5345 80.1817 30.5213 80.7642 30.4948L81.7173 30.475C81.7438 30.475 81.757 30.5147 81.757 30.5941C81.757 30.6735 81.7438 30.7132 81.7173 30.7132C81.2143 30.7132 80.837 30.753 80.5854 30.8324C80.3471 30.9118 80.1817 31.0508 80.089 31.2494C80.0096 31.4347 79.9698 31.726 79.9698 32.1231V36.2138H87.5952V32.1231C87.5952 31.726 87.5489 31.4347 87.4562 31.2494C87.3768 31.0508 87.2179 30.9118 86.9796 30.8324C86.7413 30.753 86.364 30.7132 85.8477 30.7132C85.808 30.7132 85.7881 30.6735 85.7881 30.5941C85.7881 30.5147 85.808 30.475 85.8477 30.475L86.8009 30.4948C87.3834 30.5213 87.8666 30.5345 88.2505 30.5345C88.6079 30.5345 89.0647 30.5213 89.6207 30.4948L90.5937 30.475C90.6334 30.475 90.6533 30.5147 90.6533 30.5941C90.6533 30.6735 90.6334 30.7132 90.5937 30.7132C90.0906 30.7132 89.72 30.753 89.4817 30.8324C89.2434 30.8986 89.0779 31.0244 88.9852 31.2097C88.9058 31.395 88.8661 31.6863 88.8661 32.0834V41.2775C88.8661 41.6747 88.9058 41.9725 88.9852 42.1711C89.0779 42.3564 89.2434 42.4822 89.4817 42.5484C89.72 42.6146 90.0906 42.6477 90.5937 42.6477ZM99.9822 43.1243C98.751 43.1243 97.6522 42.8397 96.6858 42.2704C95.7326 41.6879 94.9913 40.9068 94.4617 39.9272C93.9454 38.9343 93.6873 37.8554 93.6873 36.6904C93.6873 35.3268 94.0315 34.1619 94.7199 33.1955C95.4083 32.2158 96.2886 31.4811 97.361 30.9913C98.4465 30.5014 99.5519 30.2565 100.677 30.2565C101.935 30.2565 103.04 30.5544 103.993 31.1501C104.947 31.7326 105.675 32.5071 106.178 33.4735C106.694 34.4399 106.952 35.4658 106.952 36.5514C106.952 37.7561 106.634 38.8615 105.999 39.8676C105.364 40.8737 104.51 41.6681 103.437 42.2505C102.378 42.833 101.227 43.1243 99.9822 43.1243ZM100.677 42.7073C101.577 42.7073 102.385 42.4888 103.1 42.052C103.828 41.6151 104.397 40.973 104.808 40.1258C105.231 39.2785 105.443 38.2724 105.443 37.1074C105.443 35.863 105.211 34.7576 104.748 33.7912C104.285 32.8248 103.629 32.0702 102.782 31.5274C101.948 30.9846 100.968 30.7132 99.8432 30.7132C98.3869 30.7132 97.2484 31.1832 96.4276 32.1231C95.6069 33.0631 95.1965 34.3538 95.1965 35.9954C95.1965 37.2398 95.4281 38.3783 95.8915 39.4109C96.3548 40.4303 97.0035 41.2378 97.8375 41.8335C98.6716 42.416 99.6181 42.7073 100.677 42.7073Z" fill="#D9A863"/>
<path d="M33.7973 2.52413C33.7973 2.2307 33.8477 1.94184 33.9486 1.65758C34.0541 1.36873 34.2054 1.10739 34.4025 0.873554C34.5997 0.635137 34.8404 0.444862 35.1247 0.302729C35.4135 0.160596 35.7413 0.089529 36.1081 0.089529C36.5437 0.089529 36.9151 0.190398 37.2223 0.392135C37.5295 0.589288 37.7587 0.843752 37.91 1.15553L37.6212 1.32059C37.5065 1.09592 37.3644 0.917111 37.1948 0.784147C37.0297 0.651184 36.8509 0.557193 36.6583 0.502174C36.4658 0.442569 36.2732 0.412767 36.0806 0.412767C35.7734 0.412767 35.4983 0.474664 35.2553 0.598457C35.0169 0.722251 34.8152 0.887309 34.6501 1.09363C34.4851 1.29995 34.359 1.5292 34.2719 1.78137C34.1893 2.03354 34.1481 2.28801 34.1481 2.54476C34.1481 2.83362 34.1985 3.10871 34.2994 3.37005C34.4002 3.62681 34.5378 3.85606 34.712 4.05779C34.8908 4.25953 35.0971 4.42001 35.331 4.53921C35.5694 4.65842 35.8262 4.71803 36.1012 4.71803C36.2984 4.71803 36.4978 4.68593 36.6996 4.62174C36.9059 4.55297 37.0985 4.44981 37.2773 4.31226C37.4561 4.17013 37.6005 3.98673 37.7106 3.76207L38.0132 3.90649C37.9077 4.14949 37.7495 4.35582 37.5386 4.52546C37.3277 4.6951 37.0939 4.82348 36.8371 4.91059C36.5804 4.99771 36.3259 5.04126 36.0737 5.04126C35.7436 5.04126 35.4387 4.9702 35.159 4.82806C34.8794 4.68135 34.6364 4.48878 34.43 4.25036C34.2283 4.00736 34.0724 3.73685 33.9624 3.43883C33.8523 3.13622 33.7973 2.83132 33.7973 2.52413ZM44.2883 5.03439C43.8986 5.03439 43.5731 4.96561 43.3117 4.82806C43.0504 4.69052 42.8418 4.50483 42.6859 4.27099C42.53 4.03258 42.4177 3.76665 42.3489 3.47321C42.2801 3.17978 42.2457 2.87947 42.2457 2.57227V0.117039H42.5965V2.57227C42.5965 2.8382 42.624 3.09954 42.679 3.3563C42.734 3.61306 42.8234 3.8446 42.9472 4.05092C43.0756 4.25265 43.2475 4.41313 43.463 4.53234C43.6831 4.65154 43.9559 4.71115 44.2814 4.71115C44.6116 4.71115 44.8844 4.64925 45.0999 4.52546C45.3199 4.40167 45.4919 4.2389 45.6157 4.03716C45.744 3.83084 45.8334 3.60159 45.8839 3.34942C45.9389 3.09266 45.9664 2.83362 45.9664 2.57227V0.117039H46.3172V2.57227C46.3172 2.8978 46.2805 3.20958 46.2071 3.5076C46.1383 3.80104 46.0237 4.06238 45.8632 4.29163C45.7028 4.52087 45.4942 4.70198 45.2374 4.83494C44.9806 4.96791 44.6643 5.03439 44.2883 5.03439ZM50.9584 5V0.117039H52.9873C53.1982 0.117039 53.3885 0.160596 53.5581 0.247709C53.7323 0.334823 53.8813 0.451739 54.0051 0.598457C54.1335 0.740591 54.2321 0.901063 54.3009 1.07988C54.3742 1.25869 54.4109 1.44209 54.4109 1.63007C54.4109 1.87307 54.3628 2.10003 54.2665 2.31093C54.1702 2.52184 54.0349 2.69836 53.8607 2.84049C53.6911 2.98263 53.4916 3.06974 53.2624 3.10183L54.4797 5H54.0739L52.891 3.15685H51.3092V5H50.9584ZM51.3092 2.83362H53.0217C53.2326 2.83362 53.416 2.7763 53.5719 2.66168C53.7277 2.54706 53.847 2.39805 53.9295 2.21465C54.0166 2.03125 54.0602 1.83639 54.0602 1.63007C54.0602 1.41916 54.0097 1.2243 53.9089 1.04549C53.8126 0.862092 53.6819 0.715373 53.5168 0.605335C53.3564 0.490711 53.1753 0.4334 52.9735 0.4334H51.3092V2.83362ZM61.7038 0.928573C61.6259 0.841459 61.5387 0.765808 61.4425 0.701619C61.3462 0.632844 61.243 0.577825 61.133 0.536561C61.0229 0.490711 60.9037 0.456324 60.7754 0.4334C60.647 0.410475 60.5094 0.399013 60.3627 0.399013C59.8859 0.399013 59.5374 0.490711 59.3173 0.674109C59.1018 0.852922 58.9941 1.09592 58.9941 1.40311C58.9941 1.60944 59.0422 1.77449 59.1385 1.89829C59.2394 2.0175 59.3953 2.11378 59.6062 2.18714C59.8171 2.2605 60.0899 2.33156 60.4246 2.40034C60.7776 2.4737 61.0825 2.56081 61.3393 2.66168C61.5961 2.75796 61.7932 2.89093 61.9308 3.06057C62.0729 3.23021 62.144 3.45946 62.144 3.74831C62.144 3.9638 62.1027 4.15408 62.0202 4.31914C61.9376 4.47961 61.8184 4.61257 61.6625 4.71803C61.5067 4.82348 61.321 4.90372 61.1055 4.95874C60.8946 5.01375 60.6584 5.04126 60.3971 5.04126C60.1449 5.04126 59.9042 5.01375 59.675 4.95874C59.4457 4.90372 59.2302 4.82348 59.0285 4.71803C58.8268 4.61257 58.6388 4.47732 58.4645 4.31226L58.6502 4.03029C58.7511 4.14032 58.8634 4.2389 58.9872 4.32601C59.1156 4.40854 59.2532 4.47961 59.3999 4.53921C59.5512 4.59882 59.7116 4.64696 59.8813 4.68364C60.0509 4.71573 60.2275 4.73178 60.4108 4.73178C60.8372 4.73178 61.1697 4.65384 61.4081 4.49795C61.6511 4.33748 61.7726 4.10135 61.7726 3.78958C61.7726 3.57408 61.7176 3.39986 61.6075 3.26689C61.4975 3.13393 61.3278 3.02618 61.0986 2.94365C60.8693 2.85654 60.5828 2.7763 60.2389 2.70294C59.895 2.62959 59.6016 2.54706 59.3586 2.45536C59.1202 2.36366 58.9391 2.23987 58.8153 2.08398C58.6961 1.92809 58.6365 1.71718 58.6365 1.45126C58.6365 1.15782 58.7075 0.910233 58.8497 0.708496C58.9964 0.502174 59.2004 0.346286 59.4618 0.240832C59.7231 0.135378 60.0234 0.0826517 60.3627 0.0826517C60.5736 0.0826517 60.7685 0.103284 60.9473 0.144548C61.1307 0.185813 61.298 0.250002 61.4493 0.337116C61.6052 0.419645 61.7497 0.525098 61.8826 0.653477L61.7038 0.928573ZM68.4125 5.03439C68.0732 5.03439 67.7637 4.96561 67.4841 4.82806C67.2044 4.68593 66.9637 4.49795 66.7619 4.26412C66.5602 4.03029 66.4043 3.76665 66.2943 3.47321C66.1842 3.17519 66.1292 2.8703 66.1292 2.55852C66.1292 2.23299 66.1865 1.92351 66.3011 1.63007C66.4158 1.33205 66.5762 1.06841 66.7826 0.839167C66.9935 0.605335 67.2365 0.421937 67.5116 0.288974C67.7912 0.151426 68.0938 0.0826517 68.4194 0.0826517C68.7632 0.0826517 69.0727 0.153718 69.3478 0.295851C69.6275 0.437984 69.8682 0.628259 70.07 0.866677C70.2717 1.10509 70.4276 1.37102 70.5376 1.66446C70.6477 1.95789 70.7027 2.25591 70.7027 2.55852C70.7027 2.88864 70.6454 3.2027 70.5307 3.50072C70.4161 3.79416 70.2534 4.05779 70.0424 4.29163C69.8361 4.52087 69.5931 4.70198 69.3134 4.83494C69.0383 4.96791 68.738 5.03439 68.4125 5.03439ZM66.4799 2.55852C66.4799 2.8382 66.5281 3.10642 66.6244 3.36318C66.7207 3.61993 66.8536 3.84918 67.0233 4.05092C67.1975 4.25265 67.4015 4.41313 67.6354 4.53234C67.8738 4.65154 68.1351 4.71115 68.4194 4.71115C68.7082 4.71115 68.9719 4.64925 69.2103 4.52546C69.4487 4.40167 69.6527 4.23661 69.8224 4.03029C69.992 3.82396 70.1204 3.59472 70.2075 3.34254C70.2992 3.08579 70.3451 2.82445 70.3451 2.55852C70.3451 2.27884 70.2969 2.01062 70.2006 1.75386C70.1089 1.49711 69.976 1.26786 69.8017 1.06612C69.6275 0.864384 69.4212 0.703911 69.1828 0.584703C68.9489 0.465494 68.6945 0.40589 68.4194 0.40589C68.1259 0.40589 67.86 0.467787 67.6216 0.59158C67.3832 0.715373 67.1792 0.880431 67.0095 1.08675C66.8445 1.29308 66.7138 1.52462 66.6175 1.78137C66.5258 2.03354 66.4799 2.29259 66.4799 2.55852Z" fill="white"/>
</svg>
