<svg width="186" height="31" viewBox="0 0 186 31" fill="none" xmlns="http://www.w3.org/2000/svg">
<path d="M14.8772 17.4353C14.9008 17.4353 14.9126 17.4529 14.9126 17.4883C14.9126 17.5236 14.9008 17.5413 14.8772 17.5413C14.7654 17.5413 14.5917 17.5354 14.3561 17.5236C14.1206 17.5118 13.9499 17.5059 13.8439 17.5059C13.7143 17.5059 13.5495 17.5118 13.3493 17.5236C13.1609 17.5354 13.0166 17.5413 12.9165 17.5413C12.8929 17.5413 12.8812 17.5236 12.8812 17.4883C12.8812 17.4529 12.8929 17.4353 12.9165 17.4353C13.1344 17.4353 13.2933 17.4147 13.3934 17.3734C13.4935 17.3322 13.5436 17.2616 13.5436 17.1615C13.5436 17.079 13.5053 16.9524 13.4288 16.7817L12.4131 14.6178H10.7438L9.98421 16.4196C9.90178 16.6198 9.86056 16.7846 9.86056 16.9142C9.86056 17.2616 10.1491 17.4353 10.7261 17.4353C10.7556 17.4353 10.7703 17.4529 10.7703 17.4883C10.7703 17.5236 10.7556 17.5413 10.7261 17.5413C10.6201 17.5413 10.467 17.5354 10.2668 17.5236C10.0431 17.5118 9.84879 17.5059 9.68392 17.5059C9.53083 17.5059 9.35418 17.5118 9.15399 17.5236C8.97734 17.5354 8.83014 17.5413 8.71238 17.5413C8.68294 17.5413 8.66822 17.5236 8.66822 17.4883C8.66822 17.4529 8.68294 17.4353 8.71238 17.4353C8.87724 17.4353 9.01562 17.4058 9.12749 17.347C9.24525 17.2822 9.35418 17.1733 9.45428 17.0202C9.56027 16.8612 9.67509 16.6345 9.79874 16.3401L11.6623 11.9416C11.6741 11.924 11.6947 11.9152 11.7242 11.9152C11.7536 11.9152 11.7713 11.924 11.7771 11.9416L13.8615 16.3312C14.0617 16.767 14.2325 17.0614 14.3738 17.2145C14.5151 17.3617 14.6829 17.4353 14.8772 17.4353ZM10.8233 14.4323H12.3247L11.5298 12.7542L10.8233 14.4323ZM22.695 17.4353C22.7127 17.4353 22.7215 17.4529 22.7215 17.4883C22.7215 17.5236 22.7127 17.5413 22.695 17.5413C22.5125 17.5413 22.3683 17.5383 22.2623 17.5324L21.6528 17.5236L21.0876 17.5324C20.9934 17.5383 20.8609 17.5413 20.6901 17.5413C20.6784 17.5413 20.6725 17.5236 20.6725 17.4883C20.6725 17.4529 20.6784 17.4353 20.6901 17.4353C20.8903 17.4353 21.0375 17.4206 21.1318 17.3911C21.2318 17.3558 21.2966 17.2969 21.3261 17.2145C21.3614 17.132 21.3732 17.0025 21.3614 16.8259L21.2024 12.8072L19.1887 17.4794C19.1769 17.503 19.1533 17.5148 19.118 17.5148C19.0886 17.5148 19.0621 17.503 19.0385 17.4794L16.8658 12.8602L16.7863 16.5786C16.7804 16.8906 16.8334 17.1114 16.9453 17.241C17.0572 17.3705 17.2544 17.4353 17.537 17.4353C17.5488 17.4353 17.5547 17.4529 17.5547 17.4883C17.5547 17.5236 17.5488 17.5413 17.537 17.5413C17.3722 17.5413 17.2456 17.5383 17.1573 17.5324L16.6803 17.5236L16.2211 17.5324C16.1386 17.5383 16.0209 17.5413 15.8678 17.5413C15.856 17.5413 15.8501 17.5236 15.8501 17.4883C15.8501 17.4529 15.856 17.4353 15.8678 17.4353C16.1151 17.4353 16.2917 17.3705 16.3977 17.241C16.5096 17.1055 16.5685 16.8847 16.5743 16.5786L16.6538 12.4804C16.4772 12.2449 16.2358 12.1271 15.9296 12.1271C15.9178 12.1271 15.9119 12.1095 15.9119 12.0741C15.9119 12.0388 15.9178 12.0211 15.9296 12.0211L16.2564 12.03C16.3153 12.0359 16.3977 12.0388 16.5037 12.0388C16.6097 12.0388 16.698 12.0359 16.7686 12.03C16.8452 12.0241 16.9041 12.0211 16.9453 12.0211C17.0218 12.0211 17.0837 12.0506 17.1308 12.1095C17.1838 12.1625 17.2574 12.2861 17.3516 12.4804L19.3212 16.6315L21.2466 12.2419C21.3113 12.0947 21.3997 12.0211 21.5115 12.0211C21.541 12.0211 21.5822 12.0241 21.6352 12.03C21.6941 12.0359 21.7706 12.0388 21.8648 12.0388L22.2799 12.03C22.3447 12.0241 22.4419 12.0211 22.5714 12.0211C22.5891 12.0211 22.5979 12.0388 22.5979 12.0741C22.5979 12.1095 22.5891 12.1271 22.5714 12.1271C22.277 12.1271 22.065 12.1713 21.9355 12.2596C21.8118 12.342 21.7529 12.501 21.7588 12.7365L21.9355 16.8259C21.9414 17.0084 21.962 17.1409 21.9973 17.2233C22.0385 17.3057 22.1092 17.3617 22.2093 17.3911C22.3094 17.4206 22.4713 17.4353 22.695 17.4353ZM29.6984 17.4353C29.722 17.4353 29.7338 17.4529 29.7338 17.4883C29.7338 17.5236 29.722 17.5413 29.6984 17.5413C29.5866 17.5413 29.4129 17.5354 29.1773 17.5236C28.9418 17.5118 28.771 17.5059 28.6651 17.5059C28.5355 17.5059 28.3707 17.5118 28.1705 17.5236C27.982 17.5354 27.8378 17.5413 27.7377 17.5413C27.7141 17.5413 27.7024 17.5236 27.7024 17.4883C27.7024 17.4529 27.7141 17.4353 27.7377 17.4353C27.9555 17.4353 28.1145 17.4147 28.2146 17.3734C28.3147 17.3322 28.3648 17.2616 28.3648 17.1615C28.3648 17.079 28.3265 16.9524 28.2499 16.7817L27.2342 14.6178H25.565L24.8054 16.4196C24.723 16.6198 24.6817 16.7846 24.6817 16.9142C24.6817 17.2616 24.9703 17.4353 25.5473 17.4353C25.5767 17.4353 25.5915 17.4529 25.5915 17.4883C25.5915 17.5236 25.5767 17.5413 25.5473 17.5413C25.4413 17.5413 25.2882 17.5354 25.088 17.5236C24.8643 17.5118 24.67 17.5059 24.5051 17.5059C24.352 17.5059 24.1754 17.5118 23.9752 17.5236C23.7985 17.5354 23.6513 17.5413 23.5336 17.5413C23.5041 17.5413 23.4894 17.5236 23.4894 17.4883C23.4894 17.4529 23.5041 17.4353 23.5336 17.4353C23.6984 17.4353 23.8368 17.4058 23.9487 17.347C24.0664 17.2822 24.1754 17.1733 24.2755 17.0202C24.3814 16.8612 24.4963 16.6345 24.6199 16.3401L26.4835 11.9416C26.4953 11.924 26.5159 11.9152 26.5453 11.9152C26.5748 11.9152 26.5924 11.924 26.5983 11.9416L28.6827 16.3312C28.8829 16.767 29.0537 17.0614 29.195 17.2145C29.3363 17.3617 29.5041 17.4353 29.6984 17.4353ZM25.6444 14.4323H27.1459L26.351 12.7542L25.6444 14.4323ZM36.5624 12.0211C36.58 12.0211 36.5888 12.0388 36.5888 12.0741C36.5888 12.1095 36.58 12.1271 36.5624 12.1271C36.315 12.1271 36.1355 12.1948 36.0236 12.3303C35.9117 12.4657 35.8558 12.6865 35.8558 12.9927V17.6472C35.8558 17.659 35.8411 17.6679 35.8116 17.6737C35.7822 17.6796 35.7616 17.6767 35.7498 17.6649L31.687 12.7454L31.6075 12.6571V16.5786C31.6075 16.8847 31.6605 17.1055 31.7665 17.241C31.8783 17.3705 32.055 17.4353 32.2964 17.4353C32.3141 17.4353 32.3229 17.4529 32.3229 17.4883C32.3229 17.5236 32.3141 17.5413 32.2964 17.5413C32.1492 17.5413 32.0373 17.5383 31.9608 17.5324L31.5192 17.5236L31.0687 17.5324C30.9863 17.5383 30.8656 17.5413 30.7066 17.5413C30.6948 17.5413 30.6889 17.5236 30.6889 17.4883C30.6889 17.4529 30.6948 17.4353 30.7066 17.4353C30.9598 17.4353 31.1394 17.3705 31.2454 17.241C31.3514 17.1055 31.4043 16.8847 31.4043 16.5786V12.4451C31.1747 12.2331 30.9421 12.1271 30.7066 12.1271C30.6889 12.1271 30.6801 12.1095 30.6801 12.0741C30.6801 12.0388 30.6889 12.0211 30.7066 12.0211L31.0334 12.03C31.1041 12.0359 31.2012 12.0388 31.3249 12.0388C31.4544 12.0388 31.5604 12.0359 31.6428 12.03C31.7253 12.0241 31.79 12.0211 31.8371 12.0211C31.8842 12.0211 31.9166 12.0329 31.9343 12.0565C31.9578 12.0741 31.9932 12.1183 32.0403 12.189C32.1109 12.2949 32.1816 12.3921 32.2522 12.4804L35.6526 16.658V12.9927C35.6526 12.6865 35.5996 12.4657 35.4937 12.3303C35.3936 12.1948 35.2228 12.1271 34.9814 12.1271C34.9696 12.1271 34.9637 12.1095 34.9637 12.0741C34.9637 12.0388 34.9696 12.0211 34.9814 12.0211L35.3258 12.03C35.5025 12.0417 35.6467 12.0476 35.7586 12.0476C35.8646 12.0476 36.0118 12.0417 36.2002 12.03L36.5624 12.0211ZM39.0492 12.1801C38.6782 12.1801 38.3985 12.2743 38.2101 12.4627C38.0276 12.6512 37.8951 12.9721 37.8127 13.4255C37.8127 13.4372 37.795 13.4431 37.7597 13.4431C37.7302 13.4431 37.7155 13.4372 37.7155 13.4255C37.7391 13.2135 37.7656 12.9367 37.795 12.5952C37.8244 12.2537 37.8392 11.9976 37.8392 11.8268C37.8392 11.7974 37.8539 11.7827 37.8833 11.7827C37.9186 11.7827 37.9363 11.7974 37.9363 11.8268C37.9363 11.9564 38.0953 12.0211 38.4132 12.0211C38.9137 12.0388 39.5055 12.0476 40.1885 12.0476C40.5359 12.0476 40.9039 12.0417 41.2925 12.03L41.8931 12.0211C42.1051 12.0211 42.2611 12.0064 42.3612 11.977C42.4672 11.9475 42.5349 11.8887 42.5644 11.8003C42.5703 11.7768 42.5879 11.765 42.6174 11.765C42.6468 11.765 42.6615 11.7768 42.6615 11.8003C42.6439 11.9711 42.6262 12.2302 42.6085 12.5776C42.5909 12.925 42.582 13.2076 42.582 13.4255C42.582 13.4372 42.5644 13.4431 42.529 13.4431C42.4937 13.4431 42.4761 13.4372 42.4761 13.4255C42.4584 12.9662 42.3642 12.6453 42.1934 12.4627C42.0227 12.2743 41.74 12.1801 41.3455 12.1801C41.0806 12.1801 40.8921 12.1919 40.7803 12.2154C40.6684 12.239 40.5919 12.289 40.5506 12.3656C40.5094 12.4421 40.4888 12.5717 40.4888 12.7542V16.8259C40.4888 17.0084 40.5094 17.1409 40.5506 17.2233C40.5919 17.3057 40.6713 17.3617 40.7891 17.3911C40.9069 17.4206 41.0923 17.4353 41.3455 17.4353C41.3632 17.4353 41.372 17.4529 41.372 17.4883C41.372 17.5236 41.3632 17.5413 41.3455 17.5413C41.1512 17.5413 40.9952 17.5383 40.8774 17.5324L40.1885 17.5236L39.5261 17.5324C39.4083 17.5383 39.2464 17.5413 39.0403 17.5413C39.0286 17.5413 39.0227 17.5236 39.0227 17.4883C39.0227 17.4529 39.0286 17.4353 39.0403 17.4353C39.2935 17.4353 39.479 17.4206 39.5968 17.3911C39.7145 17.3617 39.794 17.3057 39.8352 17.2233C39.8823 17.135 39.9059 17.0025 39.9059 16.8259V12.7365C39.9059 12.554 39.8853 12.4274 39.8441 12.3568C39.8028 12.2802 39.7263 12.2331 39.6144 12.2154C39.5025 12.1919 39.3141 12.1801 39.0492 12.1801ZM47.7912 16.2253C47.7912 16.2135 47.8029 16.2076 47.8265 16.2076C47.8442 16.2076 47.8589 16.2105 47.8707 16.2164C47.8883 16.2223 47.8972 16.2312 47.8972 16.2429C47.8442 16.6139 47.8177 17.0025 47.8177 17.4088C47.8177 17.4559 47.8059 17.4912 47.7823 17.5148C47.7647 17.5324 47.7293 17.5413 47.6764 17.5413H43.9757C43.9639 17.5413 43.958 17.5236 43.958 17.4883C43.958 17.4529 43.9639 17.4353 43.9757 17.4353C44.1994 17.4353 44.3613 17.4206 44.4614 17.3911C44.5674 17.3617 44.6381 17.3057 44.6734 17.2233C44.7146 17.135 44.7352 17.0025 44.7352 16.8259V12.7365C44.7352 12.5599 44.7146 12.4304 44.6734 12.3479C44.6381 12.2655 44.5674 12.2096 44.4614 12.1801C44.3613 12.1448 44.1994 12.1271 43.9757 12.1271C43.9639 12.1271 43.958 12.1095 43.958 12.0741C43.958 12.0388 43.9639 12.0211 43.9757 12.0211H47.5262C47.5792 12.0211 47.6057 12.0476 47.6057 12.1006L47.6234 13.187C47.6234 13.2047 47.6086 13.2164 47.5792 13.2223C47.5498 13.2223 47.5321 13.2135 47.5262 13.1958C47.5085 12.8838 47.4143 12.6423 47.2436 12.4716C47.0728 12.2949 46.8461 12.2066 46.5635 12.2066H46.0247C45.8186 12.2066 45.6656 12.2243 45.5655 12.2596C45.4712 12.289 45.4035 12.345 45.3623 12.4274C45.327 12.504 45.3093 12.6217 45.3093 12.7807V14.5736H46.3869C46.6695 14.5736 46.8697 14.5265 46.9874 14.4323C47.1111 14.3381 47.1729 14.1791 47.1729 13.9554C47.1729 13.9436 47.1906 13.9377 47.2259 13.9377C47.2612 13.9377 47.2789 13.9436 47.2789 13.9554L47.2701 14.6708C47.2701 14.8416 47.273 14.9711 47.2789 15.0594L47.2877 15.4834C47.2877 15.4951 47.2701 15.501 47.2347 15.501C47.1994 15.501 47.1817 15.4951 47.1817 15.4834C47.1817 15.2243 47.117 15.0388 46.9874 14.9269C46.8638 14.8151 46.6548 14.7591 46.3604 14.7591H45.3093V16.7905C45.3093 16.9554 45.327 17.0761 45.3623 17.1526C45.3976 17.2292 45.4624 17.2822 45.5566 17.3116C45.6508 17.3411 45.798 17.3558 45.9982 17.3558H46.7048C46.9874 17.3558 47.223 17.2557 47.4114 17.0555C47.5998 16.8553 47.7264 16.5786 47.7912 16.2253ZM50.2387 13.0545C50.2387 13.2841 50.2946 13.4843 50.4065 13.6551C50.5183 13.8259 50.6538 13.9701 50.8127 14.0879C50.9717 14.1997 51.1955 14.344 51.484 14.5206C51.7902 14.7032 52.0286 14.8563 52.1994 14.9799C52.3702 15.1036 52.5144 15.2626 52.6322 15.4569C52.7558 15.6453 52.8177 15.872 52.8177 16.1369C52.8177 16.4196 52.747 16.6757 52.6057 16.9053C52.4644 17.135 52.2553 17.3175 51.9786 17.4529C51.7077 17.5825 51.3809 17.6472 50.9982 17.6472C50.5448 17.6472 50.1297 17.5442 49.7529 17.3381C49.7234 17.3205 49.7028 17.2998 49.6911 17.2763C49.6852 17.2527 49.6793 17.2174 49.6734 17.1703L49.5586 15.9691C49.5527 15.9456 49.5645 15.9309 49.5939 15.925C49.6292 15.9191 49.6498 15.9279 49.6557 15.9515C49.7499 16.3754 49.9236 16.7405 50.1768 17.0467C50.4359 17.3528 50.7774 17.5059 51.2014 17.5059C51.4958 17.5059 51.7431 17.4264 51.9433 17.2675C52.1494 17.1026 52.2524 16.8435 52.2524 16.4902C52.2524 16.2253 52.1935 15.9956 52.0757 15.8013C51.958 15.607 51.8137 15.448 51.643 15.3244C51.4781 15.1948 51.2514 15.0447 50.9629 14.8739C50.6803 14.7032 50.4565 14.556 50.2916 14.4323C50.1327 14.3087 49.9972 14.1526 49.8854 13.9642C49.7735 13.7758 49.7176 13.555 49.7176 13.3018C49.7176 13.0074 49.7941 12.7572 49.9472 12.5511C50.1062 12.3391 50.3093 12.1831 50.5566 12.083C50.8098 11.977 51.0777 11.924 51.3603 11.924C51.7077 11.924 52.0522 11.9946 52.3937 12.136C52.482 12.1654 52.5262 12.2154 52.5262 12.2861L52.588 13.3018C52.588 13.3254 52.5733 13.3371 52.5439 13.3371C52.5144 13.3371 52.4968 13.3254 52.4909 13.3018C52.4438 12.9956 52.3172 12.713 52.1111 12.4539C51.905 12.189 51.6076 12.0565 51.219 12.0565C50.8893 12.0565 50.642 12.1536 50.4771 12.3479C50.3181 12.5364 50.2387 12.7719 50.2387 13.0545ZM3.51559 27.5868C3.29531 27.5868 3.04085 27.5754 2.7522 27.5527C2.64586 27.5451 2.50913 27.5375 2.34202 27.5299C2.18251 27.5223 2.00401 27.5185 1.80651 27.5185L1.03173 27.5299C0.895004 27.5375 0.705107 27.5413 0.462038 27.5413C0.446846 27.5413 0.43925 27.5185 0.43925 27.4729C0.43925 27.4273 0.446846 27.4045 0.462038 27.4045C0.750682 27.4045 0.95957 27.3855 1.0887 27.3476C1.22543 27.3096 1.31658 27.2374 1.36215 27.1311C1.41532 27.0171 1.44191 26.8462 1.44191 26.6184V21.343C1.44191 21.1151 1.41912 20.948 1.37355 20.8417C1.32797 20.7353 1.23682 20.6632 1.10009 20.6252C0.970963 20.5796 0.762076 20.5568 0.473432 20.5568C0.45824 20.5568 0.450644 20.534 0.450644 20.4885C0.450644 20.4429 0.45824 20.4201 0.473432 20.4201L1.04312 20.4315C1.36215 20.4467 1.61661 20.4543 1.80651 20.4543C2.09516 20.4543 2.38 20.4429 2.66105 20.4201C2.99527 20.4049 3.22695 20.3973 3.35608 20.3973C4.14605 20.3973 4.84487 20.5492 5.45254 20.8531C6.06022 21.1569 6.53116 21.5709 6.86538 22.095C7.2072 22.6191 7.3781 23.2078 7.3781 23.861C7.3781 24.5978 7.2034 25.2511 6.85399 25.8208C6.51217 26.3829 6.04502 26.8196 5.45254 27.1311C4.86006 27.4349 4.21441 27.5868 3.51559 27.5868ZM3.40165 27.4159C4.00932 27.4159 4.54863 27.2906 5.01958 27.0399C5.49052 26.7817 5.85513 26.4057 6.11339 25.9119C6.37924 25.4106 6.51217 24.8105 6.51217 24.1117C6.51217 23.4509 6.38684 22.8508 6.13618 22.3115C5.88551 21.7722 5.5285 21.3468 5.06515 21.0354C4.6018 20.7239 4.06629 20.5682 3.45862 20.5682C3.132 20.5682 2.87753 20.5872 2.69523 20.6252C2.52053 20.6632 2.3914 20.7391 2.30784 20.8531C2.22429 20.967 2.18251 21.1379 2.18251 21.3658V26.493C2.18251 26.7209 2.21289 26.8994 2.27366 27.0285C2.34202 27.1577 2.46356 27.2564 2.63826 27.3248C2.82056 27.3855 3.07503 27.4159 3.40165 27.4159ZM12.9087 27.678C12.2023 27.678 11.5719 27.5147 11.0174 27.1881C10.4705 26.8538 10.0451 26.4057 9.74126 25.8436C9.44502 25.2739 9.2969 24.6548 9.2969 23.9864C9.2969 23.204 9.49439 22.5356 9.88938 21.9811C10.2844 21.419 10.7895 20.9974 11.4048 20.7163C12.0276 20.4353 12.6619 20.2948 13.3075 20.2948C14.0291 20.2948 14.6634 20.4657 15.2103 20.8075C15.7572 21.1417 16.175 21.5861 16.4636 22.1406C16.7599 22.6951 16.908 23.2838 16.908 23.9066C16.908 24.5978 16.7257 25.2321 16.3611 25.8094C15.9965 26.3867 15.5065 26.8424 14.8913 27.1767C14.2836 27.5109 13.6228 27.678 12.9087 27.678ZM13.3075 27.4387C13.8241 27.4387 14.2874 27.3134 14.6976 27.0627C15.1154 26.8121 15.442 26.4437 15.6775 25.9575C15.9205 25.4714 16.0421 24.8941 16.0421 24.2256C16.0421 23.5116 15.9091 22.8774 15.6433 22.3229C15.3774 21.7684 15.0014 21.3354 14.5153 21.024C14.0367 20.7125 13.4746 20.5568 12.829 20.5568C11.9934 20.5568 11.3402 20.8265 10.8693 21.3658C10.3983 21.9051 10.1628 22.6457 10.1628 23.5876C10.1628 24.3016 10.2958 24.9549 10.5616 25.5473C10.8275 26.1322 11.1997 26.5956 11.6782 26.9374C12.1568 27.2716 12.6999 27.4387 13.3075 27.4387ZM29.3501 20.4201C29.3729 20.4201 29.3843 20.4429 29.3843 20.4885C29.3843 20.534 29.3729 20.5568 29.3501 20.5568C29.0918 20.5568 28.8677 20.6252 28.6778 20.7619C28.4879 20.8986 28.3284 21.1303 28.1993 21.4569L25.7724 27.5299C25.7648 27.5602 25.723 27.5754 25.6471 27.5754C25.5863 27.5754 25.5445 27.5602 25.5217 27.5299L22.6847 21.3658C22.5555 21.0696 22.4188 20.8607 22.2745 20.7391C22.1302 20.6176 21.9441 20.5568 21.7162 20.5568C21.6934 20.5568 21.682 20.534 21.682 20.4885C21.682 20.4429 21.6934 20.4201 21.7162 20.4201L22.1492 20.4315C22.3618 20.4467 22.5328 20.4543 22.6619 20.4543C22.9657 20.4543 23.2923 20.4467 23.6418 20.4315L24.1089 20.4201C24.1317 20.4201 24.1431 20.4429 24.1431 20.4885C24.1431 20.534 24.1317 20.5568 24.1089 20.5568C23.8734 20.5568 23.6949 20.5872 23.5734 20.648C23.4595 20.7087 23.4025 20.8113 23.4025 20.9556C23.4025 21.0468 23.4367 21.1683 23.505 21.3202L25.8863 26.5386L27.9372 21.4C27.998 21.2405 28.0284 21.1151 28.0284 21.024C28.0284 20.8645 27.9562 20.7467 27.8119 20.6708C27.6676 20.5948 27.4435 20.5568 27.1397 20.5568C27.1169 20.5568 27.1055 20.534 27.1055 20.4885C27.1055 20.4429 27.1169 20.4201 27.1397 20.4201L27.6296 20.4315C27.8879 20.4467 28.1233 20.4543 28.336 20.4543C28.4955 20.4543 28.674 20.4467 28.8715 20.4315L29.3501 20.4201ZM32.381 26.6184C32.381 26.8462 32.4038 27.0171 32.4494 27.1311C32.495 27.2374 32.5823 27.3096 32.7114 27.3476C32.8482 27.3855 33.0608 27.4045 33.3495 27.4045C33.3723 27.4045 33.3837 27.4273 33.3837 27.4729C33.3837 27.5185 33.3723 27.5413 33.3495 27.5413C33.1216 27.5413 32.9393 27.5375 32.8026 27.5299L31.9936 27.5185L31.2074 27.5299C31.0707 27.5375 30.8846 27.5413 30.6491 27.5413C30.6264 27.5413 30.615 27.5185 30.615 27.4729C30.615 27.4273 30.6264 27.4045 30.6491 27.4045C30.9378 27.4045 31.1467 27.3855 31.2758 27.3476C31.4125 27.3096 31.5037 27.2374 31.5493 27.1311C31.6024 27.0171 31.629 26.8462 31.629 26.6184V21.343C31.629 21.1151 31.6024 20.948 31.5493 20.8417C31.5037 20.7353 31.4125 20.6632 31.2758 20.6252C31.1467 20.5796 30.9378 20.5568 30.6491 20.5568C30.6264 20.5568 30.615 20.534 30.615 20.4885C30.615 20.4429 30.6264 20.4201 30.6491 20.4201L31.2074 20.4315C31.5265 20.4467 31.7885 20.4543 31.9936 20.4543C32.2215 20.4543 32.495 20.4467 32.814 20.4315L33.3495 20.4201C33.3723 20.4201 33.3837 20.4429 33.3837 20.4885C33.3837 20.534 33.3723 20.5568 33.3495 20.5568C33.0684 20.5568 32.8596 20.5796 32.7228 20.6252C32.5937 20.6708 32.5025 20.7505 32.4494 20.8645C32.4038 20.9708 32.381 21.1379 32.381 21.3658V26.6184ZM42.7156 20.4201C42.7384 20.4201 42.7498 20.4429 42.7498 20.4885C42.7498 20.534 42.7384 20.5568 42.7156 20.5568C42.3966 20.5568 42.1649 20.6442 42.0206 20.8189C41.8762 20.9936 41.8041 21.2784 41.8041 21.6734V27.678C41.8041 27.6932 41.7851 27.7046 41.7471 27.7122C41.7091 27.7198 41.6825 27.716 41.6674 27.7008L36.4262 21.3544L36.3236 21.2405V26.2993C36.3236 26.6943 36.392 26.9792 36.5287 27.1539C36.6731 27.321 36.9009 27.4045 37.2124 27.4045C37.2351 27.4045 37.2465 27.4273 37.2465 27.4729C37.2465 27.5185 37.2351 27.5413 37.2124 27.5413C37.0225 27.5413 36.8781 27.5375 36.7794 27.5299L36.2097 27.5185L35.6286 27.5299C35.5223 27.5375 35.3666 27.5413 35.1615 27.5413C35.1463 27.5413 35.1387 27.5185 35.1387 27.4729C35.1387 27.4273 35.1463 27.4045 35.1615 27.4045C35.4881 27.4045 35.7198 27.321 35.8565 27.1539C35.9932 26.9792 36.0616 26.6943 36.0616 26.2993V20.967C35.7653 20.6936 35.4653 20.5568 35.1615 20.5568C35.1387 20.5568 35.1273 20.534 35.1273 20.4885C35.1273 20.4429 35.1387 20.4201 35.1615 20.4201L35.583 20.4315C35.6742 20.4391 35.7995 20.4429 35.959 20.4429C36.1261 20.4429 36.2629 20.4391 36.3692 20.4315C36.4756 20.4239 36.5591 20.4201 36.6199 20.4201C36.6806 20.4201 36.7224 20.4353 36.7452 20.4657C36.7756 20.4885 36.8212 20.5454 36.8819 20.6366C36.9731 20.7733 37.0642 20.8986 37.1554 21.0126L41.542 26.4019V21.6734C41.542 21.2784 41.4737 20.9936 41.3369 20.8189C41.2078 20.6442 40.9875 20.5568 40.6761 20.5568C40.6609 20.5568 40.6533 20.534 40.6533 20.4885C40.6533 20.4429 40.6609 20.4201 40.6761 20.4201L41.1205 20.4315C41.3483 20.4467 41.5344 20.4543 41.6788 20.4543C41.8155 20.4543 42.0054 20.4467 42.2484 20.4315L42.7156 20.4201ZM51.9966 27.4045C52.0194 27.4045 52.0308 27.4273 52.0308 27.4729C52.0308 27.5185 52.0194 27.5413 51.9966 27.5413C51.7611 27.5413 51.575 27.5375 51.4383 27.5299L50.6521 27.5185L49.8204 27.5299C49.6836 27.5375 49.5013 27.5413 49.2735 27.5413C49.2507 27.5413 49.2393 27.5185 49.2393 27.4729C49.2393 27.4273 49.2507 27.4045 49.2735 27.4045C49.5697 27.4045 49.7862 27.3855 49.9229 27.3476C50.0596 27.3096 50.1508 27.2374 50.1964 27.1311C50.2495 27.0171 50.2761 26.8462 50.2761 26.6184V23.9522H45.9009V26.6184C45.9009 26.8462 45.9237 27.0171 45.9692 27.1311C46.0224 27.2374 46.1174 27.3096 46.2541 27.3476C46.3908 27.3855 46.6073 27.4045 46.9035 27.4045C46.9187 27.4045 46.9263 27.4273 46.9263 27.4729C46.9263 27.5185 46.9187 27.5413 46.9035 27.5413C46.6681 27.5413 46.482 27.5375 46.3452 27.5299L45.5249 27.5185L44.7387 27.5299C44.602 27.5375 44.4121 27.5413 44.169 27.5413C44.1538 27.5413 44.1462 27.5185 44.1462 27.4729C44.1462 27.4273 44.1538 27.4045 44.169 27.4045C44.4577 27.4045 44.6703 27.3855 44.8071 27.3476C44.9514 27.3096 45.0463 27.2374 45.0919 27.1311C45.1451 27.0171 45.1717 26.8462 45.1717 26.6184V21.343C45.1717 21.1151 45.1451 20.948 45.0919 20.8417C45.0463 20.7353 44.9552 20.6632 44.8185 20.6252C44.6817 20.5796 44.4691 20.5568 44.1804 20.5568C44.1652 20.5568 44.1576 20.534 44.1576 20.4885C44.1576 20.4429 44.1652 20.4201 44.1804 20.4201L44.7615 20.4315C45.0805 20.4467 45.335 20.4543 45.5249 20.4543C45.7452 20.4543 46.0224 20.4467 46.3566 20.4315L46.9035 20.4201C46.9187 20.4201 46.9263 20.4429 46.9263 20.4885C46.9263 20.534 46.9187 20.5568 46.9035 20.5568C46.6149 20.5568 46.3984 20.5796 46.2541 20.6252C46.1174 20.6708 46.0224 20.7505 45.9692 20.8645C45.9237 20.9708 45.9009 21.1379 45.9009 21.3658V23.7129H50.2761V21.3658C50.2761 21.1379 50.2495 20.9708 50.1964 20.8645C50.1508 20.7505 50.0596 20.6708 49.9229 20.6252C49.7862 20.5796 49.5697 20.5568 49.2735 20.5568C49.2507 20.5568 49.2393 20.534 49.2393 20.4885C49.2393 20.4429 49.2507 20.4201 49.2735 20.4201L49.8204 20.4315C50.1546 20.4467 50.4318 20.4543 50.6521 20.4543C50.8572 20.4543 51.1193 20.4467 51.4383 20.4315L51.9966 20.4201C52.0194 20.4201 52.0308 20.4429 52.0308 20.4885C52.0308 20.534 52.0194 20.5568 51.9966 20.5568C51.7079 20.5568 51.4953 20.5796 51.3585 20.6252C51.2218 20.6632 51.1269 20.7353 51.0737 20.8417C51.0281 20.948 51.0053 21.1151 51.0053 21.343V26.6184C51.0053 26.8462 51.0281 27.0171 51.0737 27.1311C51.1269 27.2374 51.2218 27.3096 51.3585 27.3476C51.4953 27.3855 51.7079 27.4045 51.9966 27.4045ZM57.3835 27.678C56.6771 27.678 56.0466 27.5147 55.4921 27.1881C54.9452 26.8538 54.5198 26.4057 54.216 25.8436C53.9198 25.2739 53.7716 24.6548 53.7716 23.9864C53.7716 23.204 53.9691 22.5356 54.3641 21.9811C54.7591 21.419 55.2642 20.9974 55.8795 20.7163C56.5024 20.4353 57.1366 20.2948 57.7823 20.2948C58.5039 20.2948 59.1381 20.4657 59.685 20.8075C60.2319 21.1417 60.6497 21.5861 60.9384 22.1406C61.2346 22.6951 61.3827 23.2838 61.3827 23.9066C61.3827 24.5978 61.2004 25.2321 60.8358 25.8094C60.4712 26.3867 59.9813 26.8424 59.366 27.1767C58.7583 27.5109 58.0975 27.678 57.3835 27.678ZM57.7823 27.4387C58.2988 27.4387 58.7621 27.3134 59.1723 27.0627C59.5901 26.8121 59.9167 26.4437 60.1522 25.9575C60.3953 25.4714 60.5168 24.8941 60.5168 24.2256C60.5168 23.5116 60.3839 22.8774 60.118 22.3229C59.8521 21.7684 59.4762 21.3354 58.99 21.024C58.5115 20.7125 57.9494 20.5568 57.3037 20.5568C56.4682 20.5568 55.8149 20.8265 55.344 21.3658C54.873 21.9051 54.6376 22.6457 54.6376 23.5876C54.6376 24.3016 54.7705 24.9549 55.0363 25.5473C55.3022 26.1322 55.6744 26.5956 56.1529 26.9374C56.6315 27.2716 57.1746 27.4387 57.7823 27.4387Z" fill="#D9A863"/>
<path d="M19.4903 3.57941C19.4903 3.41104 19.5192 3.2453 19.5771 3.0822C19.6376 2.91646 19.7244 2.76651 19.8376 2.63234C19.9507 2.49554 20.0888 2.38637 20.2519 2.30482C20.4176 2.22326 20.6057 2.18249 20.8162 2.18249C21.0661 2.18249 21.2792 2.24036 21.4555 2.35612C21.6317 2.46924 21.7633 2.61524 21.8501 2.79413L21.6843 2.88884C21.6186 2.75993 21.537 2.65733 21.4397 2.58104C21.345 2.50475 21.2424 2.45082 21.1319 2.41925C21.0214 2.38505 20.9109 2.36795 20.8004 2.36795C20.6242 2.36795 20.4663 2.40347 20.3269 2.4745C20.1901 2.54553 20.0743 2.64023 19.9796 2.75862C19.8849 2.877 19.8126 3.00854 19.7626 3.15323C19.7152 3.29792 19.6916 3.44392 19.6916 3.59124C19.6916 3.75698 19.7205 3.91482 19.7784 4.06478C19.8362 4.2121 19.9152 4.34363 20.0151 4.45938C20.1177 4.57514 20.2361 4.66721 20.3703 4.73561C20.5071 4.80401 20.6544 4.83821 20.8122 4.83821C20.9254 4.83821 21.0398 4.81979 21.1556 4.78296C21.2739 4.7435 21.3844 4.68431 21.487 4.60539C21.5896 4.52384 21.6725 4.41861 21.7356 4.2897L21.9093 4.37257C21.8488 4.512 21.758 4.63038 21.637 4.72772C21.516 4.82506 21.3818 4.89872 21.2345 4.9487C21.0872 4.99868 20.9412 5.02368 20.7965 5.02368C20.6071 5.02368 20.4321 4.9829 20.2716 4.90135C20.1112 4.81716 19.9717 4.70667 19.8533 4.56988C19.7376 4.43045 19.6482 4.27523 19.585 4.10424C19.5219 3.93061 19.4903 3.75566 19.4903 3.57941ZM25.5098 5.01973C25.2862 5.01973 25.0994 4.98027 24.9495 4.90135C24.7995 4.82243 24.6798 4.71588 24.5904 4.58171C24.5009 4.44492 24.4365 4.29233 24.397 4.12397C24.3575 3.9556 24.3378 3.78329 24.3378 3.60703V2.19827H24.5391V3.60703C24.5391 3.75961 24.5548 3.90956 24.5864 4.05688C24.618 4.2042 24.6693 4.33706 24.7403 4.45544C24.814 4.57119 24.9126 4.66327 25.0363 4.73167C25.1625 4.80006 25.3191 4.83426 25.5059 4.83426C25.6953 4.83426 25.8518 4.79875 25.9754 4.72772C26.1017 4.65669 26.2004 4.5633 26.2714 4.44755C26.3451 4.32916 26.3964 4.19763 26.4253 4.05294C26.4569 3.90562 26.4726 3.75698 26.4726 3.60703V2.19827H26.6739V3.60703C26.6739 3.79381 26.6528 3.9727 26.6108 4.1437C26.5713 4.31206 26.5055 4.46202 26.4135 4.59355C26.3214 4.72509 26.2017 4.829 26.0544 4.90529C25.907 4.98158 25.7255 5.01973 25.5098 5.01973ZM29.337 5V2.19827H30.5011C30.6221 2.19827 30.7312 2.22326 30.8286 2.27325C30.9285 2.32323 31.014 2.39032 31.0851 2.4745C31.1587 2.55605 31.2153 2.64813 31.2548 2.75073C31.2968 2.85332 31.3179 2.95855 31.3179 3.06641C31.3179 3.20584 31.2903 3.33606 31.235 3.45708C31.1798 3.57809 31.1022 3.67937 31.0022 3.76093C30.9049 3.84248 30.7904 3.89246 30.6589 3.91088L31.3574 5H31.1245L30.4458 3.94245H29.5382V5H29.337ZM29.5382 3.75698H30.5208C30.6418 3.75698 30.747 3.7241 30.8365 3.65833C30.9259 3.59256 30.9943 3.50706 31.0417 3.40183C31.0917 3.2966 31.1166 3.1848 31.1166 3.06641C31.1166 2.9454 31.0877 2.83359 31.0298 2.73099C30.9746 2.62577 30.8996 2.54158 30.8049 2.47844C30.7128 2.41268 30.6089 2.37979 30.4932 2.37979H29.5382V3.75698ZM35.5024 2.66391C35.4577 2.61393 35.4077 2.57052 35.3524 2.53369C35.2972 2.49423 35.238 2.46266 35.1749 2.43898C35.1117 2.41268 35.0433 2.39295 34.9697 2.37979C34.896 2.36664 34.8171 2.36006 34.7329 2.36006C34.4593 2.36006 34.2594 2.41268 34.1331 2.51791C34.0095 2.6205 33.9476 2.75993 33.9476 2.93619C33.9476 3.05457 33.9753 3.14928 34.0305 3.22031C34.0884 3.28871 34.1778 3.34396 34.2988 3.38605C34.4198 3.42814 34.5764 3.46891 34.7684 3.50838C34.971 3.55047 35.1459 3.60045 35.2932 3.65833C35.4406 3.71357 35.5537 3.78986 35.6326 3.8872C35.7142 3.98454 35.7549 4.11607 35.7549 4.28181C35.7549 4.40545 35.7313 4.51463 35.6839 4.60934C35.6366 4.70141 35.5682 4.7777 35.4787 4.83821C35.3893 4.89872 35.2827 4.94475 35.1591 4.97632C35.0381 5.00789 34.9026 5.02368 34.7526 5.02368C34.6079 5.02368 34.4698 5.00789 34.3383 4.97632C34.2068 4.94475 34.0831 4.89872 33.9674 4.83821C33.8516 4.7777 33.7437 4.7001 33.6438 4.60539L33.7503 4.4436C33.8082 4.50674 33.8727 4.5633 33.9437 4.61328C34.0173 4.66064 34.0963 4.70141 34.1804 4.73561C34.2673 4.76981 34.3593 4.79743 34.4567 4.81848C34.554 4.83689 34.6553 4.8461 34.7605 4.8461C35.0052 4.8461 35.1959 4.80138 35.3327 4.71194C35.4721 4.61986 35.5419 4.48438 35.5419 4.30549C35.5419 4.18184 35.5103 4.08188 35.4471 4.00558C35.384 3.92929 35.2867 3.86747 35.1551 3.82012C35.0236 3.77013 34.8592 3.7241 34.6619 3.682C34.4646 3.63991 34.2962 3.59256 34.1568 3.53994C34.02 3.48733 33.9161 3.4163 33.845 3.32686C33.7766 3.23741 33.7424 3.1164 33.7424 2.96381C33.7424 2.79545 33.7832 2.65339 33.8648 2.53764C33.9489 2.41925 34.066 2.32981 34.216 2.2693C34.3659 2.2088 34.5382 2.17854 34.7329 2.17854C34.8539 2.17854 34.9657 2.19038 35.0683 2.21406C35.1735 2.23773 35.2696 2.27456 35.3564 2.32455C35.4458 2.3719 35.5287 2.43241 35.605 2.50607L35.5024 2.66391ZM39.3517 5.01973C39.157 5.01973 38.9794 4.98027 38.819 4.90135C38.6585 4.81979 38.5204 4.71194 38.4046 4.57777C38.2889 4.4436 38.1994 4.29233 38.1363 4.12397C38.0731 3.95297 38.0416 3.77803 38.0416 3.59914C38.0416 3.41235 38.0745 3.23478 38.1402 3.06641C38.206 2.89542 38.2981 2.74415 38.4165 2.61261C38.5375 2.47844 38.6769 2.37322 38.8347 2.29692C38.9952 2.218 39.1688 2.17854 39.3556 2.17854C39.5529 2.17854 39.7305 2.21932 39.8884 2.30087C40.0488 2.38242 40.1869 2.4916 40.3027 2.6284C40.4184 2.76519 40.5079 2.91778 40.571 3.08614C40.6342 3.25451 40.6657 3.42551 40.6657 3.59914C40.6657 3.78855 40.6328 3.96875 40.5671 4.13975C40.5013 4.30812 40.4079 4.45938 40.2869 4.59355C40.1685 4.72509 40.0291 4.829 39.8686 4.90529C39.7108 4.98158 39.5385 5.01973 39.3517 5.01973ZM38.2428 3.59914C38.2428 3.75961 38.2705 3.91351 38.3257 4.06083C38.3809 4.20815 38.4572 4.33969 38.5546 4.45544C38.6545 4.57119 38.7716 4.66327 38.9058 4.73167C39.0426 4.80006 39.1925 4.83426 39.3556 4.83426C39.5214 4.83426 39.6726 4.79875 39.8094 4.72772C39.9462 4.65669 40.0633 4.56198 40.1606 4.4436C40.258 4.32522 40.3316 4.19368 40.3816 4.04899C40.4342 3.90167 40.4605 3.75172 40.4605 3.59914C40.4605 3.43866 40.4329 3.28476 40.3777 3.13744C40.3251 2.99012 40.2488 2.85859 40.1488 2.74283C40.0488 2.62708 39.9304 2.53501 39.7936 2.46661C39.6595 2.39821 39.5135 2.36401 39.3556 2.36401C39.1873 2.36401 39.0347 2.39952 38.8979 2.47055C38.7611 2.54158 38.644 2.63629 38.5467 2.75467C38.452 2.87305 38.377 3.00591 38.3218 3.15323C38.2691 3.29792 38.2428 3.44655 38.2428 3.59914Z" fill="white"/>
</svg>
