<svg width="14" height="13" viewBox="0 0 14 13" fill="none" xmlns="http://www.w3.org/2000/svg">
<path fill-rule="evenodd" clip-rule="evenodd" d="M3.63786 12.8969C3.33889 13.0534 2.97469 13.03 2.69937 12.8365C2.42406 12.6431 2.28576 12.3134 2.34302 11.9871L2.98526 8.35999L0.265355 5.79004C0.0249698 5.55934 -0.0607869 5.21566 0.0439916 4.90293C0.14877 4.59019 0.426004 4.36234 0.759613 4.3148L4.51983 3.7855L6.19942 0.48262C6.35115 0.186815 6.66104 0 7 0C7.33896 0 7.64885 0.186815 7.80058 0.48262L9.48017 3.7855L13.2404 4.3148C13.574 4.36234 13.8512 4.59019 13.956 4.90293C14.0608 5.21566 13.975 5.55934 13.7346 5.79004L11.0133 8.35855L11.6555 11.9857C11.7134 12.3122 11.5754 12.6424 11.3 12.8363C11.0245 13.0302 10.6599 13.0537 10.3607 12.8969L6.99852 11.1863L3.63786 12.8969Z" fill="#FFC646"/>
</svg>
