<svg width="20" height="21" viewBox="0 0 20 21" fill="none" xmlns="http://www.w3.org/2000/svg">
<path d="M16.4682 7.10626C14.3082 3.77626 9.89819 2.78626 6.47819 4.85626C3.14819 6.92626 2.06819 11.4263 4.22819 14.7563L4.40819 15.0263L3.68819 17.7263L6.38819 17.0063L6.65819 17.1863C7.82819 17.8163 9.08819 18.1763 10.3482 18.1763C11.6982 18.1763 13.0482 17.8163 14.2182 17.0963C17.5482 14.9363 18.5382 10.5263 16.4682 7.10626V7.10626ZM14.5782 14.0363C14.2182 14.5763 13.7682 14.9363 13.1382 15.0263C12.7782 15.0263 12.3282 15.2063 10.5282 14.4863C8.99819 13.7663 7.73819 12.5963 6.83819 11.2463C6.29819 10.6163 6.02819 9.80626 5.93819 8.99626C5.93819 8.27626 6.20819 7.64626 6.65819 7.19626C6.83819 7.01626 7.01819 6.92626 7.19819 6.92626H7.64819C7.82819 6.92626 8.00819 6.92626 8.09819 7.28626C8.27819 7.73626 8.72819 8.81626 8.72819 8.90626C8.81819 8.99626 8.81819 9.17626 8.72819 9.26626C8.81819 9.44626 8.72819 9.62626 8.63819 9.71626C8.54819 9.80626 8.45819 9.98626 8.36819 10.0763C8.18819 10.1663 8.09819 10.3463 8.18819 10.5263C8.54819 11.0663 8.99819 11.6063 9.44819 12.0563C9.98819 12.5063 10.5282 12.8663 11.1582 13.1363C11.3382 13.2263 11.5182 13.2263 11.6082 13.0463C11.6982 12.8663 12.1482 12.4163 12.3282 12.2363C12.5082 12.0563 12.5982 12.0563 12.7782 12.1463L14.2182 12.8663C14.3982 12.9563 14.5782 13.0463 14.6682 13.1363C14.7582 13.4063 14.7582 13.7663 14.5782 14.0363V14.0363Z" fill="white"/>
</svg>
