<svg width="33" height="33" viewBox="0 0 33 33" fill="none" xmlns="http://www.w3.org/2000/svg">
<path d="M10.2859 9.88193L10.7365 7.6281C10.8283 7.16887 11.0764 6.75566 11.4386 6.4588C11.8008 6.16195 12.2547 5.99981 12.723 6H19.527C19.9953 5.99981 20.4492 6.16195 20.8114 6.4588C21.1736 6.75566 21.4217 7.16887 21.5135 7.6281L21.9641 9.88193C22.0348 10.2351 22.2043 10.5609 22.4529 10.8215C22.7015 11.0821 23.019 11.2668 23.3684 11.3541C24.1916 11.56 24.9223 12.0352 25.4444 12.7041C25.9665 13.3729 26.2501 14.1971 26.25 15.0457V22.2C26.25 23.2741 25.8233 24.3043 25.0638 25.0638C24.3043 25.8233 23.2741 26.25 22.2 26.25H10.05C8.97587 26.25 7.94574 25.8233 7.18622 25.0638C6.4267 24.3043 6 23.2741 6 22.2V15.0457C5.99992 14.1971 6.28348 13.3729 6.80559 12.7041C7.3277 12.0352 8.05841 11.56 8.88158 11.3541C9.231 11.2668 9.54847 11.0821 9.79707 10.8215C10.0457 10.5609 10.2152 10.2351 10.2859 9.88193V9.88193Z" stroke="#F8F8F8" stroke-width="2" stroke-linecap="round" stroke-linejoin="round"/>
<path d="M16.1242 22.1996C18.361 22.1996 20.1742 20.3864 20.1742 18.1496C20.1742 15.9129 18.361 14.0996 16.1242 14.0996C13.8875 14.0996 12.0742 15.9129 12.0742 18.1496C12.0742 20.3864 13.8875 22.1996 16.1242 22.1996Z" stroke="#F8F8F8" stroke-width="2" stroke-linecap="round" stroke-linejoin="round"/>
<path d="M15.1133 10.0508H17.1383" stroke="#F8F8F8" stroke-width="2" stroke-linecap="round" stroke-linejoin="round"/>
</svg>
