<svg width="33" height="33" viewBox="0 0 33 33" fill="none" xmlns="http://www.w3.org/2000/svg">
<path d="M8.39347 12.4034C8.15462 12.4034 7.92556 12.4983 7.75667 12.6672C7.58778 12.8361 7.4929 13.0651 7.4929 13.304C7.4929 13.5428 7.58778 13.7719 7.75667 13.9408C7.92556 14.1097 8.15462 14.2045 8.39347 14.2045H21.0014C21.2403 14.2045 21.4693 14.1097 21.6382 13.9408C21.8071 13.7719 21.902 13.5428 21.902 13.304C21.902 13.0651 21.8071 12.8361 21.6382 12.6672C21.4693 12.4983 21.2403 12.4034 21.0014 12.4034H8.39347ZM8.39347 16.0057C8.15462 16.0057 7.92556 16.1006 7.75667 16.2695C7.58778 16.4383 7.4929 16.6674 7.4929 16.9063V20.5085C7.4929 20.7474 7.58778 20.9764 7.75667 21.1453C7.92556 21.3142 8.15462 21.4091 8.39347 21.4091H11.9957C12.2346 21.4091 12.4636 21.3142 12.6325 21.1453C12.8014 20.9764 12.8963 20.7474 12.8963 20.5085V16.9063C12.8963 16.6674 12.8014 16.4383 12.6325 16.2695C12.4636 16.1006 12.2346 16.0057 11.9957 16.0057H8.39347ZM9.29403 19.608V17.8068H11.0952V19.608H9.29403ZM15.598 16.0057C15.3592 16.0057 15.1301 16.1006 14.9612 16.2695C14.7923 16.4383 14.6974 16.6674 14.6974 16.9063C14.6974 17.1451 14.7923 17.3742 14.9612 17.543C15.1301 17.7119 15.3592 17.8068 15.598 17.8068H21.0014C21.2403 17.8068 21.4693 17.7119 21.6382 17.543C21.8071 17.3742 21.902 17.1451 21.902 16.9063C21.902 16.6674 21.8071 16.4383 21.6382 16.2695C21.4693 16.1006 21.2403 16.0057 21.0014 16.0057H15.598ZM15.598 19.608C15.3592 19.608 15.1301 19.7028 14.9612 19.8717C14.7923 20.0406 14.6974 20.2697 14.6974 20.5085C14.6974 20.7474 14.7923 20.9764 14.9612 21.1453C15.1301 21.3142 15.3592 21.4091 15.598 21.4091H21.0014C21.2403 21.4091 21.4693 21.3142 21.6382 21.1453C21.8071 20.9764 21.902 20.7474 21.902 20.5085C21.902 20.2697 21.8071 20.0406 21.6382 19.8717C21.4693 19.7028 21.2403 19.608 21.0014 19.608H15.598ZM3.89062 10.6023C3.89062 9.64689 4.27015 8.73064 4.94571 8.05508C5.62126 7.37952 6.53752 7 7.4929 7H21.902C22.8574 7 23.7736 7.37952 24.4492 8.05508C25.1247 8.73064 25.5043 9.64689 25.5043 10.6023C26.4596 10.6023 27.3759 10.9818 28.0515 11.6574C28.727 12.3329 29.1065 13.2492 29.1065 14.2045V22.3097C29.1065 23.5039 28.6321 24.6492 27.7877 25.4936C26.9432 26.3381 25.7979 26.8125 24.6037 26.8125H8.39347C7.19924 26.8125 6.05392 26.3381 5.20948 25.4936C4.36503 24.6492 3.89062 23.5039 3.89062 22.3097V10.6023ZM24.6037 22.3097C24.3648 22.3097 24.1358 22.2148 23.9669 22.0459C23.798 21.877 23.7031 21.6479 23.7031 21.4091V10.6023C23.7031 10.1246 23.5134 9.66646 23.1756 9.32868C22.8378 8.9909 22.3797 8.80114 21.902 8.80114H7.4929C7.01521 8.80114 6.55708 8.9909 6.2193 9.32868C5.88152 9.66646 5.69176 10.1246 5.69176 10.6023V22.3097C5.69176 23.0262 5.9764 23.7134 6.48307 24.2201C6.98974 24.7267 7.67693 25.0114 8.39347 25.0114H24.6037C25.3202 25.0114 26.0074 24.7267 26.5141 24.2201C27.0208 23.7134 27.3054 23.0262 27.3054 22.3097V14.2045C27.3054 13.7269 27.1156 13.2687 26.7779 12.931C26.4401 12.5932 25.982 12.4034 25.5043 12.4034V21.4091C25.5043 21.6479 25.4094 21.877 25.2405 22.0459C25.0716 22.2148 24.8425 22.3097 24.6037 22.3097Z" fill="#F8F8F8"/>
</svg>
